<svg width="37" height="38" viewBox="0 0 37 38" fill="none" xmlns="http://www.w3.org/2000/svg">
<g clip-path="url(#clip0_6314_4814)">
<path d="M27.7036 20.8308C27.7036 21.8506 26.8765 22.6777 25.8567 22.6777C24.8369 22.6777 24.0098 21.8506 24.0098 20.8308C24.0098 19.811 24.8369 18.9839 25.8567 18.9839C26.8765 18.9839 27.7036 19.811 27.7036 20.8308Z" fill="#F6C235"/>
<path d="M9.23436 6.05542V23.7121H5.54053V6.05542H9.23436Z" fill="#CAC8C8"/>
<path d="M24.626 11.5962V7.90234H27.088V11.5962H24.626Z" fill="#CAC8C8"/>
<path d="M24.6258 2.97754V6.67137H8.61865V2.97754H24.6258Z" fill="#CAC8C8"/>
<path d="M30.7817 36.8371H20.932C20.2513 36.8371 19.7002 36.2867 19.7002 35.6061V26.3715C19.7002 26.0323 19.9769 25.7556 20.3161 25.7556H31.3976C31.7368 25.7556 32.0135 26.0323 32.0135 26.3715V35.6061C32.0135 36.2867 31.4623 36.8371 30.7817 36.8371Z" fill="#C3002F"/>
<path d="M11.6976 34.3751H3.07812V26.3715C3.07812 23.9904 5.00675 22.0618 7.38785 22.0618C9.76896 22.0618 11.6976 23.9904 11.6976 26.3715V34.3751Z" fill="#CAC8C8"/>
<path d="M9.23436 26.3716C9.23436 27.3914 8.40726 28.2185 7.38744 28.2185C6.36763 28.2185 5.54053 27.3914 5.54053 26.3716C5.54053 25.3518 6.36763 24.5247 7.38744 24.5247C8.40726 24.5247 9.23436 25.3518 9.23436 26.3716Z" fill="#CAC8C8"/>
<path d="M24.0098 11.5961V14.6741C24.0098 15.3547 24.5609 15.9058 25.2408 15.9058H26.4726C27.1532 15.9058 27.7036 15.3547 27.7036 14.6741V11.5961C27.7036 11.257 27.4269 10.9802 27.0877 10.9802H24.6257C24.2865 10.9802 24.0098 11.257 24.0098 11.5961Z" fill="#CAC8C8"/>
<path d="M23.394 2.36164V7.28649C23.394 7.96714 23.9452 8.51828 24.6258 8.51828H27.0879C27.7685 8.51828 28.3197 7.96714 28.3197 7.28649V2.36164C28.3197 1.68099 27.7685 1.13062 27.0879 1.13062H24.6258C23.9452 1.13062 23.394 1.68099 23.394 2.36164Z" fill="#CAC8C8"/>
<path d="M28.3197 3.59277H27.088C26.4081 3.59277 25.8569 4.14392 25.8569 4.82457C25.8569 5.50521 26.4081 6.05559 27.088 6.05559H28.3197" fill="#CAC8C8"/>
<path d="M10.4654 4.82456C10.4654 6.52425 9.08797 7.9025 7.38751 7.9025C5.68705 7.9025 4.30957 6.52425 4.30957 4.82456C4.30957 3.1241 5.68705 1.74585 7.38751 1.74585C9.08797 1.74585 10.4654 3.1241 10.4654 4.82456Z" fill="#CAC8C8"/>
<path d="M13.5441 36.8371H1.23085C0.891681 36.8371 0.615723 36.5612 0.615723 36.222V34.3751C0.615723 33.6945 1.1661 33.1433 1.84674 33.1433H12.9282C13.6089 33.1433 14.1593 33.6945 14.1593 34.3751V36.222C14.1593 36.5612 13.8833 36.8371 13.5441 36.8371Z" fill="#CAC8C8"/>
<path d="M1.23102 34.375C1.23102 34.0359 1.50775 33.7592 1.84692 33.7592H12.9284C13.2676 33.7592 13.5443 34.0359 13.5443 34.375L13.5466 36.222H1.23102V34.375ZM3.69383 26.3715C3.69383 24.3349 5.35113 22.6777 7.38767 22.6777C9.42421 22.6777 11.0815 24.3349 11.0815 26.3715V32.5281H3.69383V26.3715ZM4.92485 4.82438C4.92485 3.4654 6.02869 2.36157 7.38767 2.36157C8.74665 2.36157 9.85048 3.4654 9.85048 4.82438C9.85048 6.18259 8.74665 7.28642 7.38767 7.28642C6.02869 7.28642 4.92485 6.18259 4.92485 4.82438ZM22.7789 3.59259V6.0554H20.932V5.4395C20.932 5.10034 20.6553 4.82438 20.3161 4.82438C19.9769 4.82438 19.7002 5.10034 19.7002 5.4395V6.0554H14.1594V5.4395C14.1594 5.10034 13.8835 4.82438 13.5443 4.82438C13.2051 4.82438 12.9284 5.10034 12.9284 5.4395V6.0554H10.8672C11.0021 5.66844 11.0815 5.25682 11.0815 4.82438C11.0815 4.39117 11.0021 3.98032 10.8672 3.59259H22.7789ZM24.0099 2.36157C24.0099 2.0224 24.2866 1.74567 24.6258 1.74567H27.0879C27.427 1.74567 27.7038 2.0224 27.7038 2.36157V2.97746H27.0879C26.0688 2.97746 25.2409 3.80457 25.2409 4.82438C25.2409 5.84342 26.0688 6.67129 27.0879 6.67129H27.7038V7.28642C27.7038 7.62559 27.427 7.90232 27.0879 7.90232H24.6258C24.2866 7.90232 24.0099 7.62559 24.0099 7.28642V2.36157ZM27.7038 5.4395H27.0879C26.7495 5.4395 26.4727 5.16354 26.4727 4.82438C26.4727 4.48521 26.7495 4.20848 27.0879 4.20848H27.7038V5.4395ZM25.8568 22.0618C25.1785 22.0618 24.6258 21.5091 24.6258 20.8307C24.6258 20.1524 25.1785 19.5997 25.8568 19.5997C26.5352 19.5997 27.0879 20.1524 27.0879 20.8307C27.0879 21.5091 26.5352 22.0618 25.8568 22.0618ZM26.4727 10.3651H25.2409V9.13334H26.4727V10.3651ZM24.6258 11.5961H27.0879V14.6741C27.0879 15.0133 26.8119 15.29 26.4727 15.29H25.2409C24.9025 15.29 24.6258 15.0133 24.6258 14.6741V11.5961ZM27.0879 18.7094C26.7248 18.4982 26.3062 18.3679 25.8568 18.3679C25.4074 18.3679 24.9889 18.4982 24.6258 18.7094V18.2623C24.6258 18.1012 24.6906 17.9424 24.8062 17.8268L25.8568 16.7761L26.9075 17.8268C27.0231 17.9424 27.0879 18.1012 27.0879 18.2623V18.7094ZM1.23102 37.453H13.5443C14.2219 37.453 14.7753 36.9003 14.7753 36.222V34.375C14.7753 33.3552 13.9482 32.5281 12.9284 32.5281H12.3125V26.3715C12.3125 24.5531 11.3197 22.9659 9.85048 22.1126V7.57009C9.94915 7.48144 10.0447 7.38509 10.1341 7.28642H22.7789C22.7789 8.08732 23.2961 8.76565 24.0099 9.0208V10.5355C23.6445 10.7498 23.394 11.1437 23.394 11.5961V14.6741C23.394 15.4364 23.8588 16.0909 24.5194 16.3745L23.9351 16.9565C23.5867 17.3049 23.394 17.7698 23.394 18.2623V22.6777C23.394 23.0168 23.6708 23.2935 24.0099 23.2935C24.2628 23.2935 24.4786 23.1417 24.5726 22.9228C24.948 23.154 25.3859 23.2935 25.8568 23.2935C26.3286 23.2935 26.7656 23.154 27.141 22.9228C27.2351 23.1417 27.4517 23.2935 27.7038 23.2935C28.0429 23.2935 28.3196 23.0168 28.3196 22.6777V18.2623C28.3196 17.7698 28.1269 17.3049 27.7785 16.9565L27.1942 16.3745C27.8556 16.0909 28.3196 15.4364 28.3196 14.6741V11.5961C28.3196 11.1437 28.0691 10.7498 27.7038 10.5355V9.0208C28.4183 8.76565 28.9348 8.08732 28.9348 7.28642V2.36157C28.9348 1.34175 28.1077 0.514648 27.0879 0.514648H24.6258C23.606 0.514648 22.7789 1.34175 22.7789 2.36157H10.1341C9.45581 1.60846 8.47917 1.13054 7.38767 1.13054C5.35113 1.13054 3.69383 2.78707 3.69383 4.82438C3.69383 6.86092 5.35113 8.51821 7.38767 8.51821C7.82088 8.51821 8.23173 8.43882 8.61869 8.30392V10.3651H8.00356C7.6644 10.3651 7.38767 10.6411 7.38767 10.9803C7.38767 11.3194 7.6644 11.5961 8.00356 11.5961H8.61869V17.7528H8.00356C7.6644 17.7528 7.38767 18.0288 7.38767 18.3679C7.38767 18.7071 7.6644 18.9838 8.00356 18.9838H8.61869V21.61C8.22479 21.5068 7.81317 21.4466 7.38767 21.4466C6.96217 21.4466 6.55054 21.5068 6.15665 21.61V9.74923C6.15665 9.41007 5.87992 9.13334 5.54075 9.13334C5.20158 9.13334 4.92485 9.41007 4.92485 9.74923V22.1126C3.45565 22.9659 2.46281 24.5531 2.46281 26.3715V32.5281H1.84692C0.827104 32.5281 0 33.3552 0 34.375V36.222C0 36.9003 0.553458 37.453 1.23102 37.453Z" fill="#4F5858"/>
<path d="M7.38762 27.6025C6.70928 27.6025 6.1566 27.0498 6.1566 26.3715C6.1566 25.6932 6.70928 25.1405 7.38762 25.1405C8.06595 25.1405 8.61864 25.6932 8.61864 26.3715C8.61864 27.0498 8.06595 27.6025 7.38762 27.6025ZM7.38762 23.9087C6.02864 23.9087 4.9248 25.0125 4.9248 26.3715C4.9248 27.7305 6.02864 28.8343 7.38762 28.8343C8.7466 28.8343 9.85043 27.7305 9.85043 26.3715C9.85043 25.0125 8.7466 23.9087 7.38762 23.9087Z" fill="#4F5858"/>
<path d="M20.3159 35.6062V26.3716H31.3974V35.6062C31.3974 35.9454 31.1207 36.2221 30.7815 36.2221H20.9318C20.5927 36.2221 20.3159 35.9454 20.3159 35.6062ZM32.6285 35.6062V25.9677L36.8087 20.5927C37.0176 20.3236 36.9698 19.939 36.7 19.7293C36.431 19.5204 36.0463 19.5705 35.8367 19.838L31.7127 25.1406H20.0007L15.8767 19.838C15.6701 19.5705 15.2824 19.5204 15.0134 19.7293C14.7436 19.939 14.6958 20.3236 14.9055 20.5927L19.0849 25.9677V35.6062C19.0849 36.626 19.912 37.4531 20.9318 37.4531H30.7815C31.8014 37.4531 32.6285 36.626 32.6285 35.6062Z" fill="#4F5858"/>
<path d="M22.1628 32.5283C21.8236 32.5283 21.5469 32.8043 21.5469 33.1434V34.3752C21.5469 34.7144 21.8236 34.9904 22.1628 34.9904C22.5019 34.9904 22.7787 34.7144 22.7787 34.3752V33.1434C22.7787 32.8043 22.5019 32.5283 22.1628 32.5283Z" fill="#4F5858"/>
<path d="M24.6257 32.5283C24.2865 32.5283 24.0098 32.8043 24.0098 33.1434V34.3752C24.0098 34.7144 24.2865 34.9904 24.6257 34.9904C24.9648 34.9904 25.2408 34.7144 25.2408 34.3752V33.1434C25.2408 32.8043 24.9648 32.5283 24.6257 32.5283Z" fill="#4F5858"/>
</g>
<defs>
<clipPath id="clip0_6314_4814">
<rect width="37" height="37" fill="white" transform="translate(0 0.483887)"/>
</clipPath>
</defs>
</svg>
