<svg width="38" height="38" viewBox="0 0 38 38" fill="none" xmlns="http://www.w3.org/2000/svg">
<g clip-path="url(#clip0_6314_1896)">
<path d="M16.602 4.71289C16.4641 4.71289 16.3361 4.62347 16.2929 4.48472L15.7071 2.60851C15.6539 2.43739 15.7495 2.25547 15.9206 2.20228C16.091 2.14909 16.2729 2.24391 16.3261 2.41503L16.9119 4.29124C16.9651 4.46236 16.8695 4.64428 16.6992 4.69824C16.6668 4.70749 16.6344 4.71289 16.602 4.71289Z" fill="#C3002F"/>
<path d="M20.8699 4.72257C20.8414 4.72257 20.8129 4.71872 20.7836 4.71024C20.6109 4.66322 20.5092 4.48438 20.557 4.31172L21.0981 2.34069C21.1459 2.16803 21.3239 2.06705 21.4966 2.11407C21.6693 2.16186 21.771 2.34069 21.7232 2.51336L21.1821 4.48361C21.1428 4.62776 21.0118 4.72257 20.8699 4.72257Z" fill="#C3002F"/>
<path d="M17.9794 1.16857L17.994 2.03961C17.9971 2.20148 17.8807 2.34101 17.7204 2.36567C14.3881 2.89215 11.8975 5.77738 11.8281 9.13513L25.8026 8.89463C25.6238 5.5839 23.1679 2.85669 19.8733 2.35874C19.7169 2.33484 19.6005 2.20148 19.5974 2.04269L19.582 1.14082L17.9794 1.16857ZM11.5059 9.79034C11.3302 9.79034 11.186 9.65005 11.1814 9.47353L11.1799 9.41109C11.1475 7.55492 11.7896 5.75426 12.9859 4.33901C14.1098 3.01086 15.6476 2.10667 17.3411 1.77367L17.3257 0.854839C17.3234 0.769276 17.3566 0.686027 17.4167 0.623589C17.476 0.561922 17.5578 0.526464 17.6441 0.524922L19.8949 0.486381C19.982 0.484839 20.0637 0.517214 20.1254 0.577339C20.1878 0.637464 20.2233 0.719172 20.2248 0.804735L20.241 1.76288C21.9006 2.07584 23.4223 2.94071 24.5492 4.21721C25.7502 5.57773 26.4293 7.32907 26.4609 9.14746V9.21067C26.4624 9.38874 26.3198 9.53519 26.1425 9.53828L11.5106 9.79034C11.509 9.79034 11.5075 9.79034 11.5059 9.79034Z" fill="#4F5858"/>
<path d="M11.9483 10.1581H11.9491H11.9483ZM18.9213 19.913C16.3991 19.913 14.1807 17.9003 13.1185 14.6389C13.0977 14.5765 13.0969 14.5087 13.1162 14.4455C13.2572 13.9752 12.7446 13.6762 12.723 13.6638C12.6845 13.6415 12.649 13.6114 12.6228 13.576C11.3093 11.8254 11.7549 10.6391 11.9221 10.1928C11.9306 10.1689 11.9414 10.1419 11.9476 10.1234L11.936 9.45816C11.9329 9.27933 12.0755 9.13133 12.2551 9.12825C12.2567 9.12825 12.259 9.12825 12.2605 9.12825C12.4371 9.12825 12.582 9.27008 12.5843 9.4466L12.5966 10.1473C12.5982 10.2375 12.5689 10.3146 12.5296 10.4209C12.3846 10.8048 12.0493 11.6997 13.1038 13.1358C13.4337 13.3462 13.9078 13.8488 13.7637 14.5272C14.7565 17.4895 16.7576 19.304 18.9914 19.2632C21.2299 19.2246 23.1632 17.3446 24.0535 14.3499C23.8862 13.6769 24.3426 13.1582 24.6656 12.9369C25.67 11.4646 25.3038 10.5828 25.1466 10.2036C25.1026 10.0987 25.071 10.0224 25.0695 9.93223L25.0571 9.23231C25.0541 9.05348 25.1974 8.90548 25.3763 8.90239C25.5528 8.89931 25.7031 9.04191 25.7062 9.22152L25.7177 9.88598C25.7239 9.90448 25.7355 9.93146 25.7447 9.95458C25.9274 10.3947 26.4138 11.5649 25.1612 13.3601C25.135 13.3971 25.1018 13.4287 25.0625 13.4519C25.0425 13.465 24.5407 13.781 24.6987 14.2458C24.7195 14.3082 24.7211 14.3761 24.7026 14.4401C23.7429 17.7716 21.5583 19.8683 19.003 19.9122C18.976 19.913 18.9483 19.913 18.9213 19.913Z" fill="#4F5858"/>
<path d="M18.7571 5.61511H18.7579H18.7571ZM18.7625 5.93886C18.5096 5.94348 18.2738 6.04601 18.098 6.22792C17.9223 6.41061 17.8282 6.64957 17.8321 6.90317C17.8413 7.41963 18.2637 7.83434 18.7787 7.83434C18.7841 7.83434 18.7895 7.83434 18.7956 7.83434C19.0477 7.82971 19.2843 7.72719 19.4601 7.54528C19.6351 7.36336 19.7299 7.12363 19.726 6.87003C19.7206 6.61719 19.6189 6.38132 19.4362 6.20557C19.255 6.02905 19.0161 5.93578 18.7625 5.93886ZM18.7787 8.48338C17.9115 8.48338 17.1985 7.78501 17.1838 6.91396C17.1769 6.48769 17.3357 6.08378 17.6317 5.77698C17.9277 5.47096 18.3254 5.29753 18.7509 5.28982C19.178 5.28211 19.5811 5.44167 19.8871 5.73844C20.1939 6.03521 20.3666 6.43296 20.3735 6.85923C20.3812 7.28551 20.2224 7.68942 19.9264 7.99621C19.6297 8.30301 19.2319 8.47567 18.8064 8.48338C18.7972 8.48338 18.7871 8.48338 18.7787 8.48338Z" fill="#C3002F"/>
<path d="M5.01795 36.8349H32.6215C32.6238 36.3593 32.6284 35.8953 32.6331 35.4436C32.6955 29.5228 32.7364 25.6116 25.3387 23.3091C25.2886 23.2929 25.2423 23.2652 25.2053 23.2282L22.9236 20.9442L19.0487 24.8076C18.9222 24.934 18.7172 24.934 18.5908 24.8076L14.7158 20.9442L12.4341 23.2282C12.3964 23.2652 12.3509 23.2929 12.3008 23.3091C4.9031 25.6116 4.94395 29.5228 5.00639 35.4436C5.01102 35.8953 5.01564 36.3593 5.01718 36.8349H5.01795ZM32.9452 37.484H4.6942C4.51537 37.484 4.36968 37.3383 4.36968 37.1595C4.36968 36.5744 4.36429 36.0032 4.35812 35.4497C4.29491 29.4812 4.24943 25.163 12.0318 22.7133L14.4861 20.2566C14.6125 20.1294 14.8176 20.1294 14.944 20.2558L18.8197 24.12L22.6955 20.2558C22.8219 20.1294 23.0269 20.1294 23.1534 20.2566L25.6077 22.7133C33.3908 25.163 33.3445 29.4812 33.2813 35.4497C33.2759 36.0032 33.2698 36.5744 33.2698 37.1595C33.2698 37.3383 33.1249 37.484 32.9452 37.484Z" fill="#4F5858"/>
<path d="M14.7156 20.8099C14.536 20.8099 14.3911 20.6649 14.3911 20.4853V17.16C14.3911 16.9804 14.536 16.8354 14.7156 16.8354C14.8945 16.8354 15.0394 16.9804 15.0394 17.16V20.4853C15.0394 20.6649 14.8945 20.8099 14.7156 20.8099Z" fill="#4F5858"/>
<path d="M22.9244 20.81C22.7448 20.81 22.5999 20.6651 22.5999 20.4855V17.3929C22.5999 17.214 22.7448 17.0684 22.9244 17.0684C23.1032 17.0684 23.2481 17.214 23.2481 17.3929V20.4855C23.2481 20.6651 23.1032 20.81 22.9244 20.81Z" fill="#4F5858"/>
<path d="M10.0977 37.4839C9.98054 37.4839 9.868 37.4206 9.81018 37.3089C7.65648 33.1741 8.51133 24.725 8.5491 24.3674C8.5676 24.1893 8.72793 24.0606 8.90523 24.0783C9.08329 24.0968 9.21202 24.2571 9.19352 24.4352C9.18504 24.5208 8.3217 33.0477 10.3852 37.009C10.4677 37.1686 10.406 37.3636 10.2472 37.4469C10.1995 37.4715 10.1486 37.4839 10.0977 37.4839Z" fill="#4F5858"/>
<path d="M13.0092 37.4837C12.8904 37.4837 12.7764 37.4181 12.7193 37.3056C10.2966 32.4964 11.819 23.3319 11.8853 22.9434C11.9153 22.7677 12.0826 22.649 12.2591 22.6783C12.4357 22.7083 12.5544 22.8764 12.5243 23.0529C12.5089 23.1462 10.9718 32.3946 13.2982 37.0127C13.3784 37.173 13.3144 37.368 13.1548 37.449C13.1078 37.4721 13.0577 37.4837 13.0092 37.4837Z" fill="#4F5858"/>
<path d="M27.5415 37.4839C27.4907 37.4839 27.4398 37.4716 27.392 37.4469C27.2324 37.3636 27.1715 37.1686 27.254 37.0091C29.3175 33.0477 28.4372 24.5115 28.428 24.4252C28.4087 24.2471 28.5382 24.0876 28.7155 24.0683C28.8936 24.049 29.0531 24.1785 29.0724 24.3566C29.1109 24.7143 29.9828 33.1734 27.8291 37.3089C27.7712 37.4207 27.6579 37.4839 27.5415 37.4839Z" fill="#4F5858"/>
<path d="M24.6303 37.4841C24.5817 37.4841 24.5316 37.4725 24.4846 37.4494C24.325 37.3685 24.261 37.1734 24.3412 37.0131C26.6676 32.395 25.1305 23.1466 25.1151 23.0533C25.0851 22.8768 25.2038 22.7088 25.3803 22.6795C25.5568 22.6494 25.7241 22.7681 25.7541 22.9439C25.8204 23.3324 27.3428 32.4968 24.9201 37.306C24.8631 37.4186 24.7497 37.4841 24.6303 37.4841Z" fill="#4F5858"/>
<path d="M16.7105 37.483C16.5309 37.483 16.386 37.3381 16.386 37.1593V22.4749C16.386 22.2953 16.5309 22.1504 16.7105 22.1504C16.8893 22.1504 17.035 22.2953 17.035 22.4749V37.1593C17.035 37.3381 16.8893 37.483 16.7105 37.483ZM20.9285 37.483C20.7497 37.483 20.6048 37.3381 20.6048 37.1593V22.4749C20.6048 22.2953 20.7497 22.1504 20.9285 22.1504C21.1081 22.1504 21.253 22.2953 21.253 22.4749V37.1593C21.253 37.3381 21.1081 37.483 20.9285 37.483Z" fill="#4F5858"/>
<path d="M18.8196 30.3439C18.5536 30.3439 18.337 30.5605 18.337 30.8272C18.337 31.0939 18.5536 31.3105 18.8196 31.3105C19.0855 31.3105 19.3021 31.0939 19.3021 30.8272C19.3021 30.5605 19.0855 30.3439 18.8196 30.3439ZM18.8196 31.9595C18.196 31.9595 17.688 31.4516 17.688 30.8272C17.688 30.2028 18.196 29.6948 18.8196 29.6948C19.4432 29.6948 19.9512 30.2028 19.9512 30.8272C19.9512 31.4516 19.4432 31.9595 18.8196 31.9595Z" fill="#C3002F"/>
<path d="M18.8196 26.4643C18.5536 26.4643 18.337 26.6809 18.337 26.9476C18.337 27.2143 18.5536 27.4309 18.8196 27.4309C19.0855 27.4309 19.3021 27.2143 19.3021 26.9476C19.3021 26.6809 19.0855 26.4643 18.8196 26.4643ZM18.8196 28.0799C18.196 28.0799 17.688 27.572 17.688 26.9476C17.688 26.3232 18.196 25.8145 18.8196 25.8145C19.4432 25.8145 19.9512 26.3232 19.9512 26.9476C19.9512 27.572 19.4432 28.0799 18.8196 28.0799Z" fill="#C3002F"/>
<path d="M18.8196 34.2233C18.5536 34.2233 18.337 34.4399 18.337 34.7066C18.337 34.9733 18.5536 35.1899 18.8196 35.1899C19.0855 35.1899 19.3021 34.9733 19.3021 34.7066C19.3021 34.4399 19.0855 34.2233 18.8196 34.2233ZM18.8196 35.8389C18.196 35.8389 17.688 35.3309 17.688 34.7066C17.688 34.0822 18.196 33.5742 18.8196 33.5742C19.4432 33.5742 19.9512 34.0822 19.9512 34.7066C19.9512 35.3309 19.4432 35.8389 18.8196 35.8389Z" fill="#C3002F"/>
</g>
<defs>
<clipPath id="clip0_6314_1896">
<rect width="37" height="37" fill="white" transform="translate(0.333496 0.483887)"/>
</clipPath>
</defs>
</svg>
