<svg width="37" height="38" viewBox="0 0 37 38" fill="none" xmlns="http://www.w3.org/2000/svg">
<g clip-path="url(#clip0_6314_1635)">
<path d="M17.8834 25.4613C14.6629 25.4613 12.6063 26.5027 12.6063 27.2196C12.6063 27.9364 14.6629 28.9786 17.8834 28.9786C21.1032 28.9786 23.1598 27.9364 23.1598 27.2196C23.1598 26.5027 21.1032 25.4613 17.8834 25.4613ZM17.8834 30.151C14.7569 30.151 11.4338 29.1228 11.4338 27.2196C11.4338 25.3164 14.7569 24.2881 17.8834 24.2881C21.0091 24.2881 24.3322 25.3164 24.3322 27.2196C24.3322 29.1228 21.0091 30.151 17.8834 30.151Z" fill="#C3002F"/>
<path d="M17.8834 33.669C14.7569 33.669 11.4338 32.643 11.4338 30.7375C11.4338 30.4145 11.6975 30.1509 12.0204 30.1509C12.3434 30.1509 12.6063 30.4145 12.6063 30.7375C12.6063 31.4544 14.6629 32.4965 17.8834 32.4965C21.1032 32.4965 23.1598 31.4544 23.1598 30.7375C23.1598 30.4145 23.4226 30.1509 23.7456 30.1509C24.0686 30.1509 24.3322 30.4145 24.3322 30.7375C24.3322 32.643 21.0091 33.669 17.8834 33.669Z" fill="#C3002F"/>
<path d="M17.8834 37.1863C14.7569 37.1863 11.4338 36.1603 11.4338 34.2548V27.2194C11.4338 26.8964 11.6975 26.6335 12.0204 26.6335C12.3434 26.6335 12.6063 26.8964 12.6063 27.2194V34.2548C12.6063 34.9716 14.6629 36.0138 17.8834 36.0138C21.1032 36.0138 23.1598 34.9716 23.1598 34.2548V27.2194C23.1598 26.8964 23.4226 26.6335 23.7456 26.6335C24.0686 26.6335 24.3322 26.8964 24.3322 27.2194V34.2548C24.3322 36.1603 21.0091 37.1863 17.8834 37.1863Z" fill="#C3002F"/>
<path d="M6.744 20.1842C3.52345 20.1842 1.46687 21.2263 1.46687 21.9432C1.46687 22.6601 3.52345 23.7022 6.744 23.7022C9.96377 23.7022 12.0204 22.6601 12.0204 21.9432C12.0204 21.2263 9.96377 20.1842 6.744 20.1842ZM6.744 24.8747C3.6175 24.8747 0.294434 23.8464 0.294434 21.9432C0.294434 20.04 3.6175 19.0117 6.744 19.0117C9.86973 19.0117 13.1928 20.04 13.1928 21.9432C13.1928 23.8464 9.86973 24.8747 6.744 24.8747Z" fill="#C3002F"/>
<path d="M6.744 28.3918C3.6175 28.3918 0.294434 27.3635 0.294434 25.4611C0.294434 25.1381 0.558059 24.8745 0.881038 24.8745C1.20402 24.8745 1.46687 25.1381 1.46687 25.4611C1.46687 26.1772 3.52345 27.2194 6.744 27.2194C7.73066 27.2194 8.6996 27.1169 9.54212 26.9195C9.85816 26.8486 10.1719 27.0452 10.2451 27.3597C10.3184 27.6757 10.1241 27.9918 9.80806 28.065C8.87998 28.2777 7.82008 28.3918 6.744 28.3918Z" fill="#C3002F"/>
<path d="M6.744 31.9099C3.6175 31.9099 0.294434 30.8816 0.294434 28.9784C0.294434 28.6555 0.558059 28.3918 0.881038 28.3918C1.20402 28.3918 1.46687 28.6555 1.46687 28.9784C1.46687 29.6953 3.52345 30.7375 6.744 30.7375C7.73066 30.7375 8.6996 30.6342 9.54212 30.4376C9.85816 30.366 10.1719 30.5633 10.2451 30.877C10.3184 31.1931 10.1241 31.5068 9.80806 31.58C8.87998 31.7951 7.82008 31.9099 6.744 31.9099Z" fill="#C3002F"/>
<path d="M12.6061 24.2879C12.2831 24.2879 12.0203 24.0251 12.0203 23.7021V21.943C12.0203 21.6201 12.2831 21.3564 12.6061 21.3564C12.9291 21.3564 13.1927 21.6201 13.1927 21.943V23.7021C13.1927 24.0251 12.9291 24.2879 12.6061 24.2879Z" fill="#C3002F"/>
<path d="M6.744 35.4272C3.6175 35.4272 0.294434 34.4013 0.294434 32.4965V21.943C0.294434 21.6201 0.558059 21.3564 0.881038 21.3564C1.20402 21.3564 1.46687 21.6201 1.46687 21.943V32.4965C1.46687 33.2126 3.52345 34.2548 6.744 34.2548C7.73066 34.2548 8.6996 34.1523 9.54212 33.9549C9.85816 33.884 10.1719 34.0783 10.2451 34.3943C10.3184 34.7104 10.1241 35.0249 9.80806 35.0981C8.87998 35.3132 7.82008 35.4272 6.744 35.4272Z" fill="#C3002F"/>
<path d="M14.9518 22.5297C14.6289 22.5297 14.3652 22.2661 14.3652 21.9431V2.59596C14.3652 1.62471 15.153 0.836914 16.1243 0.836914H28.436C28.759 0.836914 29.0226 1.10054 29.0226 1.42352C29.0226 1.7465 28.759 2.00935 28.436 2.00935H16.1243C15.8013 2.00935 15.5377 2.27298 15.5377 2.59596V21.9431C15.5377 22.2661 15.2748 22.5297 14.9518 22.5297Z" fill="#C3002F"/>
<path d="M34.8847 32.4966H26.6769C26.3539 32.4966 26.0911 32.2329 26.0911 31.91C26.0911 31.587 26.3539 31.3234 26.6769 31.3234H34.8847C35.2077 31.3234 35.4713 31.0605 35.4713 30.7375V11.9762C35.4713 11.6532 35.735 11.3904 36.0579 11.3904C36.3801 11.3904 36.6438 11.6532 36.6438 11.9762V30.7375C36.6438 31.708 35.856 32.4966 34.8847 32.4966Z" fill="#C3002F"/>
<path d="M29.0226 2.83886V7.8724C29.0226 8.19538 29.2854 8.45901 29.6084 8.45901H34.6419L29.0226 2.83886ZM36.058 9.63144H29.6084C28.6372 9.63144 27.8494 8.84365 27.8494 7.8724V1.42361C27.8494 1.18542 27.992 0.972672 28.2117 0.883256C28.4313 0.791526 28.6834 0.841631 28.8507 1.0089L36.4719 8.6309C36.6392 8.7974 36.6901 9.04946 36.5983 9.26915C36.5089 9.48961 36.2962 9.63144 36.058 9.63144Z" fill="#C3002F"/>
<path d="M31.9533 17.2525C31.6311 17.2525 31.3674 16.9896 31.3674 16.6667V13.7352H28.436C28.113 13.7352 27.8494 13.4716 27.8494 13.1486C27.8494 12.8256 28.113 12.5627 28.436 12.5627H31.9533C32.2763 12.5627 32.5399 12.8256 32.5399 13.1486V16.6667C32.5399 16.9896 32.2763 17.2525 31.9533 17.2525Z" fill="#C3002F"/>
<path d="M19.0556 19.5982C18.9046 19.5982 18.7558 19.5404 18.6409 19.4263C18.412 19.1974 18.412 18.8266 18.6409 18.5969L22.3302 14.9077C22.7857 14.4498 23.5327 14.4498 23.9882 14.9077L26.6769 17.5963L31.5393 12.7347C31.7682 12.5058 32.139 12.5058 32.3679 12.7347C32.5969 12.9636 32.5969 13.3344 32.3679 13.5633L27.5063 18.4258C27.0507 18.8836 26.3038 18.8836 25.8482 18.4258L23.1596 15.7371L19.4696 19.4263C19.3555 19.5404 19.2067 19.5982 19.0556 19.5982Z" fill="#C3002F"/>
<path d="M31.9533 23.1156H21.9872C21.6643 23.1156 21.4006 22.8527 21.4006 22.5297C21.4006 22.2067 21.6643 21.9431 21.9872 21.9431H31.9533C32.2763 21.9431 32.5399 22.2067 32.5399 22.5297C32.5399 22.8527 32.2763 23.1156 31.9533 23.1156Z" fill="#C3002F"/>
</g>
<defs>
<clipPath id="clip0_6314_1635">
<rect width="37" height="37" fill="white" transform="translate(0 0.483887)"/>
</clipPath>
</defs>
</svg>
