<svg width="37" height="38" viewBox="0 0 37 38" fill="none" xmlns="http://www.w3.org/2000/svg">
<path d="M35.7904 29.112H28.0305C27.9511 29.112 27.8755 29.0966 27.8023 29.0665C27.7291 29.0357 27.6643 28.9925 27.6088 28.937C27.5525 28.8807 27.5094 28.816 27.4793 28.7435C27.4485 28.6703 27.4338 28.594 27.4338 28.5146C27.4338 28.4352 27.4485 28.3597 27.4793 28.2864C27.5094 28.2132 27.5525 28.1484 27.6088 28.0929C27.6643 28.0367 27.7291 27.9935 27.8023 27.9634C27.8755 27.9326 27.9511 27.918 28.0305 27.918H35.7904C35.8698 27.918 35.9462 27.9326 36.0194 27.9634C36.0926 27.9935 36.1566 28.0367 36.2129 28.0929C36.2691 28.1484 36.3115 28.2132 36.3424 28.2864C36.3724 28.3597 36.3878 28.4352 36.3878 28.5146C36.3878 28.594 36.3724 28.6703 36.3424 28.7435C36.3115 28.816 36.2691 28.8807 36.2129 28.937C36.1566 28.9925 36.0926 29.0357 36.0194 29.0665C35.9462 29.0966 35.8698 29.112 35.7904 29.112Z" fill="#4F5858"/>
<path d="M8.92863 29.112H1.16865C1.08925 29.112 1.01371 29.0966 0.94048 29.0665C0.867251 29.0357 0.802501 28.9925 0.747001 28.937C0.69073 28.8807 0.647563 28.816 0.617501 28.7435C0.586667 28.6703 0.572021 28.594 0.572021 28.5146C0.572021 28.4352 0.586667 28.3597 0.617501 28.2864C0.647563 28.2132 0.69073 28.1484 0.747001 28.0929C0.802501 28.0367 0.867251 27.9935 0.94048 27.9634C1.01371 27.9326 1.08925 27.918 1.16865 27.918H8.92863C9.00802 27.918 9.08433 27.9326 9.15756 27.9634C9.23079 27.9935 9.29477 28.0367 9.35104 28.0929C9.40731 28.1484 9.44971 28.2132 9.48054 28.2864C9.51061 28.3597 9.52602 28.4352 9.52602 28.5146C9.52602 28.594 9.51061 28.6703 9.48054 28.7435C9.44971 28.816 9.40731 28.8807 9.35104 28.937C9.29477 28.9925 9.23079 29.0357 9.15756 29.0665C9.08433 29.0966 9.00802 29.112 8.92863 29.112Z" fill="#4F5858"/>
<path d="M15.4953 20.158C15.4159 20.158 15.3396 20.1425 15.2664 20.1125C15.1939 20.0816 15.1292 20.0385 15.0729 19.983C15.0174 19.9267 14.9743 19.862 14.9434 19.7895C14.9134 19.7163 14.8979 19.64 14.8979 19.5606V5.83124C14.8979 5.75185 14.9134 5.67554 14.9434 5.60308C14.9743 5.52985 15.0174 5.4651 15.0729 5.40883C15.1292 5.35333 15.1939 5.31016 15.2664 5.2801C15.3396 5.24926 15.4159 5.23462 15.4953 5.23462H21.4647C21.5433 5.23462 21.6196 5.24926 21.6928 5.2801C21.7661 5.31016 21.8308 5.35333 21.8863 5.40883C21.9426 5.4651 21.9858 5.52985 22.0158 5.60308C22.0459 5.67554 22.0613 5.75185 22.0613 5.83124C22.0613 5.91064 22.0459 5.98618 22.0158 6.05941C21.9858 6.13264 21.9426 6.19739 21.8863 6.25366C21.8308 6.30916 21.7661 6.35233 21.6928 6.38239C21.6196 6.41322 21.5433 6.42787 21.4647 6.42787H16.092V19.5606C16.092 19.64 16.0766 19.7163 16.0465 19.7895C16.0164 19.862 15.9733 19.9267 15.917 19.983C15.8615 20.0385 15.7967 20.0816 15.7235 20.1125C15.6503 20.1425 15.574 20.158 15.4953 20.158Z" fill="#4F5858"/>
<path d="M27.4339 26.1273C27.3545 26.1273 27.2782 26.1118 27.205 26.0818C27.1325 26.051 27.0678 26.0078 27.0115 25.9523C26.956 25.896 26.9128 25.8313 26.882 25.7588C26.8519 25.6856 26.8365 25.6093 26.8365 25.5299V2.24993H22.0612V18.9639C22.0612 19.0425 22.0458 19.1188 22.0157 19.1921C21.9857 19.2653 21.9425 19.3301 21.8862 19.3856C21.8307 19.4418 21.766 19.485 21.6927 19.5151C21.6195 19.5459 21.5432 19.5605 21.4646 19.5605C21.3852 19.5605 21.3089 19.5459 21.2356 19.5151C21.1632 19.485 21.0984 19.4418 21.0422 19.3856C20.9867 19.3301 20.9435 19.2653 20.9127 19.1921C20.8826 19.1188 20.8672 19.0425 20.8672 18.9639V1.65253C20.8672 1.57314 20.8826 1.4976 20.9127 1.42437C20.9435 1.35114 20.9867 1.28639 21.0422 1.23089C21.0984 1.17462 21.1632 1.13145 21.2356 1.10139C21.3089 1.07055 21.3852 1.05591 21.4646 1.05591H27.4339C27.5125 1.05591 27.5889 1.07055 27.6621 1.10139C27.7353 1.13145 27.8001 1.17462 27.8556 1.23089C27.9118 1.28639 27.955 1.35114 27.9851 1.42437C28.0151 1.4976 28.0305 1.57314 28.0305 1.65253V25.5299C28.0305 25.6093 28.0151 25.6856 27.9851 25.7588C27.955 25.8313 27.9118 25.896 27.8556 25.9523C27.8001 26.0078 27.7353 26.051 27.6621 26.0818C27.5889 26.1118 27.5125 26.1273 27.4339 26.1273Z" fill="#4F5858"/>
<path d="M33.4034 29.112C33.324 29.112 33.2477 29.0965 33.1745 29.0665C33.102 29.0356 33.0373 28.9925 32.981 28.937C32.9255 28.8807 32.8823 28.816 32.8515 28.7435C32.8214 28.6703 32.806 28.594 32.806 28.5146V10.0099H27.4341C27.3547 10.0099 27.2784 9.99452 27.2051 9.96446C27.1327 9.9344 27.0679 9.89123 27.0116 9.83496C26.9561 9.77869 26.913 9.71471 26.8821 9.64148C26.8521 9.56825 26.8367 9.49194 26.8367 9.41254C26.8367 9.33392 26.8521 9.25761 26.8821 9.18438C26.913 9.11115 26.9561 9.0464 27.0116 8.9909C27.0679 8.93463 27.1327 8.89146 27.2051 8.8614C27.2784 8.83133 27.3547 8.81592 27.4341 8.81592H33.4034C33.482 8.81592 33.5583 8.83133 33.6316 8.8614C33.7048 8.89146 33.7695 8.93463 33.825 8.9909C33.8813 9.0464 33.9245 9.11115 33.9545 9.18438C33.9846 9.25761 34 9.33392 34 9.41254V28.5146C34 28.594 33.9846 28.6703 33.9545 28.7435C33.9245 28.816 33.8813 28.8807 33.825 28.937C33.7695 28.9925 33.7048 29.0356 33.6316 29.0665C33.5583 29.0965 33.482 29.112 33.4034 29.112Z" fill="#4F5858"/>
<path d="M15.4952 13.5912H9.52586C9.44647 13.5912 9.37015 13.5766 9.29693 13.5458C9.22447 13.5157 9.15972 13.4725 9.10345 13.4163C9.04795 13.3608 9.00478 13.296 8.97395 13.2228C8.94388 13.1495 8.92847 13.0732 8.92847 12.9946C8.92847 12.9152 8.94388 12.8389 8.97395 12.7657C9.00478 12.6932 9.04795 12.6285 9.10345 12.5722C9.15972 12.5167 9.22447 12.4735 9.29693 12.4427C9.37015 12.4126 9.44647 12.3972 9.52586 12.3972H15.4952C15.5738 12.3972 15.6501 12.4126 15.7234 12.4427C15.7966 12.4735 15.8613 12.5167 15.9168 12.5722C15.9731 12.6285 16.0163 12.6932 16.0463 12.7657C16.0764 12.8389 16.0918 12.9152 16.0918 12.9946C16.0918 13.0732 16.0764 13.1495 16.0463 13.2228C16.0163 13.296 15.9731 13.3608 15.9168 13.4163C15.8613 13.4725 15.7966 13.5157 15.7234 13.5458C15.6501 13.5766 15.5738 13.5912 15.4952 13.5912Z" fill="#4F5858"/>
<path d="M3.55662 29.1119C3.47723 29.1119 3.40092 29.0965 3.32769 29.0664C3.25523 29.0356 3.19048 28.9924 3.13421 28.9369C3.07871 28.8807 3.03554 28.8159 3.00471 28.7434C2.97465 28.6702 2.95923 28.5939 2.95923 28.5145V8.81586C2.95923 8.73647 2.97465 8.66016 3.00471 8.5877C3.03554 8.51447 3.07871 8.44972 3.13421 8.39345C3.19048 8.33795 3.25523 8.29478 3.32769 8.26472C3.40092 8.23388 3.47723 8.21924 3.55662 8.21924H9.52596C9.60458 8.21924 9.6809 8.23388 9.75412 8.26472C9.82735 8.29478 9.8921 8.33795 9.9476 8.39345C10.0039 8.44972 10.047 8.51447 10.0771 8.5877C10.1072 8.66016 10.1226 8.73647 10.1226 8.81586V25.5298C10.1226 25.6092 10.1072 25.6856 10.0771 25.7588C10.047 25.8312 10.0039 25.896 9.9476 25.9523C9.8921 26.0078 9.82735 26.0509 9.75412 26.0818C9.6809 26.1118 9.60458 26.1272 9.52596 26.1272C9.44656 26.1272 9.37025 26.1118 9.29702 26.0818C9.22456 26.0509 9.15981 26.0078 9.10354 25.9523C9.04804 25.896 9.00487 25.8312 8.97404 25.7588C8.94398 25.6856 8.92856 25.6092 8.92856 25.5298V9.41249H4.15325V28.5145C4.15325 28.5939 4.13783 28.6702 4.10777 28.7434C4.07771 28.8159 4.03454 28.8807 3.97827 28.9369C3.92277 28.9924 3.85802 29.0356 3.78479 29.0664C3.71156 29.0965 3.63525 29.1119 3.55662 29.1119Z" fill="#4F5858"/>
<path d="M14.3013 33.2898C14.1803 33.2898 14.07 33.2566 13.9698 33.1896C13.8696 33.1225 13.7964 33.0331 13.7501 32.9213C13.7039 32.8103 13.6923 32.6955 13.7162 32.5768C13.7393 32.4581 13.7941 32.3563 13.8789 32.2707L22.2362 23.9141C22.2925 23.8594 22.3573 23.8178 22.4297 23.7893C22.5022 23.76 22.5777 23.7461 22.6563 23.7461C22.7342 23.7469 22.8097 23.7623 22.8822 23.7931C22.9539 23.8232 23.0179 23.8656 23.0734 23.9211C23.1281 23.9766 23.1713 24.0406 23.2013 24.1122C23.2314 24.1847 23.2476 24.2602 23.2476 24.3381C23.2483 24.4167 23.2345 24.4923 23.2052 24.5647C23.1766 24.6372 23.135 24.7019 23.0803 24.7582L14.7229 33.1148C14.6065 33.232 14.4662 33.2898 14.3013 33.2898Z" fill="#4F5858"/>
<path d="M16.6894 27.9178C16.5714 27.9178 16.455 27.9062 16.3394 27.8831C16.2246 27.8599 16.112 27.826 16.0033 27.7813C15.8954 27.7366 15.7921 27.6811 15.6942 27.6156C15.5963 27.5501 15.5061 27.4761 15.4229 27.3928C15.3396 27.3096 15.2656 27.2194 15.2001 27.1215C15.1346 27.0236 15.0799 26.9211 15.0344 26.8124C14.9897 26.7037 14.9558 26.5912 14.9326 26.4763C14.9095 26.3607 14.8979 26.2443 14.8979 26.1271C14.8979 26.0092 14.9095 25.8928 14.9326 25.7772C14.9558 25.6623 14.9897 25.5498 15.0344 25.4418C15.0799 25.3332 15.1346 25.2299 15.2001 25.132C15.2656 25.0341 15.3396 24.9439 15.4229 24.8606C15.5061 24.7774 15.5963 24.7034 15.6942 24.6379C15.7921 24.5723 15.8954 24.5176 16.0033 24.4721C16.112 24.4274 16.2246 24.3935 16.3394 24.3704C16.455 24.3473 16.5714 24.3357 16.6894 24.3357C16.8065 24.3357 16.9229 24.3473 17.0386 24.3704C17.1534 24.3935 17.2659 24.4274 17.3746 24.4721C17.4833 24.5176 17.5858 24.5723 17.6837 24.6379C17.7816 24.7034 17.8718 24.7774 17.9551 24.8606C18.0383 24.9439 18.1123 25.0341 18.1778 25.132C18.2434 25.2299 18.2989 25.3332 18.3436 25.4418C18.3883 25.5498 18.4222 25.6623 18.4453 25.7772C18.4684 25.8928 18.48 26.0092 18.48 26.1271C18.48 26.2443 18.4684 26.3607 18.4453 26.4763C18.4222 26.5912 18.3883 26.7037 18.3436 26.8124C18.2989 26.9211 18.2434 27.0236 18.1778 27.1215C18.1123 27.2194 18.0383 27.3096 17.9551 27.3928C17.8718 27.4761 17.7816 27.5501 17.6837 27.6156C17.5858 27.6811 17.4833 27.7366 17.3746 27.7813C17.2659 27.826 17.1534 27.8599 17.0386 27.8831C16.9229 27.9062 16.8065 27.9178 16.6894 27.9178ZM16.6894 25.5297C16.61 25.5297 16.5337 25.5451 16.4604 25.5752C16.3872 25.6053 16.3232 25.6484 16.2669 25.7047C16.2107 25.761 16.1675 25.8249 16.1374 25.8982C16.1074 25.9714 16.092 26.0477 16.092 26.1271C16.092 26.2057 16.1074 26.282 16.1374 26.3553C16.1675 26.4285 16.2107 26.4933 16.2669 26.5488C16.3232 26.605 16.3872 26.6482 16.4604 26.6783C16.5337 26.7083 16.61 26.7237 16.6894 26.7237C16.768 26.7237 16.8443 26.7083 16.9175 26.6783C16.9908 26.6482 17.0555 26.605 17.111 26.5488C17.1673 26.4933 17.2104 26.4285 17.2405 26.3553C17.2706 26.282 17.286 26.2057 17.286 26.1271C17.286 26.0477 17.2706 25.9714 17.2405 25.8982C17.2104 25.8249 17.1673 25.761 17.111 25.7047C17.0555 25.6484 16.9908 25.6053 16.9175 25.5752C16.8443 25.5451 16.768 25.5297 16.6894 25.5297Z" fill="#4F5858"/>
<path d="M20.8673 32.0965C20.7501 32.0965 20.6337 32.0849 20.5181 32.0618C20.4025 32.0387 20.2907 32.0047 20.182 31.96C20.0733 31.9145 19.9701 31.8598 19.8729 31.7943C19.775 31.7288 19.6841 31.6548 19.6016 31.5715C19.5183 31.4883 19.4436 31.3981 19.3788 31.3002C19.3133 31.2023 19.2578 31.099 19.2131 30.9903C19.1684 30.8816 19.1345 30.7699 19.1113 30.655C19.0882 30.5394 19.0767 30.423 19.0767 30.305C19.0767 30.1879 19.0882 30.0715 19.1113 29.9559C19.1345 29.841 19.1684 29.7285 19.2131 29.6198C19.2578 29.5111 19.3133 29.4078 19.3788 29.3107C19.4436 29.2128 19.5183 29.1218 19.6016 29.0393C19.6841 28.9561 19.775 28.8813 19.8729 28.8166C19.9701 28.7511 20.0733 28.6956 20.182 28.6508C20.2907 28.6061 20.4025 28.5722 20.5181 28.5491C20.6337 28.526 20.7501 28.5144 20.8673 28.5144C20.9852 28.5144 21.1016 28.526 21.2173 28.5491C21.3321 28.5722 21.4439 28.6061 21.5526 28.6508C21.6613 28.6956 21.7646 28.7511 21.8625 28.8166C21.9603 28.8813 22.0505 28.9561 22.1338 29.0393C22.217 29.1218 22.291 29.2128 22.3566 29.3107C22.4221 29.4078 22.4768 29.5111 22.5223 29.6198C22.567 29.7285 22.6009 29.841 22.624 29.9559C22.6472 30.0715 22.6587 30.1879 22.6587 30.305C22.6587 30.423 22.6472 30.5394 22.624 30.655C22.6009 30.7699 22.567 30.8816 22.5223 30.9903C22.4768 31.099 22.4221 31.2023 22.3566 31.3002C22.291 31.3981 22.217 31.4883 22.1338 31.5715C22.0505 31.6548 21.9603 31.7288 21.8625 31.7943C21.7646 31.8598 21.6613 31.9145 21.5526 31.96C21.4439 32.0047 21.3321 32.0387 21.2173 32.0618C21.1016 32.0849 20.9852 32.0965 20.8673 32.0965ZM20.8673 29.7084C20.7887 29.7084 20.7124 29.7238 20.6391 29.7539C20.5659 29.784 20.5012 29.8271 20.4457 29.8834C20.3894 29.9389 20.3462 30.0037 20.3162 30.0769C20.2861 30.1501 20.2707 30.2264 20.2707 30.305C20.2707 30.3844 20.2861 30.4608 20.3162 30.534C20.3462 30.6072 20.3894 30.6712 20.4457 30.7275C20.5012 30.7837 20.5659 30.8269 20.6391 30.857C20.7124 30.887 20.7887 30.9024 20.8673 30.9024C20.9467 30.9024 21.023 30.887 21.0962 30.857C21.1695 30.8269 21.2335 30.7837 21.2897 30.7275C21.346 30.6712 21.3884 30.6072 21.4192 30.534C21.4493 30.4608 21.4647 30.3844 21.4647 30.305C21.4647 30.2264 21.4493 30.1501 21.4192 30.0769C21.3884 30.0037 21.346 29.9389 21.2897 29.8834C21.2335 29.8271 21.1695 29.784 21.0962 29.7539C21.023 29.7238 20.9467 29.7084 20.8673 29.7084Z" fill="#4F5858"/>
<path d="M18.4799 36.8719C18.2063 36.8719 17.9326 36.8581 17.6605 36.8319C17.3884 36.8049 17.1179 36.7648 16.8496 36.7108C16.5806 36.6576 16.3154 36.5914 16.0541 36.512C15.792 36.4326 15.5346 36.3401 15.2817 36.2352C15.0289 36.1312 14.7815 36.014 14.5402 35.8853C14.2989 35.7558 14.0646 35.6155 13.8364 35.4636C13.609 35.311 13.3894 35.1484 13.1781 34.9749C12.9662 34.8015 12.7642 34.6173 12.5707 34.4238C12.3765 34.2303 12.193 34.0276 12.0196 33.8164C11.8461 33.6051 11.6835 33.3855 11.5309 33.1573C11.379 32.9299 11.2387 32.6956 11.1092 32.4543C10.9805 32.213 10.8633 31.9656 10.7585 31.7128C10.6544 31.4599 10.5619 31.2025 10.4825 30.9404C10.4031 30.6791 10.3369 30.4139 10.2829 30.1449C10.2297 29.8766 10.1896 29.6061 10.1626 29.334C10.1364 29.0611 10.1226 28.7882 10.1226 28.5146C10.1226 28.2409 10.1364 27.968 10.1626 27.6959C10.1896 27.4231 10.2297 27.1525 10.2829 26.8843C10.3369 26.616 10.4031 26.3508 10.4825 26.0888C10.5619 25.8267 10.6544 25.5692 10.7585 25.3164C10.8633 25.0635 10.9805 24.8169 11.1092 24.5748C11.2387 24.3336 11.379 24.0992 11.5309 23.8718C11.6835 23.6444 11.8461 23.4248 12.0196 23.2128C12.193 23.0016 12.3765 22.7988 12.5707 22.6054C12.7642 22.4119 12.9662 22.2284 13.1781 22.0542C13.3894 21.8808 13.609 21.7181 13.8364 21.5663C14.0646 21.4136 14.2989 21.2734 14.5402 21.1446C14.7815 21.0151 15.0289 20.8987 15.2817 20.7939C15.5346 20.6891 15.792 20.5966 16.0541 20.5172C16.3154 20.4378 16.5806 20.3715 16.8496 20.3183C17.1179 20.2651 17.3884 20.225 17.6605 20.198C17.9326 20.1711 18.2063 20.158 18.4799 20.158C18.7536 20.158 19.0265 20.1711 19.2986 20.198C19.5714 20.225 19.842 20.2651 20.1102 20.3183C20.3785 20.3715 20.6437 20.4378 20.9057 20.5172C21.1678 20.5966 21.4253 20.6891 21.6781 20.7939C21.931 20.8987 22.1776 21.0151 22.4189 21.1446C22.6609 21.2734 22.8953 21.4136 23.1227 21.5663C23.3501 21.7181 23.5697 21.8808 23.7817 22.0542C23.9929 22.2284 24.1957 22.4119 24.3891 22.6054C24.5826 22.7988 24.7661 23.0016 24.9395 23.2128C25.1137 23.4248 25.2764 23.6444 25.4282 23.8718C25.5801 24.0992 25.7211 24.3336 25.8499 24.5748C25.9794 24.8169 26.0958 25.0635 26.2006 25.3164C26.3054 25.5692 26.3972 25.8267 26.4773 26.0888C26.5567 26.3508 26.623 26.616 26.6762 26.8843C26.7294 27.1525 26.7695 27.4231 26.7965 27.6959C26.8234 27.968 26.8365 28.2409 26.8365 28.5146C26.8365 28.7882 26.8227 29.0611 26.7957 29.3332C26.7687 29.6061 26.7286 29.8759 26.6747 30.1441C26.6215 30.4131 26.5544 30.6775 26.475 30.9396C26.3956 31.2017 26.3031 31.4584 26.1983 31.7112C26.0935 31.964 25.9763 32.2115 25.8476 32.4528C25.7181 32.694 25.5778 32.9284 25.4259 33.1558C25.2733 33.3831 25.1106 33.6028 24.9372 33.814C24.7638 34.0253 24.5803 34.228 24.3868 34.4215C24.1934 34.6149 23.9906 34.7984 23.7786 34.9718C23.5674 35.146 23.3477 35.3087 23.1204 35.4605C22.893 35.6124 22.6586 35.7535 22.4174 35.8822C22.1761 36.0117 21.9294 36.1281 21.6766 36.2329C21.4237 36.3378 21.1663 36.4303 20.905 36.5096C20.6429 36.5898 20.3777 36.6561 20.1095 36.7101C19.8412 36.7633 19.5707 36.8033 19.2986 36.8311C19.0265 36.8581 18.7536 36.8712 18.4799 36.8719ZM18.4799 21.3512C18.2448 21.3512 18.0113 21.3628 17.7777 21.3859C17.5441 21.409 17.3121 21.4437 17.0824 21.4892C16.8519 21.5347 16.6245 21.5917 16.4002 21.6603C16.1759 21.7281 15.9555 21.8068 15.7389 21.897C15.5215 21.9864 15.3103 22.0866 15.1029 22.1976C14.8963 22.3078 14.6951 22.4281 14.5001 22.5583C14.3051 22.6894 14.117 22.8289 13.9351 22.9777C13.754 23.1264 13.5805 23.2837 13.4148 23.4494C13.2491 23.6151 13.091 23.7894 12.9423 23.9705C12.7935 24.1516 12.654 24.3397 12.5237 24.5348C12.3934 24.7298 12.2732 24.931 12.1622 25.1383C12.052 25.3449 11.9517 25.5569 11.8616 25.7735C11.7721 25.9901 11.6927 26.2105 11.6249 26.4356C11.5571 26.6599 11.5 26.8873 11.4546 27.117C11.4083 27.3475 11.3744 27.5788 11.3513 27.8123C11.3281 28.0459 11.3166 28.2802 11.3166 28.5146C11.3166 28.7497 11.3281 28.9832 11.3513 29.2168C11.3744 29.4504 11.4083 29.6824 11.4546 29.9121C11.5 30.1426 11.5571 30.3692 11.6249 30.5943C11.6927 30.8186 11.7721 31.039 11.8616 31.2556C11.9517 31.473 12.052 31.6842 12.1622 31.8916C12.2732 32.0982 12.3934 32.2994 12.5237 32.4944C12.654 32.6894 12.7935 32.8775 12.9423 33.0586C13.091 33.2405 13.2491 33.414 13.4148 33.5797C13.5805 33.7454 13.754 33.9035 13.9351 34.0522C14.117 34.201 14.3051 34.3405 14.5001 34.4708C14.6951 34.6011 14.8963 34.7213 15.1029 34.8323C15.3103 34.9425 15.5215 35.0428 15.7389 35.1329C15.9555 35.2224 16.1759 35.301 16.4002 35.3696C16.6245 35.4374 16.8519 35.4945 17.0824 35.5399C17.3121 35.5862 17.5441 35.6201 17.7777 35.6432C18.0113 35.6664 18.2448 35.6779 18.4799 35.6779C18.7143 35.6779 18.9486 35.6664 19.1822 35.6432C19.415 35.6201 19.647 35.5862 19.8775 35.5399C20.1072 35.4945 20.3346 35.4374 20.5589 35.3696C20.784 35.301 21.0044 35.2224 21.221 35.1329C21.4376 35.0428 21.6496 34.9425 21.8562 34.8323C22.0635 34.7213 22.264 34.6011 22.4597 34.4708C22.6548 34.3405 22.8429 34.201 23.024 34.0522C23.2051 33.9035 23.3794 33.7454 23.5451 33.5797C23.7108 33.414 23.8681 33.2405 24.0168 33.0586C24.1656 32.8775 24.3051 32.6894 24.4354 32.4944C24.5664 32.2994 24.6867 32.0982 24.7969 31.8916C24.9079 31.6842 25.0081 31.473 25.0975 31.2556C25.1877 31.039 25.2664 30.8186 25.3342 30.5943C25.4028 30.3692 25.4598 30.1426 25.5053 29.9121C25.5508 29.6824 25.5855 29.4504 25.6086 29.2168C25.6317 28.9832 25.6433 28.7497 25.6433 28.5146C25.6425 28.2802 25.631 28.0459 25.6078 27.8131C25.5847 27.5795 25.55 27.3475 25.5038 27.1178C25.4583 26.8881 25.4012 26.6607 25.3326 26.4364C25.2648 26.2121 25.1854 25.9916 25.0952 25.775C25.0058 25.5576 24.9056 25.3464 24.7946 25.1399C24.6844 24.9325 24.5634 24.7321 24.4331 24.5371C24.3028 24.342 24.1633 24.154 24.0145 23.9728C23.8657 23.7909 23.7085 23.6175 23.5428 23.4517C23.377 23.286 23.2028 23.1288 23.0217 22.98C22.8405 22.8312 22.6525 22.6917 22.4574 22.5614C22.2624 22.4304 22.062 22.3101 21.8546 22.1999C21.6481 22.0889 21.4361 21.9887 21.2195 21.8985C21.0029 21.8091 20.7824 21.7297 20.5581 21.6619C20.3338 21.5933 20.1064 21.5362 19.8767 21.4907C19.647 21.4445 19.415 21.4098 19.1814 21.3867C18.9486 21.3635 18.7143 21.352 18.4799 21.3512Z" fill="#4F5858"/>
</svg>
