<svg width="37" height="38" viewBox="0 0 37 38" fill="none" xmlns="http://www.w3.org/2000/svg">
<g id="icon/budgeting">
<path id="Vector" fill-rule="evenodd" clip-rule="evenodd" d="M0.655313 5.27101H0.604905C0.302452 5.27101 0 5.27101 0 5.08595V3.97559C0 3.85992 0.201635 3.79053 0.40327 3.79053C12.451 3.79053 24.549 3.79053 36.5967 3.79053C36.7984 3.79053 37 3.88306 37 3.97559V5.08595C37 5.27101 36.6975 5.27101 36.3951 5.27101H0.655313Z" fill="#505958"/>
<path id="Vector_2" d="M34.6767 8.31058V17.4782V28.1088C34.6767 28.4014 34.5762 28.694 34.3249 28.889C34.1239 29.0841 33.8224 29.2304 33.5208 29.2304C28.4952 29.2304 23.4696 29.2304 18.444 29.2304C13.4184 29.2304 8.39282 29.2304 3.36722 29.2304C2.71389 29.2304 2.21133 28.7427 2.21133 28.1088V8.31058H34.6767ZM36.1844 6.84766H0.753906V28.1576C0.753906 29.5717 1.96005 30.7421 3.41748 30.7421C13.4687 30.7421 23.5199 30.7421 33.5711 30.7421C35.0285 30.7421 36.2347 29.5717 36.2347 28.1576C36.1844 18.4047 36.1844 16.5517 36.1844 6.84766Z" fill="#C32032"/>
<path id="Vector_3" fill-rule="evenodd" clip-rule="evenodd" d="M17.2881 3.7267V1.58108C17.2881 0.118156 19.6501 0.118156 19.6501 1.58108V3.7267H17.2881Z" fill="#505958"/>
<path id="Vector_4" fill-rule="evenodd" clip-rule="evenodd" d="M17.2881 30.6445V36.3499C17.2881 37.8129 19.6501 37.8129 19.6501 36.3499V30.6445H17.2881Z" fill="#505958"/>
<path id="Vector_5" fill-rule="evenodd" clip-rule="evenodd" d="M23.5703 30.6445L28.5959 35.5209C29.6513 36.5938 27.9928 38.203 26.9375 37.1302L20.2534 30.6445H23.5703Z" fill="#505958"/>
<path id="Vector_6" fill-rule="evenodd" clip-rule="evenodd" d="M13.3182 30.6445L8.29259 35.5209C7.23721 36.5938 8.89566 38.203 9.95104 37.1302L16.6351 30.6445H13.3182Z" fill="#505958"/>
<path id="Vector_7" fill-rule="evenodd" clip-rule="evenodd" d="M21.1072 17.9171L28.4446 10.7975C29.5503 9.72471 31.2087 11.3827 30.1031 12.4067C26.4344 15.9665 24.7257 17.6245 21.1072 21.1355L16.4334 16.6004C13.3678 19.5751 11.6089 21.2818 8.49298 24.3052C7.4376 25.3292 5.7289 23.72 6.83453 22.696C10.453 19.1849 12.7647 16.9418 16.4334 13.382C16.4334 13.382 20.7052 17.5757 21.1072 17.9171Z" fill="#C32032"/>
</g>
</svg>
