<svg width="37" height="38" viewBox="0 0 37 38" fill="none" xmlns="http://www.w3.org/2000/svg">
<path d="M14.7407 6.55885L14.7414 6.55345L14.743 6.55885L26.9275 13.1271H2.55533L14.7407 6.55885ZM0.928867 13.9488H28.5548C28.7421 13.9488 28.9063 13.8209 28.9517 13.6382C28.998 13.4555 28.914 13.2651 28.7482 13.1757L14.9365 5.73097C14.8756 5.69783 14.8085 5.68164 14.7414 5.68164C14.6744 5.68164 14.6073 5.69783 14.5464 5.73097L0.734617 13.1757C0.568888 13.2651 0.485638 13.4555 0.531117 13.6382C0.577367 13.8209 0.740784 13.9488 0.928867 13.9488Z" fill="#4F5858"/>
<path d="M27.2228 15.5219C27.2228 15.2953 27.0385 15.1118 26.8127 15.1118H2.66786C2.44123 15.1118 2.25854 15.2953 2.25854 15.5219C2.25854 15.7493 2.44123 15.9328 2.66786 15.9328H26.8127C27.0385 15.9328 27.2228 15.7493 27.2228 15.5219Z" fill="#4F5858"/>
<path d="M1.8877 29.9914C1.8877 30.2188 2.07115 30.4023 2.29701 30.4023H17.4077C17.6335 30.4023 17.817 30.2188 17.817 29.9914C17.817 29.7648 17.6335 29.5806 17.4077 29.5806H2.29701C2.07115 29.5806 1.8877 29.7648 1.8877 29.9914Z" fill="#4F5858"/>
<path d="M20.8626 31.4878H0.928882C0.702257 31.4878 0.518799 31.672 0.518799 31.8986C0.518799 32.126 0.702257 32.3095 0.928882 32.3095H20.8626C21.0893 32.3095 21.2727 32.126 21.2727 31.8986C21.2727 31.672 21.0893 31.4878 20.8626 31.4878Z" fill="#4F5858"/>
<path d="M4.38368 27.6736C4.15705 27.6736 3.97437 27.8578 3.97437 28.0844C3.97437 28.3118 4.15705 28.4953 4.38368 28.4953H6.52197C6.74859 28.4953 6.93205 28.3118 6.93205 28.0844C6.93205 27.8578 6.74859 27.6736 6.52197 27.6736H5.86291V17.9179H6.52197C6.74859 17.9179 6.93205 17.7344 6.93205 17.507C6.93205 17.2804 6.74859 17.0962 6.52197 17.0962H4.38368C4.15705 17.0962 3.97437 17.2804 3.97437 17.507C3.97437 17.7344 4.15705 17.9179 4.38368 17.9179H5.04351V27.6736H4.38368Z" fill="#4F5858"/>
<path d="M9.02723 27.6736C8.80138 27.6736 8.61792 27.8578 8.61792 28.0844C8.61792 28.3118 8.80138 28.4953 9.02723 28.4953H11.1663C11.3921 28.4953 11.5756 28.3118 11.5756 28.0844C11.5756 27.8578 11.3921 27.6736 11.1663 27.6736H10.5065V17.9179H11.1663C11.3921 17.9179 11.5756 17.7344 11.5756 17.507C11.5756 17.2804 11.3921 17.0962 11.1663 17.0962H9.02723C8.80138 17.0962 8.61792 17.2804 8.61792 17.507C8.61792 17.7344 8.80138 17.9179 9.02723 17.9179H9.68707V27.6736H9.02723Z" fill="#4F5858"/>
<path d="M20.8627 17.507C20.8627 17.2804 20.68 17.0962 20.4534 17.0962H18.3151C18.0885 17.0962 17.905 17.2804 17.905 17.507C17.905 17.7344 18.0885 17.9179 18.3151 17.9179H18.9742V20.7191C18.9742 20.9457 19.1576 21.13 19.3843 21.13C19.6101 21.13 19.7936 20.9457 19.7936 20.7191V17.9179H20.4534C20.68 17.9179 20.8627 17.7344 20.8627 17.507Z" fill="#4F5858"/>
<path d="M13.6708 27.6736C13.4449 27.6736 13.2615 27.8578 13.2615 28.0844C13.2615 28.3118 13.4449 28.4953 13.6708 28.4953H15.8099C16.0357 28.4953 16.2192 28.3118 16.2192 28.0844C16.2192 27.8578 16.0357 27.6736 15.8099 27.6736H15.15V17.9179H15.8099C16.0357 17.9179 16.2192 17.7344 16.2192 17.507C16.2192 17.2804 16.0357 17.0962 15.8099 17.0962H13.6708C13.4449 17.0962 13.2615 17.2804 13.2615 17.507C13.2615 17.7344 13.4449 17.9179 13.6708 17.9179H14.3306V27.6736H13.6708Z" fill="#4F5858"/>
<path d="M33.3948 29.2445C32.6533 29.2445 31.9742 28.8506 31.605 28.2108H35.1847C34.8155 28.8506 34.1364 29.2445 33.3948 29.2445ZM33.3948 24.1215L35.1184 27.4092H31.672L33.3948 24.1215ZM36.0503 27.4092H36.0211L34.0099 23.5719C34.1973 23.5226 34.3799 23.4517 34.5549 23.3615C34.6497 23.3129 34.7199 23.2297 34.7523 23.1279C34.7854 23.0262 34.7762 22.9175 34.7276 22.8219C34.6582 22.6878 34.5226 22.6045 34.3715 22.6045C34.3075 22.6045 34.2466 22.6192 34.1896 22.6493C33.9367 22.7788 33.6739 22.8497 33.4072 22.8597L33.3917 22.8589L33.3732 22.8605C33.3717 22.8605 33.3694 22.8605 33.3678 22.8605L33.3655 22.8612C33.3578 22.8612 33.3501 22.8612 33.3424 22.8612C32.8576 22.8612 32.3688 22.6593 31.8902 22.2608C31.4469 21.8923 31.0692 21.6048 30.7355 21.382C30.6699 21.3381 30.5936 21.3149 30.5142 21.3149C30.3801 21.3149 30.256 21.3812 30.1812 21.493C30.1219 21.5824 30.1011 21.6888 30.1219 21.7944C30.1427 21.8992 30.2036 21.9894 30.2922 22.0488C30.6029 22.2569 30.9582 22.5275 31.3799 22.8782C31.8231 23.2466 32.2894 23.4871 32.7674 23.5951L30.7686 27.4092H30.7401C30.5196 27.4092 30.34 27.5888 30.34 27.81C30.34 28.0243 30.5088 28.2 30.7208 28.21C31.1455 29.31 32.2162 30.0462 33.3948 30.0462C34.5734 30.0462 35.6441 29.31 36.0688 28.21C36.2808 28.2 36.4504 28.0243 36.4504 27.81C36.4504 27.5888 36.2708 27.4092 36.0503 27.4092Z" fill="#4F5858"/>
<path d="M22.4388 29.2445C21.6973 29.2445 21.0182 28.8506 20.649 28.2108H24.2287C23.8595 28.8506 23.1804 29.2445 22.4388 29.2445ZM22.4388 24.1215L24.1624 27.4092H20.7153L22.4388 24.1215ZM25.4937 27.81C25.4937 27.5888 25.3148 27.4092 25.0944 27.4092H25.0651L23.0663 23.5951C23.5442 23.4871 24.0106 23.2466 24.4538 22.8782C24.8754 22.5275 25.2316 22.2569 25.5414 22.0488C25.6301 21.9894 25.691 21.8992 25.7118 21.7944C25.7326 21.6896 25.7118 21.5824 25.6524 21.493C25.5777 21.3812 25.4536 21.3149 25.3194 21.3149C25.2408 21.3149 25.1637 21.3381 25.0982 21.382C24.7644 21.6048 24.3867 21.8923 23.9435 22.2608C23.4648 22.6593 22.9761 22.8612 22.4913 22.8612C22.4836 22.8612 22.4766 22.8612 22.4689 22.8612L22.4412 22.8589L22.4265 22.8597C22.1598 22.8497 21.8962 22.7788 21.6449 22.6493C21.5871 22.62 21.5262 22.6045 21.4622 22.6045C21.3111 22.6045 21.1747 22.6878 21.1061 22.8219C21.0575 22.9175 21.0483 23.0262 21.0814 23.1279C21.1138 23.2297 21.1839 23.3129 21.2795 23.3623C21.4537 23.4517 21.6364 23.5226 21.8237 23.5719L19.8126 27.4092H19.7833C19.5636 27.4092 19.384 27.5888 19.384 27.81C19.384 28.0243 19.5528 28.2 19.7648 28.21C20.1896 29.31 21.2602 30.0462 22.4388 30.0462C23.6182 30.0462 24.6881 29.31 25.1129 28.21C25.3248 28.2 25.4937 28.0243 25.4937 27.81Z" fill="#4F5858"/>
<path d="M26.7864 31.5076L27.9165 30.8316L29.0473 31.5076H26.7864ZM27.0162 20.9218C27.0162 20.4238 27.4208 20.0191 27.9165 20.0191C28.4137 20.0191 28.8176 20.4238 28.8176 20.9218C28.8176 21.4197 28.4137 21.8244 27.9165 21.8244C27.4208 21.8244 27.0162 21.4197 27.0162 20.9218ZM30.6884 31.5562L30.6861 31.5547L28.3165 30.1371V22.5783C29.072 22.3948 29.6169 21.7042 29.6169 20.9218C29.6169 20.1394 29.072 19.4487 28.3165 19.2653V17.7675C28.3165 17.5471 28.1369 17.3667 27.9165 17.3667C27.6968 17.3667 27.5172 17.5471 27.5172 17.7675V19.2653C26.7618 19.4487 26.2168 20.1394 26.2168 20.9218C26.2168 21.7042 26.7618 22.3948 27.5172 22.5783V30.1371L25.1315 31.5647C24.9781 31.6564 24.9033 31.8422 24.9511 32.0148C24.9989 32.1883 25.1577 32.3093 25.3365 32.3093H30.498C30.7185 32.3093 30.8973 32.1297 30.8973 31.9085C30.8973 31.7612 30.8179 31.6263 30.6884 31.5562Z" fill="#4F5858"/>
<path d="M24.0276 19.1921C24.2542 19.1921 24.4369 19.0086 24.4369 18.782V17.9179H25.0967C25.3233 17.9179 25.5068 17.7344 25.5068 17.507C25.5068 17.2804 25.3233 17.0962 25.0967 17.0962H22.9584C22.7326 17.0962 22.5483 17.2804 22.5483 17.507C22.5483 17.7344 22.7326 17.9179 22.9584 17.9179H23.6183V18.782C23.6183 19.0086 23.8017 19.1921 24.0276 19.1921Z" fill="#4F5858"/>
</svg>
