<svg width="37" height="26" viewBox="0 0 37 26" fill="none" xmlns="http://www.w3.org/2000/svg">
<g id="icon/purchasing">
<g id="Group">
<path id="Vector" fill-rule="evenodd" clip-rule="evenodd" d="M37 22.9395H0V23.0031C0 24.4026 1.07767 25.484 2.33495 25.484H34.6052C35.9223 25.484 37 24.3389 37 22.9395Z" fill="#1E252B"/>
<path id="Vector_2" fill-rule="evenodd" clip-rule="evenodd" d="M32.27 0.483887H4.60982C3.47228 0.483887 2.57422 1.43809 2.57422 2.64674V20.7129C2.57422 21.9215 3.47228 22.8757 4.60982 22.8757H32.27C33.4076 22.8757 34.3056 21.9215 34.3056 20.7129V2.64674C34.3655 1.5017 33.4076 0.483887 32.27 0.483887ZM32.8088 20.3312C32.8088 20.8401 32.3898 21.2854 31.9108 21.2854H18.4399H4.96904C4.72956 21.2854 4.54995 21.1582 4.37034 21.031C4.19072 20.8401 4.07098 20.5857 4.07098 20.3312V3.09203C4.07098 2.9648 4.07098 2.83758 4.13085 2.71035C4.25059 2.32867 4.60982 2.13783 4.96904 2.13783H12.1535H18.4399H31.9108C32.3898 2.13783 32.8088 2.58312 32.8088 3.09203V20.3312Z" fill="#505958"/>
<path id="Vector_3" d="M23.4093 9.32617H19.877V17.2142H23.4093V9.32617Z" fill="#1E252B"/>
<path id="Vector_4" d="M16.3449 11.8071H12.8125V17.2143H16.3449V11.8071Z" fill="#CAC8C8"/>
<path id="Vector_5" d="M19.8771 5.12769H16.3447V17.2142H19.8771V5.12769Z" fill="#C32032"/>
<path id="Vector_6" fill-rule="evenodd" clip-rule="evenodd" d="M16.3447 17.2143V11.8071L19.8771 15.5603V17.2143H16.3447Z" fill="#C32032"/>
<path id="Vector_7" d="M24.7265 17.2141H11.4951V18.8044H24.7265V17.2141Z" fill="#C32032"/>
<path id="Vector_8" d="M24.7267 17.2141H18.0811V18.8044H24.7267V17.2141Z" fill="#C32032"/>
</g>
</g>
</svg>
