<svg width="34" height="33" viewBox="0 0 34 33" fill="none" xmlns="http://www.w3.org/2000/svg">
<g id="icon/planning">
<g id="Group">
<path id="Vector" d="M31.0588 32.4839H13.5056C12.001 32.4839 10.7974 31.1866 10.7974 29.565V3.40281C10.7974 1.78118 12.001 0.483887 13.5056 0.483887H25.843L33.6667 8.91632V29.565C33.6667 31.1866 32.463 32.4839 31.0588 32.4839ZM13.5056 2.64605C13.1044 2.64605 12.8034 2.97037 12.8034 3.40281V29.6731C12.8034 30.1055 13.1044 30.4298 13.5056 30.4298H31.0588C31.46 30.4298 31.7609 30.1055 31.7609 29.6731V9.78118L25.0405 2.64605H13.5056Z" fill="#505958"/>
</g>
<path id="Vector_2" fill-rule="evenodd" clip-rule="evenodd" d="M32.6635 9.34873H27.0465C26.1437 9.34873 25.3413 8.59197 25.3413 7.51089V1.56494L32.6635 9.34873Z" fill="#505958"/>
<path id="Vector_3" fill-rule="evenodd" clip-rule="evenodd" d="M11.4993 28.1595C17.4173 28.1595 22.3322 22.9703 22.3322 16.4838C22.2318 10.1054 17.4173 4.80811 11.4993 4.80811C5.48109 4.80811 0.666504 10.1054 0.666504 16.4838C0.666504 22.8622 5.48109 28.1595 11.4993 28.1595Z" fill="white"/>
<path id="Vector_4" fill-rule="evenodd" clip-rule="evenodd" d="M4.37773 8.80814C6.28351 6.75408 8.89141 5.45679 11.8002 5.45679C14.709 5.45679 17.3169 6.75408 19.2227 8.80814C21.1285 10.8622 21.4294 13.5649 21.4294 16.7C21.4294 19.8352 20.7273 22.1054 18.8215 24.1595C16.9157 26.2135 14.4081 27.0784 11.4993 27.0784C8.5905 27.0784 6.38381 26.7541 4.47804 24.7C2.57226 22.646 1.36861 19.8352 1.36861 16.7C1.26831 13.673 2.47196 10.8622 4.37773 8.80814ZM17.8185 10.3217C17.016 9.45679 16.1133 8.80814 15.0099 8.2676C14.0069 7.83517 12.9036 7.61895 11.6999 7.61895C10.4963 7.61895 9.39293 7.83517 8.38989 8.2676C7.38685 8.70003 6.38381 9.45679 5.58138 10.3217C4.77895 11.1865 4.17712 12.1595 3.6756 13.3487C3.27439 14.4298 3.07378 15.6189 3.07378 16.9162C3.07378 18.2135 3.27439 19.4027 3.6756 20.4838C4.07682 21.5649 4.77895 22.646 5.58138 23.5108C6.38381 24.3757 7.28655 25.0244 8.38989 25.5649C9.39293 25.9973 10.4963 26.2135 11.6999 26.2135C12.9036 26.2135 14.0069 25.9973 15.0099 25.5649C16.013 25.1325 17.016 24.3757 17.8185 23.5108C18.6209 22.646 19.2227 21.673 19.7242 20.4838C20.1254 19.4027 20.3261 18.2135 20.3261 16.9162C20.3261 15.6189 20.1254 14.4298 19.7242 13.3487C19.2227 12.1595 18.6209 11.0784 17.8185 10.3217Z" fill="white"/>
<path id="Vector_5" fill-rule="evenodd" clip-rule="evenodd" d="M3.77593 8.26756C5.782 6.1054 8.49021 4.80811 11.4993 4.80811C14.5084 4.80811 17.2167 6.1054 19.1224 8.26756C21.0282 10.3216 22.3322 13.2405 22.3322 16.4838C22.3322 19.727 21.1285 22.6459 19.1224 24.7C17.2167 26.754 14.5084 28.1595 11.4993 28.1595C8.49021 28.1595 5.782 26.8622 3.87623 24.7C1.87015 22.6459 0.666504 19.727 0.666504 16.4838C0.666504 13.2405 1.87015 10.3216 3.77593 8.26756ZM17.7182 9.78108C16.9157 8.91621 15.9127 8.15946 14.8094 7.72702C13.8063 7.18648 12.703 6.97027 11.4993 6.97027C10.2957 6.97027 9.09203 7.18648 8.089 7.72702C6.98565 8.15946 6.08292 8.91621 5.18018 9.78108C4.37775 10.6459 3.67562 11.727 3.27441 12.9162C2.87319 13.9973 2.57228 15.2946 2.57228 16.5919C2.57228 17.8892 2.77289 19.0784 3.27441 20.2676C3.67562 21.4568 4.37775 22.4297 5.18018 23.4027C5.98261 24.2676 6.98565 25.0243 8.089 25.4568C9.09203 25.8892 10.2957 26.2135 11.4993 26.2135C12.703 26.2135 13.8063 25.9973 14.9097 25.4568C16.013 25.0243 16.9157 24.2676 17.8185 23.4027C18.6209 22.5378 19.323 21.4568 19.7243 20.2676C20.1255 19.1865 20.4264 17.8892 20.4264 16.5919C20.4264 15.2946 20.2258 14.1054 19.7243 12.9162C19.1224 11.727 18.5206 10.6459 17.7182 9.78108Z" fill="#C32032"/>
<path id="Vector_6" d="M7.13816 12.1783L6.3584 13.3047L11.9056 17.7654L12.6853 16.639L7.13816 12.1783Z" fill="#C32032"/>
<path id="Vector_7" fill-rule="evenodd" clip-rule="evenodd" d="M10.8975 14.6461L11.4993 14.4299L14.1072 23.8353L13.5054 24.0516L13.0038 22.4299L10.8975 14.6461Z" fill="#C32032"/>
</g>
</svg>
