<svg width="38" height="27" viewBox="0 0 38 27" fill="none" xmlns="http://www.w3.org/2000/svg">
<g id="Frame" clip-path="url(#clip0_2342_8781)">
<path id="Vector" fill-rule="evenodd" clip-rule="evenodd" d="M30.3277 17.1572C30.6335 17.7321 31.4285 17.9238 31.979 17.6044L33.569 16.6461C34.1806 16.2629 34.4864 15.6879 34.4864 14.9852L34.0583 4.57243C33.9971 3.9975 33.7525 3.48644 33.2633 3.16703C32.774 2.84762 32.2236 2.78374 31.6732 3.03926L27.1475 5.01961C26.9641 5.08349 26.8418 5.21125 26.7194 5.27514C26.3525 5.59455 26.2302 6.04172 26.3525 6.42501C28.493 9.23582 29.7773 13.2604 30.3277 17.1572Z" fill="white"/>
<path id="Vector_2" fill-rule="evenodd" clip-rule="evenodd" d="M32.7738 16.4545C32.8349 17.4766 33.9358 17.9237 34.7308 17.5404L36.5655 16.5822C37.2382 16.1989 37.6663 15.5601 37.6663 14.7296V2.52816C37.6663 1.82546 37.3605 1.25052 36.8713 0.867229C36.3209 0.483937 35.7093 0.356172 35.0977 0.611701L29.9605 2.52816C29.7771 2.59204 29.5936 2.71981 29.4101 2.78369C28.6151 3.35863 28.8597 4.25298 29.2878 4.95568C31.4283 8.27755 32.4068 13.0048 32.7738 16.4545Z" fill="#505958"/>
<path id="Vector_3" fill-rule="evenodd" clip-rule="evenodd" d="M8.00536 18.1152C7.69957 18.6902 6.90453 18.8818 6.35412 18.5624L4.76404 17.6042C4.15246 17.2209 3.84668 16.6459 3.84668 15.9432L4.33594 5.65822C4.33594 5.08328 4.64172 4.57223 5.13098 4.25282C5.62023 3.93341 6.17065 3.86952 6.72106 4.06117L11.2467 6.04151C11.4302 6.1054 11.5525 6.23316 11.6748 6.29704C12.0417 6.61645 12.164 7.06363 12.0417 7.44692C9.84007 10.2577 8.61693 14.1545 8.00536 18.1152Z" fill="white"/>
<path id="Vector_4" fill-rule="evenodd" clip-rule="evenodd" d="M5.55907 17.4127C5.49791 18.4348 4.39708 18.882 3.60204 18.4987L1.76733 17.5405C1.0946 17.1572 0.666504 16.4545 0.666504 15.624V3.48644C0.666504 2.78374 0.972289 2.2088 1.46155 1.82551C2.01196 1.44222 2.62353 1.37833 3.2351 1.56998L8.37229 3.48644C8.61692 3.67809 8.80039 3.74197 8.9227 3.86974C9.71774 4.44467 9.47311 5.33902 9.04502 6.04173C6.90452 9.29971 5.92601 13.9631 5.55907 17.4127Z" fill="#C3002F"/>
<path id="Vector_5" fill-rule="evenodd" clip-rule="evenodd" d="M12.1028 18.1153C12.4697 18.1792 12.7755 18.3708 13.0201 18.6264C13.0813 18.6902 13.2036 18.818 13.2648 19.0097C13.8152 18.5625 14.5491 18.6902 15.1606 19.0735C15.3441 19.2013 15.5276 19.393 15.6499 19.5846C15.7722 19.7762 15.8333 20.0318 15.8945 20.2873V20.3512C16.2003 20.1595 16.5672 20.0957 16.9342 20.1595C17.1788 20.1595 17.3623 20.2234 17.5457 20.3512C17.7292 20.4151 17.9127 20.6067 18.0962 20.7984C18.3408 21.1816 18.4631 21.6288 18.1573 22.2676C18.2185 22.2676 18.2185 22.2676 18.2796 22.2676C18.5243 22.2676 18.7689 22.3315 18.9524 22.4593C19.0747 22.5232 19.197 22.6509 19.2581 22.7787C19.4416 23.0981 19.5028 23.4814 19.4416 23.9286C19.4416 24.0563 19.4416 24.248 19.3805 24.3758C20.4813 25.0146 21.4598 25.5256 22.2548 25.845C22.4383 25.9089 22.6218 25.9089 22.7441 25.7812C22.8664 25.7173 22.9276 25.5895 22.9887 25.4617C23.0499 25.334 23.111 25.2062 23.111 25.0785C23.111 24.9507 23.2333 24.9507 23.2333 24.9507L19.7474 22.5232C19.4416 22.3315 19.8086 21.7566 20.1143 21.9482L23.6003 24.3758L24.0895 24.759C24.5788 25.0146 24.8846 25.0146 25.0681 24.8868C25.1904 24.8229 25.2515 24.759 25.3127 24.6313C25.3738 24.5035 25.435 24.3757 25.435 24.248C25.4962 23.9925 25.4962 23.8008 25.435 23.7369L20.0532 19.4568C19.7474 19.2013 20.1755 18.6902 20.4201 18.9458L25.7408 23.2259C26.0466 23.2898 26.23 23.2898 26.4135 23.162C26.597 23.0981 26.7193 22.9703 26.7805 22.7787C26.8416 22.5871 26.9028 22.3954 26.9028 22.2038C26.9028 21.8843 26.7805 21.5649 26.5358 21.3094L21.8879 17.0932C21.6433 16.8377 22.0102 16.3266 22.316 16.5821L27.0251 20.7984C27.1474 20.8622 27.4532 20.6067 27.5143 20.5428C27.6367 20.4151 27.6978 20.2234 27.6978 20.0318C27.6978 19.5846 26.9028 18.4986 26.597 17.9875C26.4747 17.7959 26.3524 17.6043 26.1689 17.3487C26.0466 17.1571 25.8631 16.9654 25.7408 16.7099C24.8234 15.4961 23.7838 14.2185 22.9887 13.3242C22.2548 12.6215 21.5209 12.1743 20.9094 12.302C20.1755 12.4298 19.2581 12.6215 18.4019 12.877C17.6069 13.0686 16.078 13.388 15.2218 13.2603C14.9771 13.1964 14.7937 13.1325 14.6102 13.0047C14.3656 12.8131 14.2433 12.5576 14.3044 12.2382C14.3044 12.0465 14.4267 11.9187 14.5491 11.7271C14.6714 11.5355 14.9771 11.2799 15.3441 11.0244C16.4449 10.2578 17.8515 9.61899 19.0135 9.04406C19.4416 8.85241 19.8086 8.66076 20.2367 8.533C18.5243 8.27747 16.873 7.95806 15.0995 7.95806C13.8763 7.95806 12.7143 8.14971 11.43 8.40524C11.6135 8.14971 11.797 7.89418 11.9805 7.63865C13.0201 7.447 14.0598 7.31924 15.0995 7.31924C17.1176 7.25536 19.4416 7.76641 21.4598 8.08583C22.316 7.76641 23.2333 7.51089 24.1507 7.25536C24.8234 7.06371 25.6796 6.87207 26.4747 6.68042C26.597 6.87207 26.7805 7.06371 26.9028 7.25536C26.1077 7.38312 25.0681 7.70253 24.3342 7.89418C23.4168 8.14971 22.4995 8.40524 21.6433 8.72465C20.8482 8.98017 20.0532 9.29958 19.3193 9.68288C18.1573 10.1939 16.7507 10.8328 15.711 11.5993C15.4052 11.791 15.1606 11.9826 15.0995 12.1743C14.8548 12.4937 15.0995 12.6215 15.4052 12.6215C16.2003 12.7492 17.6681 12.4298 18.3408 12.2382C19.197 11.9826 20.1143 11.791 20.9094 11.6632C23.0499 11.4077 25.8631 15.6239 27.2086 17.6043C27.3309 17.7959 27.4532 17.9875 27.5755 18.1153L30.3276 16.4544C30.3887 16.7099 30.3887 16.9016 30.4499 17.1571L27.9424 18.6902C28.3094 19.2652 28.4929 19.7762 28.4929 20.0318C28.4929 20.4151 28.3705 20.7345 28.1259 20.99C28.0036 21.1178 27.8201 21.2455 27.6978 21.3733C27.6367 21.3733 27.5755 21.4372 27.5143 21.4372C27.6367 21.6927 27.6978 21.9482 27.6978 22.2038C27.6978 22.5232 27.6367 22.8426 27.5143 23.162C27.392 23.4175 27.1474 23.673 26.8416 23.8008C26.6581 23.8647 26.4747 23.9286 26.23 23.9286C26.23 24.0563 26.23 24.248 26.23 24.4396C26.1689 24.6313 26.1077 24.8868 25.9854 25.0785C25.8631 25.2701 25.6796 25.4617 25.4962 25.5895C25.1292 25.7812 24.5788 25.7812 23.9061 25.4617H23.8449C23.7838 25.5895 23.7226 25.7812 23.6614 25.9728C23.5391 26.1644 23.4168 26.3561 23.2945 26.4839C22.9887 26.7394 22.6829 26.8033 22.1937 26.6755C21.3986 26.3561 20.4201 25.845 19.3805 25.2701C19.3193 25.3979 19.3193 25.4617 19.2581 25.5256C19.197 25.7173 19.0747 25.9089 19.0135 26.0367C18.8912 26.1644 18.7689 26.3561 18.6466 26.42C18.3408 26.6755 17.9738 26.8033 17.6069 26.7394C17.1788 26.6755 16.8119 26.42 16.5061 26.1644C16.3838 26.0367 16.3226 25.9089 16.2614 25.7812C15.8333 25.9089 15.3441 25.7812 14.8548 25.4617C14.6102 25.334 14.4267 25.1423 14.2433 24.9507C14.0598 24.759 13.8763 24.5674 13.8152 24.3758C13.8152 24.3119 13.754 24.3119 13.754 24.248C13.6929 24.248 13.6317 24.3119 13.5094 24.248C13.1424 24.248 12.5309 23.9286 12.0416 23.6092C11.797 23.4175 11.5524 23.2259 11.43 23.0342C11.2466 22.7787 11.1243 22.5232 11.1243 22.3315C11.1243 22.2676 11.1243 22.2038 11.1243 22.1399C11.0631 22.1399 11.0019 22.076 10.9408 22.076C10.8185 22.0121 10.6962 21.9482 10.635 21.8843C10.5127 21.8205 10.4515 21.7566 10.3292 21.6288C9.96227 21.2455 9.83996 20.7345 9.90112 20.2873C9.96227 20.0318 10.0234 19.7762 10.1457 19.5207C10.1457 19.4568 10.2069 19.4568 10.2069 19.393C9.41186 18.8819 8.73913 18.4347 8.06641 17.9875C8.12756 17.732 8.12756 17.5404 8.18872 17.2848C8.9226 17.732 9.71765 18.2431 10.5738 18.818C11.0019 18.2431 11.5524 17.9875 12.1028 18.1153ZM18.1573 22.8426C18.035 22.8426 17.9738 22.8426 17.9127 22.8426C17.8515 22.9703 17.7904 23.0981 17.6681 23.2259C17.24 23.9286 16.5061 25.1423 16.7507 25.3979C16.9953 25.5895 17.24 25.7812 17.5457 25.845C17.7292 25.845 17.9127 25.845 18.0962 25.6534C18.1573 25.5895 18.2185 25.5256 18.3408 25.3979C18.4019 25.2701 18.4631 25.1423 18.5243 25.0146C18.6466 24.6952 18.7689 24.248 18.7689 23.8647C18.7689 23.5453 18.7689 23.2898 18.6466 23.0981L18.5854 23.0342C18.5243 22.9065 18.3408 22.8426 18.1573 22.8426ZM16.3838 24.0563C16.8119 23.2898 17.3011 22.4593 17.4846 21.9482C17.6681 21.5649 17.6069 21.2455 17.4846 21.0539C17.4234 20.9261 17.3011 20.8622 17.1788 20.7984C17.0565 20.7345 16.9342 20.6706 16.7507 20.6706C16.3838 20.6067 16.078 20.7345 15.8945 20.9261C15.6499 21.2455 14.121 23.673 14.1821 23.7369C14.2433 23.8647 14.3656 23.9925 14.4879 24.1202C14.6102 24.248 14.7937 24.3757 14.9771 24.5035C15.2829 24.6952 15.6499 24.8229 15.8333 24.8229C16.078 24.6952 16.2003 24.3758 16.3838 24.0563ZM12.0416 21.5649C11.9193 21.8205 11.7358 22.0121 11.6747 22.2038C11.6747 22.2676 11.7358 22.3315 11.797 22.4593C11.9193 22.5871 12.1028 22.7787 12.2862 22.9065C12.7143 23.162 13.2036 23.4175 13.4482 23.4175L13.5094 23.3536C13.5094 23.3536 13.5094 23.3536 13.5094 23.2898C13.5094 23.2898 13.5094 23.2898 13.5094 23.2259C13.5705 23.0981 13.6929 22.9703 13.754 22.9065C14.3044 22.2038 15.2218 20.8622 15.1606 20.3512C15.0383 19.5846 14.121 19.0735 13.5705 19.5207C13.1424 19.8401 12.5309 20.7984 12.0416 21.5649ZM12.1639 18.7541C12.1028 18.7541 12.0416 18.7541 11.9805 18.6902C11.6135 18.6264 11.2466 18.818 10.9408 19.1374C10.8185 19.2652 10.6962 19.4568 10.5738 19.5846C10.5127 19.7762 10.4515 19.9679 10.3904 20.0957C10.3292 20.4151 10.3904 20.6706 10.635 20.9261C10.6962 20.99 10.7573 21.0539 10.8185 21.1178C10.8796 21.1816 10.9408 21.2455 11.0631 21.2455C11.1243 21.2455 11.1854 21.3094 11.2466 21.3094L12.592 19.2013C12.592 19.1374 12.5309 19.0735 12.4697 19.0735C12.4086 19.0097 12.4086 19.0097 12.3474 18.9458C12.2862 18.8819 12.2251 18.8819 12.2251 18.8819C12.2862 18.818 12.2251 18.818 12.1639 18.7541Z" fill="#4F5858"/>
</g>
<defs>
<clipPath id="clip0_2342_8781">
<rect width="37" height="26" fill="white" transform="translate(0.666504 0.483887)"/>
</clipPath>
</defs>
</svg>
