<svg width="38" height="38" viewBox="0 0 38 38" fill="none" xmlns="http://www.w3.org/2000/svg">
<path d="M26.8208 1.74953C30.8538 1.62543 33.2226 1.88058 35.2322 3.79147C35.8396 4.37114 36.2404 4.92922 36.4339 5.23293C34.1962 4.46749 32.9944 4.83981 32.3385 5.23293C29.7007 6.81931 30.6195 11.9307 30.4121 23.9888C30.288 31.3634 29.8803 33.0878 28.4851 34.3296C27.318 35.371 26.2204 35.3848 18.1343 35.2885C10.4892 35.206 6.62269 35.1228 4.41271 33.3637C2.69992 31.9978 1.78879 30.2804 1.28467 29.0316C3.77061 29.9011 5.10338 29.5211 5.85571 29.0316C7.82365 27.7559 7.72036 24.4791 7.54075 13.642C7.4444 7.55776 7.42359 4.4883 8.99069 3.06689C10.2757 1.90833 11.5321 2.1496 16.4493 2.10797C19.0108 2.08716 21.2069 1.9908 23.1131 1.90833M23.1131 1.90833C24.4945 1.84589 25.7162 1.78422 26.8208 1.74953Z" fill="#DFDFDF"/>
<path d="M26.2274 34.9918C23.8517 34.971 21.483 35.1298 19.115 35.2331C16.7948 35.3364 14.4738 35.516 12.1466 35.3502C10.0338 35.1984 7.91398 34.7367 6.02852 33.743C4.34348 32.8535 3.05233 31.6325 2.21675 29.9837C2.82417 30.3699 3.58421 30.5356 4.33654 30.5772C6.01465 30.6736 7.73438 30.4323 9.41248 30.3491C12.8442 30.1772 16.2837 30.0454 19.7224 29.9629C19.8257 29.9629 19.9089 29.922 19.9644 29.8596C20.5441 32.0873 22.2361 33.9088 24.3767 34.7505C24.7081 34.8816 24.853 34.3435 24.5216 34.2125C22.4843 33.4124 20.9519 31.7844 20.171 29.7494C20.1502 29.6939 20.1024 29.6661 20.0538 29.673C20.0885 29.4734 19.9775 29.2452 19.7154 29.2522C16.5596 29.3354 13.3969 29.4734 10.2481 29.68C8.69406 29.784 7.147 29.9143 5.60071 30.0253C4.29569 30.1217 2.9421 30.0523 1.89223 29.2591C1.89223 29.2591 1.89223 29.2591 1.89223 29.2522C1.8506 29.1419 1.74731 29.0733 1.64325 29.0456C1.59546 28.997 1.5469 28.9562 1.49833 28.9076C1.40892 28.8182 1.264 28.9354 1.32567 29.0387C1.3326 29.0525 1.33954 29.0595 1.34648 29.0733C1.27094 29.1211 1.22238 29.2113 1.23625 29.3424C1.4436 30.9149 2.62375 32.2669 3.82548 33.2328C5.1174 34.2742 6.62283 34.9987 8.20381 35.4674C11.8568 36.5443 15.7379 36.2197 19.4734 35.8883C21.7389 35.6886 24.0105 35.5229 26.2621 35.1984C26.3862 35.1914 26.3515 34.9918 26.2274 34.9918ZM25.1706 26.6653C24.9224 26.7277 24.6596 26.7624 24.3905 26.7624C24.0938 26.7624 23.8039 26.7208 23.5341 26.6452C23.5203 27.376 23.3754 28.1283 23.2859 28.8382C23.2304 29.2799 23.1749 29.7216 23.1133 30.1633C23.2651 29.8388 23.3892 29.4526 23.6791 29.2452C23.8309 29.135 24.0244 29.2321 24.0938 29.3832C24.342 29.7763 24.7081 30.1078 25.0118 30.4809C24.991 29.791 25.0396 29.0942 25.0743 28.4112C25.109 27.8593 25.0812 27.231 25.1706 26.6653ZM25.9168 26.3831C26.0131 27.1008 25.8066 27.9418 25.7372 28.6386C25.6539 29.4457 25.5853 30.2666 25.378 31.0598C25.3919 31.0875 25.3988 31.1145 25.4127 31.1423C25.509 31.412 25.1568 31.6734 24.9224 31.5153C24.584 31.2802 24.342 30.8663 24.1416 30.5079C24.0521 30.3491 23.9489 30.1772 23.8725 29.9976C23.8448 30.0392 23.8178 30.0731 23.7831 30.1217C23.6791 30.2735 23.5896 30.4393 23.4856 30.5911C23.3129 30.8601 23.1403 31.1014 22.892 31.2941C22.7749 31.5631 22.2985 31.4876 22.3255 31.17C22.3949 30.3629 22.5606 29.5628 22.6847 28.7627C22.8088 28.0104 22.8643 27.2172 23.0647 26.4795C21.9324 25.9754 21.1384 24.8376 21.1384 23.5133C21.1384 21.7196 22.5953 20.2643 24.3905 20.2643C26.1858 20.2643 27.6427 21.7196 27.6427 23.5133C27.6504 24.7551 26.9459 25.8374 25.9168 26.3831ZM13.8047 26.0031C13.141 25.9484 12.4711 25.9137 11.8021 25.9068C11.2147 25.8998 10.531 25.7757 9.99908 26.0517C9.81254 26.148 9.79944 26.4725 9.99908 26.5689C10.5171 26.8102 11.1176 26.693 11.6841 26.693C12.354 26.693 13.0169 26.7069 13.6868 26.7208C15.0195 26.7624 16.3454 26.8518 17.6712 26.8934C17.8439 26.9004 17.8785 26.6313 17.7128 26.5897C16.4355 26.2791 15.1228 26.1133 13.8047 26.0031ZM18.2169 21.4506C16.7739 21.382 15.3371 21.3473 13.8941 21.3126C13.2104 21.2987 12.5336 21.2779 11.8499 21.2571C11.1592 21.237 10.3999 21.106 9.73006 21.2571C9.41942 21.3265 9.4541 21.7682 9.73006 21.8506C10.3514 22.0372 11.0906 21.9616 11.7327 21.9747C12.4511 21.9886 13.1757 21.9886 13.8941 21.9817C15.3371 21.9616 16.7801 21.8853 18.2169 21.7265C18.3896 21.7127 18.3965 21.4575 18.2169 21.4506ZM26.8904 17.6982C24.1215 17.3875 21.3658 17.3189 18.59 17.2017C15.8343 17.0838 13.0377 16.9874 10.2889 17.1462C9.737 17.1809 9.73006 17.988 10.2889 18.0019C13.0516 18.0913 15.8343 17.988 18.59 17.9464C21.3589 17.9047 24.1215 17.981 26.8904 17.8916C27.0214 17.8916 27.0145 17.712 26.8904 17.6982ZM14.2942 12.0626C13.5765 12.0626 12.8581 12.0626 12.1397 12.0688C11.4498 12.0765 10.8555 12.0487 10.2342 12.3385C10.0338 12.428 10.124 12.697 10.2889 12.7587C10.8971 13.0007 11.4976 12.9313 12.1397 12.9244C12.8581 12.9105 13.5765 12.9036 14.2942 12.9036C15.6894 12.9036 17.0846 12.9313 18.479 12.9799C21.2625 13.0693 24.0383 13.235 26.821 13.3044C26.9805 13.3106 27.0214 13.0485 26.8626 13.0207C24.0938 12.5035 21.2903 12.2692 18.479 12.152C17.0846 12.0965 15.6894 12.0688 14.2942 12.0626ZM9.88192 8.06119C11.2494 8.23386 12.7201 8.07507 14.0945 8.06813C15.4959 8.06119 16.905 8.05426 18.3064 8.04732C19.6669 8.04038 21.0343 8.01263 22.3949 8.00647C23.8101 7.99953 25.2678 7.93709 26.683 8.04038C26.8418 8.05426 26.8765 7.78524 26.7177 7.76442C25.3502 7.57172 24.0175 7.40599 22.63 7.35742C21.1862 7.30963 19.7432 7.26801 18.2994 7.26107C16.8911 7.24719 15.489 7.25413 14.0876 7.25413C12.6716 7.26107 11.1731 7.13697 9.77169 7.33044C9.32229 7.38517 9.5019 8.01263 9.88192 8.06119ZM35.6324 5.32242C35.1637 5.02642 34.88 4.61942 34.4869 4.24634C33.9412 3.72911 33.2019 3.74299 32.5876 4.14305C31.483 4.86069 31.1307 6.57811 30.9511 7.78524C30.5711 10.3652 30.9989 13.0076 31.1585 15.5868C31.3165 18.2848 31.3373 20.9888 31.2063 23.686C31.0821 26.2313 30.9164 28.866 30.3845 31.3635C29.9976 33.1911 28.8036 35.24 26.6553 35.0057C26.5311 34.9918 26.5242 34.8122 26.6553 34.8122C28.1884 34.7922 29.2522 33.4532 29.6661 32.1019C30.1016 30.6875 30.1703 29.135 30.3013 27.6658C30.5433 24.9 30.6466 22.1127 30.5988 19.34C30.5503 16.6151 30.2327 13.911 30.0808 11.1931C29.9567 8.96461 30.0045 6.13026 31.4483 4.28103C32.0349 3.52947 32.9052 2.99836 33.8857 3.14328C34.9286 3.29436 35.3017 4.21242 35.9846 4.86763C36.2128 5.10197 35.9022 5.49509 35.6324 5.32242Z" fill="#C3002F"/>
<path d="M25.7162 23.8925C25.6129 23.9819 25.5991 24.1337 25.606 24.2648C25.6129 24.3889 25.606 24.5068 25.6191 24.6302C25.6399 24.8444 25.7995 25.0171 26.0269 24.9824C26.262 24.9477 26.3583 24.7481 26.3244 24.5338C26.2967 24.3758 26.2412 24.1892 26.1579 24.0513C26.0754 23.8855 25.882 23.7545 25.7162 23.8925ZM23.8038 21.7819C23.6997 21.7542 23.6789 21.6023 23.776 21.5538C24.6594 21.092 25.6476 21.7056 25.9644 22.5751C26.013 22.6992 25.9583 22.8649 25.8681 22.9544C25.737 23.0785 25.5574 23.1132 25.3986 23.016C25.219 22.9127 25.1705 22.6715 25.0602 22.5127C24.7704 22.0918 24.2732 21.8991 23.8038 21.7819Z" fill="#DFDFDF"/>
</svg>
