<svg width="37" height="38" viewBox="0 0 37 38" fill="none" xmlns="http://www.w3.org/2000/svg">
<path d="M6.56296 18.3803H8.95254C9.03116 18.3803 9.10902 18.3726 9.1861 18.3572C9.26241 18.3425 9.33718 18.3194 9.40964 18.2893C9.4821 18.2593 9.55148 18.223 9.61623 18.1791C9.68175 18.1359 9.74187 18.0858 9.79737 18.0311C9.85287 17.9756 9.90298 17.9147 9.94614 17.85C9.99008 17.7844 10.0263 17.7158 10.0564 17.6434C10.0864 17.5709 10.1096 17.4961 10.125 17.4198C10.1396 17.3428 10.1473 17.2649 10.1473 17.1863V14.799C10.1473 14.7204 10.1396 14.6425 10.125 14.5662C10.1096 14.4891 10.0864 14.4144 10.0564 14.3419C10.0263 14.2694 9.99008 14.2008 9.94614 14.1353C9.90298 14.0706 9.85287 14.0104 9.79737 13.9549C9.74187 13.8994 9.68175 13.8493 9.61623 13.8062C9.55148 13.7622 9.4821 13.726 9.40964 13.6959C9.33718 13.6659 9.26241 13.6435 9.1861 13.6281C9.10902 13.6127 9.03116 13.605 8.95254 13.605H6.56296C6.48433 13.605 6.40648 13.6127 6.32939 13.6281C6.25231 13.6435 6.17831 13.6659 6.10585 13.6959C6.03262 13.726 5.96402 13.7622 5.8985 13.8062C5.83375 13.8493 5.77362 13.8994 5.71812 13.9549C5.66262 14.0104 5.61252 14.0706 5.56935 14.1353C5.52541 14.2008 5.48841 14.2694 5.45912 14.3419C5.42906 14.4144 5.40593 14.4891 5.39052 14.5662C5.3751 14.6425 5.36816 14.7204 5.36816 14.799V17.1863C5.36816 17.2649 5.3751 17.3428 5.39052 17.4198C5.40593 17.4961 5.42906 17.5709 5.45912 17.6434C5.48841 17.7158 5.52541 17.7844 5.56935 17.85C5.61252 17.9147 5.66262 17.9756 5.71812 18.0311C5.77362 18.0858 5.83375 18.1359 5.8985 18.1791C5.96402 18.223 6.03262 18.2593 6.10508 18.2893C6.17831 18.3194 6.25231 18.3425 6.32939 18.3572C6.40648 18.3726 6.48433 18.3803 6.56296 18.3803ZM6.56296 14.799H8.95254V17.1863H6.56296V14.799Z" fill="#C3002F"/>
<path d="M13.7324 18.3803H16.1227C16.2006 18.3803 16.2785 18.3726 16.3555 18.3572C16.4326 18.3425 16.5074 18.3194 16.5798 18.2893C16.6523 18.2593 16.7209 18.223 16.7864 18.1791C16.8512 18.1359 16.9121 18.0858 16.9676 18.0311C17.0231 17.9756 17.0724 17.9147 17.1156 17.85C17.1595 17.7844 17.1965 17.7158 17.2266 17.6434C17.2566 17.5709 17.279 17.4961 17.2944 17.4198C17.3098 17.3428 17.3175 17.2649 17.3175 17.1863V14.799C17.3175 14.7204 17.3098 14.6425 17.2944 14.5662C17.279 14.4891 17.2566 14.4144 17.2266 14.3419C17.1965 14.2694 17.1595 14.2008 17.1156 14.1353C17.0724 14.0706 17.0231 14.0104 16.9676 13.9549C16.9121 13.8994 16.8512 13.8493 16.7864 13.8062C16.7209 13.7622 16.6523 13.726 16.5798 13.6959C16.5074 13.6659 16.4326 13.6435 16.3555 13.6281C16.2785 13.6127 16.2006 13.605 16.1227 13.605H13.7324C13.6538 13.605 13.5759 13.6127 13.4996 13.6281C13.4225 13.6435 13.3477 13.6659 13.2753 13.6959C13.2028 13.726 13.1335 13.7622 13.0687 13.8062C13.0032 13.8493 12.9431 13.8994 12.8876 13.9549C12.8321 14.0104 12.7827 14.0706 12.7388 14.1353C12.6956 14.2008 12.6586 14.2694 12.6286 14.3419C12.5985 14.4144 12.5754 14.4891 12.5607 14.5662C12.5453 14.6425 12.5376 14.7204 12.5376 14.799V17.1863C12.5376 17.2649 12.5453 17.3428 12.5607 17.4198C12.5754 17.4961 12.5985 17.5709 12.6286 17.6434C12.6586 17.7158 12.6956 17.7844 12.7388 17.85C12.7827 17.9147 12.8321 17.9756 12.8876 18.0311C12.9431 18.0858 13.0032 18.1359 13.0687 18.1791C13.1335 18.223 13.2028 18.2593 13.2753 18.2893C13.3477 18.3194 13.4225 18.3425 13.4996 18.3572C13.5759 18.3726 13.6538 18.3803 13.7324 18.3803ZM13.7324 14.799H16.1227V17.1863H13.7324V14.799Z" fill="#C3002F"/>
<path d="M20.9018 18.3803H23.2922C23.3708 18.3803 23.4479 18.3726 23.525 18.3572C23.6021 18.3425 23.6768 18.3194 23.7493 18.2893C23.8217 18.2593 23.8903 18.223 23.9559 18.1791C24.0214 18.1359 24.0815 18.0858 24.137 18.0311C24.1925 17.9756 24.2418 17.9147 24.2858 17.85C24.3289 17.7844 24.3659 17.7158 24.396 17.6434C24.4261 17.5709 24.4484 17.4961 24.4638 17.4198C24.4793 17.3428 24.487 17.2649 24.487 17.1863V14.799C24.487 14.7204 24.4793 14.6425 24.4638 14.5662C24.4484 14.4891 24.4261 14.4144 24.396 14.3419C24.3659 14.2694 24.3289 14.2008 24.2858 14.1353C24.2418 14.0706 24.1925 14.0104 24.137 13.9549C24.0815 13.8994 24.0214 13.8493 23.9559 13.8062C23.8903 13.7622 23.8217 13.726 23.7493 13.6959C23.6768 13.6659 23.6021 13.6435 23.525 13.6281C23.4479 13.6127 23.3708 13.605 23.2922 13.605H20.9018C20.824 13.605 20.7461 13.6127 20.669 13.6281C20.5919 13.6435 20.5172 13.6659 20.4447 13.6959C20.3723 13.726 20.3037 13.7622 20.2381 13.8062C20.1734 13.8493 20.1125 13.8994 20.057 13.9549C20.0015 14.0104 19.9522 14.0706 19.9082 14.1353C19.8651 14.2008 19.8281 14.2694 19.798 14.3419C19.7679 14.4144 19.7456 14.4891 19.7302 14.5662C19.7147 14.6425 19.707 14.7204 19.707 14.799V17.1863C19.707 17.2649 19.7147 17.3428 19.7302 17.4198C19.7456 17.4961 19.7679 17.5709 19.798 17.6434C19.8281 17.7158 19.8651 17.7844 19.9082 17.85C19.9522 17.9147 20.0015 17.9756 20.057 18.0311C20.1125 18.0858 20.1734 18.1359 20.2381 18.1791C20.3037 18.223 20.3723 18.2593 20.4447 18.2893C20.5172 18.3194 20.5919 18.3425 20.669 18.3572C20.7461 18.3726 20.824 18.3803 20.9018 18.3803ZM20.9018 14.799H23.2922V17.1863H20.9018V14.799Z" fill="#C3002F"/>
<path d="M28.0722 18.3803H30.4618C30.5404 18.3803 30.6183 18.3726 30.6954 18.3572C30.7717 18.3425 30.8465 18.3194 30.9189 18.2893C30.9914 18.2593 31.0608 18.223 31.1255 18.1791C31.191 18.1359 31.2511 18.0858 31.3066 18.0311C31.3621 17.9756 31.4123 17.9147 31.4554 17.85C31.4994 17.7844 31.5356 17.7158 31.5656 17.6434C31.5957 17.5709 31.6188 17.4961 31.6343 17.4198C31.6489 17.3428 31.6566 17.2649 31.6566 17.1863V14.799C31.6566 14.7204 31.6489 14.6425 31.6343 14.5662C31.6188 14.4891 31.5957 14.4144 31.5656 14.3419C31.5356 14.2694 31.4994 14.2008 31.4554 14.1353C31.4123 14.0706 31.3621 14.0104 31.3066 13.9549C31.2511 13.8994 31.191 13.8493 31.1255 13.8062C31.0608 13.7622 30.9914 13.726 30.9189 13.6959C30.8465 13.6659 30.7717 13.6435 30.6954 13.6281C30.6183 13.6127 30.5404 13.605 30.4618 13.605H28.0722C27.9936 13.605 27.9158 13.6127 27.8387 13.6281C27.7616 13.6435 27.6876 13.6659 27.6144 13.6959C27.5419 13.726 27.4733 13.7622 27.4078 13.8062C27.343 13.8493 27.2829 13.8994 27.2274 13.9549C27.1719 14.0104 27.1218 14.0706 27.0786 14.1353C27.0347 14.2008 26.9977 14.2694 26.9684 14.3419C26.9383 14.4144 26.9152 14.4891 26.8998 14.5662C26.8844 14.6425 26.8774 14.7204 26.8774 14.799V17.1863C26.8774 17.2649 26.8844 17.3428 26.8998 17.4198C26.9152 17.4961 26.9383 17.5709 26.9684 17.6434C26.9977 17.7158 27.0347 17.7844 27.0786 17.85C27.1218 17.9147 27.1719 17.9756 27.2274 18.0311C27.2829 18.0858 27.343 18.1359 27.4078 18.1791C27.4733 18.223 27.5419 18.2593 27.6144 18.2893C27.6876 18.3194 27.7616 18.3425 27.8387 18.3572C27.9158 18.3726 27.9936 18.3803 28.0722 18.3803ZM28.0722 14.799H30.4618V17.1863H28.0722V14.799Z" fill="#C3002F"/>
<path d="M5.36816 23.753C5.36816 23.8308 5.3751 23.9087 5.39052 23.9858C5.40593 24.0628 5.42906 24.1376 5.45912 24.2093C5.48841 24.2818 5.52541 24.3511 5.56935 24.4159C5.61252 24.4814 5.66262 24.5415 5.71812 24.597C5.77362 24.6525 5.83375 24.7019 5.8985 24.7458C5.96402 24.789 6.03262 24.826 6.10508 24.856C6.17831 24.8861 6.25231 24.9084 6.32939 24.9239C6.40648 24.9393 6.48433 24.947 6.56296 24.947H8.95254C9.03116 24.947 9.10902 24.9393 9.1861 24.9239C9.26241 24.9084 9.33718 24.8861 9.40964 24.856C9.4821 24.826 9.55148 24.789 9.61623 24.7458C9.68175 24.7019 9.74187 24.6525 9.79737 24.597C9.85287 24.5415 9.90298 24.4814 9.94614 24.4159C9.99008 24.3511 10.0263 24.2818 10.0564 24.2093C10.0864 24.1376 10.1096 24.0628 10.125 23.9858C10.1396 23.9087 10.1473 23.8308 10.1473 23.753V21.3649C10.1473 21.2863 10.1396 21.2092 10.125 21.1321C10.1096 21.055 10.0864 20.9803 10.0564 20.9078C10.0263 20.8361 9.99008 20.7668 9.94614 20.702C9.90298 20.6365 9.85287 20.5764 9.79737 20.5209C9.74187 20.4654 9.68175 20.416 9.61623 20.3721C9.55148 20.3289 9.4821 20.2919 9.40964 20.2619C9.33718 20.2318 9.26241 20.2094 9.1861 20.194C9.10902 20.1786 9.03116 20.1709 8.95254 20.1709H6.56296C6.48433 20.1709 6.40648 20.1786 6.32939 20.194C6.25231 20.2094 6.17831 20.2318 6.10585 20.2619C6.03262 20.2919 5.96402 20.3289 5.8985 20.3721C5.83375 20.416 5.77362 20.4654 5.71812 20.5209C5.66262 20.5764 5.61252 20.6365 5.56935 20.702C5.52541 20.7668 5.48841 20.8361 5.45912 20.9078C5.42906 20.9803 5.40593 21.055 5.39052 21.1321C5.3751 21.2092 5.36816 21.2863 5.36816 21.3649V23.753ZM6.56296 21.3649H8.95254V23.753H6.56296V21.3649Z" fill="#C3002F"/>
<path d="M12.5376 23.4546C12.5376 23.5325 12.5453 23.6103 12.5607 23.6874C12.5754 23.7637 12.5985 23.8385 12.6286 23.911C12.6586 23.9834 12.6956 24.052 12.7388 24.1175C12.7827 24.1831 12.8321 24.2432 12.8876 24.2987C12.9431 24.3542 13.0032 24.4035 13.0687 24.4467C13.1335 24.4906 13.2028 24.5276 13.2753 24.5569C13.3477 24.587 13.4225 24.6101 13.4996 24.6255C13.5759 24.6402 13.6538 24.6479 13.7324 24.6479H16.1227C16.2006 24.6479 16.2785 24.6402 16.3555 24.6255C16.4326 24.6101 16.5074 24.587 16.5798 24.5569C16.6523 24.5276 16.7209 24.4906 16.7864 24.4467C16.8512 24.4035 16.9121 24.3542 16.9676 24.2987C17.0231 24.2432 17.0724 24.1831 17.1156 24.1175C17.1595 24.052 17.1965 23.9834 17.2266 23.911C17.2566 23.8385 17.279 23.7637 17.2944 23.6874C17.3098 23.6103 17.3175 23.5325 17.3175 23.4546V21.0666C17.3175 20.988 17.3098 20.9109 17.2944 20.8338C17.279 20.7567 17.2566 20.6819 17.2266 20.6095C17.1965 20.537 17.1595 20.4684 17.1156 20.4037C17.0724 20.3381 17.0231 20.278 16.9676 20.2225C16.9121 20.167 16.8512 20.1177 16.7864 20.0737C16.7209 20.0306 16.6523 19.9936 16.5798 19.9635C16.5074 19.9335 16.4326 19.9111 16.3555 19.8957C16.2785 19.8803 16.2006 19.8726 16.1227 19.8726H13.7324C13.6538 19.8726 13.5759 19.8803 13.4996 19.8957C13.4225 19.9111 13.3477 19.9335 13.2753 19.9635C13.2028 19.9936 13.1335 20.0306 13.0687 20.0737C13.0032 20.1177 12.9431 20.167 12.8876 20.2225C12.8321 20.278 12.7827 20.3381 12.7388 20.4037C12.6956 20.4684 12.6586 20.537 12.6286 20.6095C12.5985 20.6819 12.5754 20.7567 12.5607 20.8338C12.5453 20.9109 12.5376 20.988 12.5376 21.0666V23.4546ZM13.7324 21.0666H16.1227V23.4546H13.7324V21.0666Z" fill="#C3002F"/>
<path d="M19.707 23.4546C19.707 23.5325 19.7147 23.6103 19.7302 23.6874C19.7456 23.7637 19.7679 23.8385 19.798 23.911C19.8281 23.9834 19.8651 24.052 19.9082 24.1175C19.9522 24.1831 20.0015 24.2432 20.057 24.2987C20.1125 24.3542 20.1734 24.4035 20.2381 24.4467C20.3037 24.4906 20.3723 24.5276 20.4447 24.5569C20.5172 24.587 20.5919 24.6101 20.669 24.6255C20.7461 24.6402 20.824 24.6479 20.9018 24.6479H23.2922C23.3708 24.6479 23.4479 24.6402 23.525 24.6255C23.6021 24.6101 23.6768 24.587 23.7493 24.5569C23.8217 24.5276 23.8903 24.4906 23.9559 24.4467C24.0214 24.4035 24.0815 24.3542 24.137 24.2987C24.1925 24.2432 24.2418 24.1831 24.2858 24.1175C24.3289 24.052 24.3659 23.9834 24.396 23.911C24.4261 23.8385 24.4484 23.7637 24.4638 23.6874C24.4793 23.6103 24.487 23.5325 24.487 23.4546V21.0666C24.487 20.988 24.4793 20.9109 24.4638 20.8338C24.4484 20.7567 24.4261 20.6819 24.396 20.6095C24.3659 20.537 24.3289 20.4684 24.2858 20.4037C24.2418 20.3381 24.1925 20.278 24.137 20.2225C24.0815 20.167 24.0214 20.1177 23.9559 20.0737C23.8903 20.0306 23.8217 19.9936 23.7493 19.9635C23.6768 19.9335 23.6021 19.9111 23.525 19.8957C23.4479 19.8803 23.3708 19.8726 23.2922 19.8726H20.9018C20.824 19.8726 20.7461 19.8803 20.669 19.8957C20.5919 19.9111 20.5172 19.9335 20.4447 19.9635C20.3723 19.9936 20.3037 20.0306 20.2381 20.0737C20.1734 20.1177 20.1125 20.167 20.057 20.2225C20.0015 20.278 19.9522 20.3381 19.9082 20.4037C19.8651 20.4684 19.8281 20.537 19.798 20.6095C19.7679 20.6819 19.7456 20.7567 19.7302 20.8338C19.7147 20.9109 19.707 20.988 19.707 21.0666V23.4546ZM20.9018 21.0666H23.2922V23.4546H20.9018V21.0666Z" fill="#C3002F"/>
<path d="M26.8774 23.4546C26.8774 23.5325 26.8844 23.6103 26.8998 23.6874C26.9152 23.7637 26.9383 23.8385 26.9684 23.911C26.9977 23.9834 27.0347 24.052 27.0786 24.1175C27.1218 24.1831 27.1719 24.2432 27.2274 24.2987C27.2829 24.3542 27.343 24.4035 27.4078 24.4467C27.4733 24.4906 27.5419 24.5276 27.6144 24.5569C27.6876 24.587 27.7616 24.6101 27.8387 24.6255C27.9158 24.6402 27.9936 24.6479 28.0722 24.6479H30.4618C30.5404 24.6479 30.6183 24.6402 30.6954 24.6255C30.7717 24.6101 30.8465 24.587 30.9189 24.5569C30.9914 24.5276 31.0608 24.4906 31.1255 24.4467C31.191 24.4035 31.2511 24.3542 31.3066 24.2987C31.3621 24.2432 31.4123 24.1831 31.4554 24.1175C31.4994 24.052 31.5356 23.9834 31.5656 23.911C31.5957 23.8385 31.6188 23.7637 31.6343 23.6874C31.6489 23.6103 31.6566 23.5325 31.6566 23.4546V21.0666C31.6566 20.988 31.6489 20.9109 31.6343 20.8338C31.6188 20.7567 31.5957 20.6819 31.5656 20.6095C31.5356 20.537 31.4994 20.4684 31.4554 20.4037C31.4123 20.3381 31.3621 20.278 31.3066 20.2225C31.2511 20.167 31.191 20.1177 31.1255 20.0737C31.0608 20.0306 30.9914 19.9936 30.9189 19.9635C30.8465 19.9335 30.7717 19.9111 30.6954 19.8957C30.6183 19.8803 30.5404 19.8726 30.4618 19.8726H28.0722C27.9936 19.8726 27.9158 19.8803 27.8387 19.8957C27.7616 19.9111 27.6876 19.9335 27.6144 19.9635C27.5419 19.9936 27.4733 20.0306 27.4078 20.0737C27.343 20.1177 27.2829 20.167 27.2274 20.2225C27.1719 20.278 27.1218 20.3381 27.0786 20.4037C27.0347 20.4684 26.9977 20.537 26.9684 20.6095C26.9383 20.6819 26.9152 20.7567 26.8998 20.8338C26.8844 20.9109 26.8774 20.988 26.8774 21.0666V23.4546ZM28.0722 21.0666H30.4618V23.4546H28.0722V21.0666Z" fill="#C3002F"/>
<path d="M5.36816 29.7222C5.36816 29.8001 5.3751 29.8779 5.39052 29.955C5.40593 30.0321 5.42906 30.1068 5.45912 30.1785C5.48841 30.251 5.52541 30.3204 5.56935 30.3851C5.61252 30.4506 5.66262 30.5108 5.71812 30.5663C5.77362 30.6218 5.83375 30.6711 5.8985 30.715C5.96402 30.7582 6.03262 30.7952 6.10508 30.8253C6.17831 30.8553 6.25231 30.8777 6.32939 30.8931C6.40648 30.9085 6.48433 30.9162 6.56296 30.9162H8.95254C9.03116 30.9162 9.10902 30.9085 9.1861 30.8931C9.26241 30.8777 9.33718 30.8553 9.40964 30.8253C9.4821 30.7952 9.55148 30.7582 9.61623 30.715C9.68175 30.6711 9.74187 30.6218 9.79737 30.5663C9.85287 30.5108 9.90298 30.4506 9.94614 30.3851C9.99008 30.3204 10.0263 30.251 10.0564 30.1785C10.0864 30.1068 10.1096 30.0321 10.125 29.955C10.1396 29.8779 10.1473 29.8001 10.1473 29.7222V27.3342C10.1473 27.2555 10.1396 27.1784 10.125 27.1014C10.1096 27.0243 10.0864 26.9495 10.0564 26.8771C10.0263 26.8054 9.99008 26.736 9.94614 26.6712C9.90298 26.6057 9.85287 26.5456 9.79737 26.4901C9.74187 26.4346 9.68175 26.3853 9.61623 26.3413C9.55148 26.2982 9.4821 26.2612 9.40964 26.2311C9.33718 26.201 9.26241 26.1787 9.1861 26.1633C9.10902 26.1478 9.03116 26.1401 8.95254 26.1401H6.56296C6.48433 26.1401 6.40648 26.1478 6.32939 26.1633C6.25231 26.1787 6.17831 26.201 6.10585 26.2311C6.03262 26.2612 5.96402 26.2982 5.8985 26.3413C5.83375 26.3853 5.77362 26.4346 5.71812 26.4901C5.66262 26.5456 5.61252 26.6057 5.56935 26.6712C5.52541 26.736 5.48841 26.8054 5.45912 26.8771C5.42906 26.9495 5.40593 27.0243 5.39052 27.1014C5.3751 27.1784 5.36816 27.2555 5.36816 27.3342V29.7222ZM6.56296 27.3342H8.95254V29.7222H6.56296V27.3342Z" fill="#C3002F"/>
<path d="M12.5376 29.7222C12.5376 29.8001 12.5453 29.8779 12.5607 29.955C12.5754 30.0321 12.5985 30.1068 12.6286 30.1785C12.6586 30.251 12.6956 30.3204 12.7388 30.3851C12.7827 30.4506 12.8321 30.5108 12.8876 30.5663C12.9431 30.6218 13.0032 30.6711 13.0687 30.715C13.1335 30.7582 13.2028 30.7952 13.2753 30.8253C13.3477 30.8553 13.4225 30.8777 13.4996 30.8931C13.5759 30.9085 13.6538 30.9162 13.7324 30.9162H16.1227C16.2006 30.9162 16.2785 30.9085 16.3555 30.8931C16.4326 30.8777 16.5074 30.8553 16.5798 30.8253C16.6523 30.7952 16.7209 30.7582 16.7864 30.715C16.8512 30.6711 16.9121 30.6218 16.9676 30.5663C17.0231 30.5108 17.0724 30.4506 17.1156 30.3851C17.1595 30.3204 17.1965 30.251 17.2266 30.1785C17.2566 30.1068 17.279 30.0321 17.2944 29.955C17.3098 29.8779 17.3175 29.8001 17.3175 29.7222V27.3342C17.3175 27.2555 17.3098 27.1784 17.2944 27.1014C17.279 27.0243 17.2566 26.9495 17.2266 26.8771C17.1965 26.8054 17.1595 26.736 17.1156 26.6712C17.0724 26.6057 17.0231 26.5456 16.9676 26.4901C16.9121 26.4346 16.8512 26.3853 16.7864 26.3413C16.7209 26.2982 16.6523 26.2612 16.5798 26.2311C16.5074 26.201 16.4326 26.1787 16.3555 26.1633C16.2785 26.1478 16.2006 26.1401 16.1227 26.1401H13.7324C13.6538 26.1401 13.5759 26.1478 13.4996 26.1633C13.4225 26.1787 13.3477 26.201 13.2753 26.2311C13.2028 26.2612 13.1335 26.2982 13.0687 26.3413C13.0032 26.3853 12.9431 26.4346 12.8876 26.4901C12.8321 26.5456 12.7827 26.6057 12.7388 26.6712C12.6956 26.736 12.6586 26.8054 12.6286 26.8771C12.5985 26.9495 12.5754 27.0243 12.5607 27.1014C12.5453 27.1784 12.5376 27.2555 12.5376 27.3342V29.7222ZM13.7324 27.3342H16.1227V29.7222H13.7324V27.3342Z" fill="#C3002F"/>
<path d="M19.707 29.7222C19.707 29.8001 19.7147 29.8779 19.7302 29.955C19.7456 30.0321 19.7679 30.1068 19.798 30.1785C19.8281 30.251 19.8651 30.3204 19.9082 30.3851C19.9522 30.4506 20.0015 30.5108 20.057 30.5663C20.1125 30.6218 20.1734 30.6711 20.2381 30.715C20.3037 30.7582 20.3723 30.7952 20.4447 30.8253C20.5172 30.8553 20.5919 30.8777 20.669 30.8931C20.7461 30.9085 20.824 30.9162 20.9018 30.9162H23.2922C23.3708 30.9162 23.4479 30.9085 23.525 30.8931C23.6021 30.8777 23.6768 30.8553 23.7493 30.8253C23.8217 30.7952 23.8903 30.7582 23.9559 30.715C24.0214 30.6711 24.0815 30.6218 24.137 30.5663C24.1925 30.5108 24.2418 30.4506 24.2858 30.3851C24.3289 30.3204 24.3659 30.251 24.396 30.1785C24.4261 30.1068 24.4484 30.0321 24.4638 29.955C24.4793 29.8779 24.487 29.8001 24.487 29.7222V27.3342C24.487 27.2555 24.4793 27.1784 24.4638 27.1014C24.4484 27.0243 24.4261 26.9495 24.396 26.8771C24.3659 26.8054 24.3289 26.736 24.2858 26.6712C24.2418 26.6057 24.1925 26.5456 24.137 26.4901C24.0815 26.4346 24.0214 26.3853 23.9559 26.3413C23.8903 26.2982 23.8217 26.2612 23.7493 26.2311C23.6768 26.201 23.6021 26.1787 23.525 26.1633C23.4479 26.1478 23.3708 26.1401 23.2922 26.1401H20.9018C20.824 26.1401 20.7461 26.1478 20.669 26.1633C20.5919 26.1787 20.5172 26.201 20.4447 26.2311C20.3723 26.2612 20.3037 26.2982 20.2381 26.3413C20.1734 26.3853 20.1125 26.4346 20.057 26.4901C20.0015 26.5456 19.9522 26.6057 19.9082 26.6712C19.8651 26.736 19.8281 26.8054 19.798 26.8771C19.7679 26.9495 19.7456 27.0243 19.7302 27.1014C19.7147 27.1784 19.707 27.2555 19.707 27.3342V29.7222ZM20.9018 27.3342H23.2922V29.7222H20.9018V27.3342Z" fill="#C3002F"/>
<path d="M31.6566 3.45709H29.8644V3.15878C29.8644 3.02157 29.8513 2.88591 29.8244 2.75101C29.7974 2.61689 29.7581 2.48584 29.7056 2.35943C29.6525 2.23224 29.5885 2.11199 29.5122 1.99791C29.4359 1.88382 29.3487 1.77822 29.2516 1.68109C29.1553 1.58474 29.0489 1.49764 28.9348 1.42132C28.8207 1.34501 28.7005 1.28103 28.5733 1.22862C28.4469 1.1762 28.3158 1.13612 28.1809 1.10991C28.0468 1.08293 27.9104 1.06982 27.7732 1.06982C27.636 1.06982 27.5003 1.08293 27.3654 1.10991C27.2305 1.13612 27.1002 1.1762 26.973 1.22862C26.8459 1.28103 26.7256 1.34501 26.6115 1.42132C26.4974 1.49764 26.3918 1.58474 26.2947 1.68109C26.1976 1.77822 26.1105 1.88382 26.0342 1.99791C25.9586 2.11199 25.8939 2.23224 25.8415 2.35943C25.789 2.48584 25.749 2.61689 25.722 2.75101C25.6958 2.88591 25.6819 3.02157 25.6819 3.15878V3.45709H20.6036V3.15878C20.6036 3.02157 20.5898 2.88591 20.5636 2.75101C20.5366 2.61689 20.4973 2.48584 20.4441 2.35943C20.3917 2.23224 20.3277 2.11199 20.2514 1.99791C20.1751 1.88382 20.088 1.77822 19.9908 1.68109C19.8937 1.58474 19.7881 1.49764 19.674 1.42132C19.5599 1.34501 19.4397 1.28103 19.3125 1.22862C19.1861 1.1762 19.055 1.13612 18.9201 1.10991C18.786 1.08293 18.6496 1.06982 18.5124 1.06982C18.3752 1.06982 18.2387 1.08293 18.1046 1.10991C17.9697 1.13612 17.8387 1.1762 17.7122 1.22862C17.5851 1.28103 17.4648 1.34501 17.3507 1.42132C17.2366 1.49764 17.131 1.58474 17.0339 1.68109C16.9368 1.77822 16.8497 1.88382 16.7734 1.99791C16.6971 2.11199 16.6331 2.23224 16.5807 2.35943C16.5275 2.48584 16.4882 2.61689 16.4612 2.75101C16.4342 2.88591 16.4211 3.02157 16.4211 3.15878V3.45709H11.3429V3.15878C11.3429 3.02157 11.329 2.88591 11.3028 2.75101C11.2758 2.61689 11.2357 2.48584 11.1833 2.35943C11.1309 2.23224 11.0661 2.11199 10.9898 1.99791C10.9135 1.88382 10.8272 1.77822 10.73 1.68109C10.6329 1.58474 10.5273 1.49764 10.4132 1.42132C10.2991 1.34501 10.1781 1.28103 10.0517 1.22862C9.92452 1.1762 9.79425 1.13612 9.65935 1.10991C9.52445 1.08293 9.38879 1.06982 9.25158 1.06982C9.11437 1.06982 8.97793 1.08293 8.84304 1.10991C8.70891 1.13612 8.57787 1.1762 8.45145 1.22862C8.32427 1.28103 8.20402 1.34501 8.08993 1.42132C7.97508 1.49764 7.86948 1.58474 7.77235 1.68109C7.67523 1.77822 7.58889 1.88382 7.51258 1.99791C7.43627 2.11199 7.37229 2.23224 7.3191 2.35943C7.26668 2.48584 7.22737 2.61689 7.20039 2.75101C7.17341 2.88591 7.16031 3.02157 7.16031 3.15878V3.45709H5.36812C5.17156 3.45709 4.97731 3.47714 4.78537 3.51491C4.59266 3.55345 4.40612 3.61049 4.22498 3.68526C4.04383 3.7608 3.87193 3.85253 3.70929 3.96122C3.54587 4.06991 3.39479 4.19401 3.25681 4.33276C3.11806 4.47074 2.99395 4.62182 2.88527 4.78447C2.77581 4.94712 2.68408 5.11901 2.60854 5.30016C2.53377 5.4813 2.47673 5.66784 2.43818 5.85978C2.39964 6.05172 2.38037 6.24597 2.38037 6.44176V24.9472C2.38037 25.0258 2.39579 25.1021 2.42585 25.1753C2.45591 25.2486 2.49908 25.3133 2.55535 25.3688C2.61162 25.4251 2.6756 25.4682 2.74883 25.4983C2.82206 25.5284 2.89837 25.5438 2.97777 25.5438C3.05716 25.5438 3.13348 25.5284 3.2067 25.4983C3.27993 25.4682 3.34391 25.4251 3.40018 25.3688C3.45645 25.3133 3.49962 25.2486 3.52968 25.1753C3.56052 25.1021 3.57516 25.0258 3.57516 24.9472V11.8145H33.4496V26.1404C33.4496 26.2198 33.4342 26.2961 33.4041 26.3693C33.3733 26.4426 33.3301 26.5066 33.2746 26.5628C33.2183 26.6191 33.1536 26.6623 33.0804 26.6923C33.0071 26.7224 32.9308 26.7378 32.8522 26.7378H29.8644C29.6686 26.7378 29.4744 26.7571 29.2817 26.7956C29.0897 26.8342 28.9032 26.8904 28.7221 26.966C28.5409 27.0407 28.369 27.1332 28.2056 27.2419C28.043 27.3506 27.8919 27.4747 27.7531 27.6127C27.6144 27.7514 27.491 27.9018 27.3816 28.0652C27.2729 28.2278 27.1804 28.3997 27.1056 28.5809C27.0301 28.762 26.9738 28.9478 26.9353 29.1405C26.8967 29.3324 26.8775 29.5267 26.8775 29.7225V32.7071C26.8775 32.7858 26.862 32.8621 26.832 32.9353C26.8011 33.0085 26.758 33.0733 26.7017 33.1288C26.6462 33.1851 26.5815 33.2282 26.5082 33.2583C26.435 33.2891 26.3587 33.3038 26.2793 33.3038L5.36812 33.2675C5.25018 33.2675 5.13379 33.256 5.01816 33.2328C4.90254 33.2097 4.79077 33.1758 4.68208 33.1311C4.57339 33.0864 4.4701 33.0309 4.3722 32.9654C4.27431 32.8998 4.18335 32.8258 4.1001 32.7426C4.01685 32.6593 3.94285 32.5692 3.87733 32.4713C3.81181 32.3734 3.75708 32.2708 3.7116 32.1622C3.66689 32.0535 3.63298 31.9409 3.60985 31.8261C3.58673 31.7104 3.57516 31.5941 3.57516 31.4769V29.7225C3.57516 29.6431 3.56052 29.5668 3.52968 29.4935C3.49962 29.4211 3.45645 29.3563 3.40018 29.3001C3.34391 29.2446 3.27993 29.2014 3.2067 29.1706C3.13348 29.1405 3.05716 29.1251 2.97777 29.1251C2.89837 29.1251 2.82206 29.1405 2.74883 29.1706C2.6756 29.2014 2.61162 29.2446 2.55535 29.3001C2.49908 29.3563 2.45591 29.4211 2.42585 29.4935C2.39579 29.5668 2.38037 29.6431 2.38037 29.7225V33.9012C2.38037 34.0969 2.39964 34.2904 2.43818 34.4831C2.47673 34.6751 2.53377 34.8616 2.60854 35.0428C2.68408 35.2231 2.77581 35.395 2.88527 35.5584C2.99395 35.7211 3.11806 35.8714 3.25681 36.0102C3.39479 36.1489 3.54587 36.2722 3.70929 36.3817C3.87193 36.4904 4.04383 36.5821 4.22498 36.6577C4.40612 36.7324 4.59266 36.7895 4.78537 36.8272C4.97731 36.8658 5.17156 36.8851 5.36812 36.8858H31.6566C31.8532 36.8851 32.0474 36.8658 32.2394 36.8272C32.4321 36.7895 32.6186 36.7324 32.7998 36.6577C32.9809 36.5821 33.1528 36.4904 33.3155 36.3817C33.4789 36.2722 33.63 36.1489 33.7679 36.0102C33.9067 35.8714 34.0308 35.7211 34.1395 35.5584C34.2489 35.395 34.3407 35.2231 34.4162 35.0428C34.491 34.8616 34.548 34.6751 34.5866 34.4831C34.6251 34.2904 34.6444 34.0969 34.6444 33.9012V6.44176C34.6444 6.24597 34.6251 6.05172 34.5866 5.85978C34.548 5.66784 34.491 5.4813 34.4162 5.30016C34.3407 5.11901 34.2489 4.94712 34.1395 4.78447C34.0308 4.62182 33.9067 4.47074 33.7679 4.33276C33.63 4.19401 33.4789 4.06991 33.3155 3.96122C33.1528 3.85253 32.9809 3.7608 32.7998 3.68526C32.6186 3.61049 32.4321 3.55345 32.2394 3.51491C32.0474 3.47714 31.8532 3.45709 31.6566 3.45709ZM26.8775 3.15878C26.8775 3.1002 26.8829 3.04162 26.8944 2.9838C26.906 2.92676 26.9229 2.87049 26.9453 2.81576C26.9676 2.7618 26.9954 2.71016 27.0278 2.66159C27.0609 2.61226 27.0979 2.56755 27.1395 2.52593C27.1812 2.4843 27.2266 2.4473 27.2752 2.41416C27.3245 2.38178 27.3762 2.35403 27.4301 2.33168C27.4849 2.30932 27.5404 2.29237 27.5982 2.2808C27.656 2.26924 27.7146 2.26307 27.7732 2.26307C27.8325 2.26307 27.8903 2.26924 27.9481 2.2808C28.006 2.29237 28.0622 2.30932 28.1162 2.33168C28.1709 2.35403 28.2226 2.38178 28.2711 2.41416C28.3205 2.4473 28.3652 2.4843 28.4068 2.52593C28.4484 2.56755 28.4854 2.61226 28.5186 2.66159C28.5509 2.71016 28.5787 2.7618 28.601 2.81576C28.6242 2.87049 28.6411 2.92676 28.6527 2.9838C28.6635 3.04162 28.6696 3.1002 28.6696 3.15878V5.54682C28.6696 5.60541 28.6635 5.66322 28.6527 5.72103C28.6411 5.77884 28.6242 5.83512 28.601 5.88907C28.5787 5.9438 28.5509 5.99545 28.5186 6.04401C28.4854 6.09257 28.4484 6.13805 28.4068 6.17968C28.3652 6.2213 28.3205 6.2583 28.2711 6.29068C28.2226 6.32382 28.1709 6.35157 28.1162 6.37393C28.0622 6.39628 28.006 6.41324 27.9481 6.4248C27.8903 6.43637 27.8325 6.44176 27.7732 6.44176C27.7146 6.44176 27.656 6.43637 27.5982 6.4248C27.5404 6.41324 27.4849 6.39628 27.4301 6.37393C27.3762 6.35157 27.3245 6.32382 27.2752 6.29068C27.2266 6.2583 27.1812 6.2213 27.1395 6.17968C27.0979 6.13805 27.0609 6.09257 27.0278 6.04401C26.9954 5.99545 26.9676 5.9438 26.9453 5.88907C26.9229 5.83512 26.906 5.77884 26.8944 5.72103C26.8829 5.66322 26.8775 5.60541 26.8775 5.54682V3.15878ZM17.6159 3.15878C17.6159 3.1002 17.6221 3.04162 17.6336 2.9838C17.6452 2.92676 17.6621 2.87049 17.6845 2.81576C17.7069 2.7618 17.7346 2.71016 17.767 2.66159C17.8001 2.61226 17.8371 2.56755 17.8787 2.52593C17.9204 2.4843 17.9659 2.4473 18.0144 2.41416C18.063 2.38178 18.1146 2.35403 18.1694 2.33168C18.2241 2.30932 18.2796 2.29237 18.3374 2.2808C18.3952 2.26924 18.4538 2.26307 18.5124 2.26307C18.571 2.26307 18.6295 2.26924 18.6874 2.2808C18.7452 2.29237 18.8007 2.30932 18.8554 2.33168C18.9094 2.35403 18.961 2.38178 19.0103 2.41416C19.0589 2.4473 19.1044 2.4843 19.146 2.52593C19.1876 2.56755 19.2246 2.61226 19.2578 2.66159C19.2901 2.71016 19.3179 2.7618 19.3402 2.81576C19.3626 2.87049 19.3796 2.92676 19.3911 2.9838C19.4027 3.04162 19.4089 3.1002 19.4089 3.15878V5.54682C19.4089 5.60541 19.4027 5.66322 19.3911 5.72103C19.3796 5.77884 19.3626 5.83512 19.3402 5.88907C19.3179 5.9438 19.2901 5.99545 19.2578 6.04401C19.2246 6.09257 19.1876 6.13805 19.146 6.17968C19.1044 6.2213 19.0589 6.2583 19.0103 6.29068C18.961 6.32382 18.9094 6.35157 18.8554 6.37393C18.8007 6.39628 18.7452 6.41324 18.6874 6.4248C18.6295 6.43637 18.571 6.44176 18.5124 6.44176C18.4538 6.44176 18.3952 6.43637 18.3374 6.4248C18.2796 6.41324 18.2241 6.39628 18.1694 6.37393C18.1146 6.35157 18.063 6.32382 18.0144 6.29068C17.9659 6.2583 17.9204 6.2213 17.8787 6.17968C17.8371 6.13805 17.8001 6.09257 17.767 6.04401C17.7346 5.99545 17.7069 5.9438 17.6845 5.88907C17.6621 5.83512 17.6452 5.77884 17.6336 5.72103C17.6221 5.66322 17.6159 5.60541 17.6159 5.54682V3.15878ZM8.3551 3.15878C8.3551 3.1002 8.36127 3.04162 8.37206 2.9838C8.38362 2.92676 8.40058 2.87049 8.4237 2.81576C8.44606 2.7618 8.47381 2.71016 8.50618 2.66159C8.53856 2.61226 8.57633 2.56755 8.61795 2.52593C8.65958 2.4843 8.70429 2.4473 8.75362 2.41416C8.80218 2.38178 8.85383 2.35403 8.90856 2.33168C8.96252 2.30932 9.01879 2.29237 9.0766 2.2808C9.13441 2.26924 9.19223 2.26307 9.25158 2.26307C9.31016 2.26307 9.36875 2.26924 9.42656 2.2808C9.4836 2.29237 9.53987 2.30932 9.5946 2.33168C9.64856 2.35403 9.7002 2.38178 9.74954 2.41416C9.7981 2.4473 9.84358 2.4843 9.8852 2.52593C9.92683 2.56755 9.96383 2.61226 9.9962 2.66159C10.0294 2.71016 10.0571 2.7618 10.0795 2.81576C10.1018 2.87049 10.1188 2.92676 10.1303 2.9838C10.1419 3.04162 10.1473 3.1002 10.1473 3.15878V5.54682C10.1473 5.60541 10.1419 5.66322 10.1303 5.72103C10.1188 5.77884 10.1018 5.83512 10.0795 5.88907C10.0571 5.9438 10.0294 5.99545 9.9962 6.04401C9.96383 6.09257 9.92683 6.13805 9.8852 6.17968C9.84358 6.2213 9.7981 6.2583 9.74954 6.29068C9.7002 6.32382 9.64856 6.35157 9.5946 6.37393C9.53987 6.39628 9.4836 6.41324 9.42656 6.4248C9.36875 6.43637 9.31016 6.44176 9.25158 6.44176C9.19223 6.44176 9.13441 6.43637 9.0766 6.4248C9.01879 6.41324 8.96252 6.39628 8.90856 6.37393C8.85383 6.35157 8.80218 6.32382 8.75362 6.29068C8.70429 6.2583 8.65958 6.2213 8.61795 6.17968C8.57633 6.13805 8.53856 6.09257 8.50618 6.04401C8.47381 5.99545 8.44606 5.9438 8.4237 5.88907C8.40058 5.83512 8.38362 5.77884 8.37206 5.72103C8.36127 5.66322 8.3551 5.60541 8.3551 5.54682V3.15878ZM3.57516 10.6204V6.44176C3.57516 6.32459 3.58673 6.2082 3.60985 6.09257C3.63298 5.97695 3.66689 5.86518 3.7116 5.75649C3.75708 5.6478 3.81181 5.54451 3.87733 5.44662C3.94285 5.34949 4.01685 5.25853 4.1001 5.17528C4.18335 5.0928 4.27431 5.01803 4.3722 4.95328C4.4701 4.88776 4.57339 4.83226 4.68208 4.78755C4.79077 4.74207 4.90254 4.70816 5.01816 4.6858C5.13379 4.66268 5.25018 4.65112 5.36812 4.65112H7.16031V5.54682C7.16031 5.68403 7.17341 5.8197 7.20039 5.95382C7.22737 6.08872 7.26668 6.21899 7.3191 6.34618C7.37229 6.47259 7.43627 6.59284 7.51258 6.70693C7.58889 6.82101 7.67523 6.92662 7.77235 7.02374C7.86948 7.12087 7.97508 7.2072 8.08993 7.28351C8.20402 7.35982 8.32427 7.42457 8.45145 7.47699C8.57787 7.52941 8.70891 7.56872 8.84304 7.5957C8.97793 7.62268 9.11437 7.63578 9.25158 7.63578C9.38879 7.63578 9.52445 7.62268 9.65935 7.5957C9.79425 7.56872 9.92452 7.52941 10.0517 7.47699C10.1781 7.42457 10.2991 7.35982 10.4132 7.28351C10.5273 7.2072 10.6329 7.12087 10.73 7.02374C10.8272 6.92662 10.9135 6.82101 10.9898 6.70693C11.0661 6.59284 11.1309 6.47259 11.1833 6.34618C11.2357 6.21899 11.2758 6.08872 11.3028 5.95382C11.329 5.8197 11.3429 5.68403 11.3429 5.54682V4.65112H16.4211V5.54682C16.4211 5.68403 16.4342 5.8197 16.4612 5.95382C16.4882 6.08872 16.5275 6.21899 16.5807 6.34618C16.6331 6.47259 16.6971 6.59284 16.7734 6.70693C16.8497 6.82101 16.9368 6.92662 17.0339 7.02374C17.131 7.12087 17.2366 7.2072 17.3507 7.28351C17.4648 7.35982 17.5851 7.42457 17.7122 7.47699C17.8387 7.52941 17.9697 7.56872 18.1046 7.5957C18.2387 7.62268 18.3752 7.63578 18.5124 7.63578C18.6496 7.63578 18.786 7.62268 18.9201 7.5957C19.055 7.56872 19.1861 7.52941 19.3125 7.47699C19.4397 7.42457 19.5599 7.35982 19.674 7.28351C19.7881 7.2072 19.8937 7.12087 19.9908 7.02374C20.088 6.92662 20.1751 6.82101 20.2514 6.70693C20.3277 6.59284 20.3917 6.47259 20.4441 6.34618C20.4973 6.21899 20.5366 6.08872 20.5636 5.95382C20.5898 5.8197 20.6036 5.68403 20.6036 5.54682V4.65112H25.6819V5.54682C25.6819 5.68403 25.6958 5.8197 25.722 5.95382C25.749 6.08872 25.789 6.21899 25.8415 6.34618C25.8939 6.47259 25.9586 6.59284 26.0342 6.70693C26.1105 6.82101 26.1976 6.92662 26.2947 7.02374C26.3918 7.12087 26.4974 7.2072 26.6115 7.28351C26.7256 7.35982 26.8459 7.42457 26.973 7.47699C27.1002 7.52941 27.2305 7.56872 27.3654 7.5957C27.5003 7.62268 27.636 7.63578 27.7732 7.63578C27.9104 7.63578 28.0468 7.62268 28.1809 7.5957C28.3158 7.56872 28.4469 7.52941 28.5733 7.47699C28.7005 7.42457 28.8207 7.35982 28.9348 7.28351C29.0489 7.2072 29.1553 7.12087 29.2516 7.02374C29.3487 6.92662 29.4359 6.82101 29.5122 6.70693C29.5885 6.59284 29.6525 6.47259 29.7056 6.34618C29.7581 6.21899 29.7974 6.08872 29.8244 5.95382C29.8513 5.8197 29.8644 5.68403 29.8644 5.54682V4.65112H31.6566C31.7746 4.65112 31.891 4.66268 32.0066 4.6858C32.1222 4.70816 32.234 4.74207 32.3427 4.78755C32.4514 4.83226 32.5546 4.88776 32.6525 4.95328C32.7504 5.01803 32.8414 5.0928 32.9246 5.17528C33.0079 5.25853 33.0819 5.34949 33.1474 5.44662C33.2129 5.54451 33.2677 5.6478 33.3131 5.75649C33.3579 5.86518 33.3918 5.97695 33.4149 6.09257C33.438 6.2082 33.4496 6.32459 33.4496 6.44176V10.6204H3.57516ZM28.0722 29.7225C28.0722 29.6045 28.0838 29.4881 28.1062 29.3733C28.1293 29.2577 28.1632 29.1459 28.2087 29.0372C28.2534 28.9285 28.3089 28.8252 28.3744 28.7273C28.4392 28.6294 28.5139 28.5392 28.5972 28.456C28.6804 28.3727 28.7706 28.2987 28.8685 28.2332C28.9664 28.1677 29.0697 28.113 29.1784 28.0675C29.2871 28.0228 29.3996 27.9889 29.5145 27.9657C29.6301 27.9426 29.7465 27.9318 29.8644 27.9318H32.6055L28.0722 32.4612V29.7225ZM31.6566 35.6918H5.36812C5.24787 35.691 5.12916 35.6795 5.012 35.6556C4.89483 35.6317 4.78075 35.5962 4.67052 35.5492C4.56029 35.5022 4.45545 35.4451 4.35679 35.3781C4.25735 35.3102 4.16639 35.2332 4.08314 35.1476C3.99912 35.0613 3.92512 34.968 3.86037 34.8678C3.79562 34.7668 3.74166 34.6604 3.69773 34.5494C3.65379 34.4377 3.62218 34.3228 3.60137 34.2049C3.58056 34.0869 3.57208 33.9682 3.57516 33.8487C3.83185 34.0453 4.1132 34.1964 4.41845 34.3012C4.72448 34.4061 5.03898 34.4592 5.36273 34.4616L26.4766 34.4978C26.8744 34.4978 27.2575 34.4215 27.6252 34.2704C27.9929 34.1185 28.3181 33.9019 28.6003 33.6221L33.4496 28.7767V33.9012C33.4496 34.0183 33.438 34.1347 33.4149 34.2503C33.3918 34.3652 33.3579 34.4777 33.3131 34.5864C33.2677 34.6951 33.2129 34.7976 33.1474 34.8955C33.0819 34.9934 33.0079 35.0836 32.9246 35.1669C32.8414 35.2501 32.7504 35.3241 32.6525 35.3896C32.5546 35.4552 32.4514 35.5107 32.3427 35.5554C32.234 35.6001 32.1222 35.634 32.0066 35.6571C31.891 35.6802 31.7746 35.6918 31.6566 35.6918Z" fill="#C3002F"/>
<path d="M3.57516 27.3344C3.57516 27.4138 3.56052 27.4901 3.52968 27.5634C3.49962 27.6358 3.45645 27.7006 3.40018 27.7568C3.34391 27.8123 3.27993 27.8555 3.2067 27.8863C3.13348 27.9164 3.05716 27.9318 2.97777 27.9318C2.89837 27.9318 2.82206 27.9164 2.74883 27.8863C2.6756 27.8555 2.61162 27.8123 2.55535 27.7568C2.49908 27.7006 2.45591 27.6358 2.42585 27.5634C2.39579 27.4901 2.38037 27.4138 2.38037 27.3344C2.38037 27.255 2.39579 27.1795 2.42585 27.1063C2.45591 27.033 2.49908 26.9683 2.55535 26.9128C2.61162 26.8565 2.6756 26.8133 2.74883 26.7833C2.82206 26.7524 2.89837 26.7378 2.97777 26.7378C3.05716 26.7378 3.13348 26.7524 3.2067 26.7833C3.27993 26.8133 3.34391 26.8565 3.40018 26.9128C3.45645 26.9683 3.49962 27.033 3.52968 27.1063C3.56052 27.1795 3.57516 27.255 3.57516 27.3344Z" fill="#C3002F"/>
</svg>
