<svg width="39" height="40" viewBox="0 0 39 40" fill="none" xmlns="http://www.w3.org/2000/svg">
<g id="icon/risks">
<path id="Vector" d="M23.2385 31.7924C22.0538 32.186 20.6716 32.3828 19.2894 32.3828C16.1301 32.3828 12.9707 31.2019 10.7987 28.8402C8.42923 26.4785 7.24449 23.5264 7.24449 20.3775C7.24449 17.2285 8.42923 14.0796 10.7987 11.9147C13.1682 9.55302 16.1301 8.37218 19.2894 8.37218C22.4487 8.37218 25.608 9.55302 27.78 11.9147C30.1495 14.2764 31.3342 17.2285 31.3342 20.3775C31.3342 21.7551 31.1368 23.1328 30.7419 24.3136L32.3215 25.8881L32.9139 24.3136L37.258 22.936C37.258 19.7871 37.258 19.9839 37.258 16.8349L34.0986 15.8509C33.3088 15.6541 32.7164 15.0637 32.3215 14.2764C31.9266 13.4892 32.1241 12.702 32.3215 11.9147L33.9012 8.9626C31.7292 6.79771 31.7292 6.79771 29.5571 4.63282L26.5953 6.20728C25.8054 6.6009 25.0156 6.6009 24.2258 6.20728C23.436 5.81367 22.8436 5.22324 22.6461 4.43601L21.8563 1.48389H19.0919H15.7351L14.7479 4.63282C14.5504 5.42005 13.958 6.01048 13.1682 6.40409C12.3784 6.79771 11.5885 6.6009 10.7987 6.40409L7.83686 4.82963C5.66483 6.99452 5.86229 6.79771 3.69026 8.9626L5.26992 11.9147C5.66483 12.702 5.66483 13.4892 5.26992 14.2764C4.87501 15.0637 4.28264 15.6541 3.49281 15.8509L0.333496 16.8349C0.333496 19.9839 0.333496 19.7871 0.333496 22.936L3.49281 23.92C4.28264 24.1168 4.87501 24.7073 5.26992 25.4945C5.66483 26.2817 5.46738 27.069 5.26992 27.8562L3.69026 30.8083C5.86229 32.9732 5.66483 32.9732 7.83686 35.1381L10.7987 33.5636C11.5885 33.17 12.3784 33.17 13.1682 33.5636C13.958 33.9572 14.5504 34.5477 14.7479 35.3349L15.7351 38.4838C18.8945 38.4838 18.697 38.4838 21.8563 38.4838L23.2385 34.1541L24.6207 33.5636L23.2385 31.7924Z" fill="#505958" stroke="white" stroke-width="2"/>
<path id="Vector_2" fill-rule="evenodd" clip-rule="evenodd" d="M20.0793 14.8669V21.952H18.3022L18.1047 14.8669H20.0793Z" fill="#C32032"/>
<path id="Vector_3" d="M20.0794 23.5264H18.3022V25.4944H20.0794V23.5264Z" fill="#C32032"/>
<path id="Vector_4" d="M36.2708 32.7765L28.7675 25.2978C28.57 25.1009 28.3726 24.9041 28.1751 24.9041C28.7675 23.5265 29.1624 21.952 29.1624 20.3776C29.1624 17.6222 27.9776 15.0637 26.2005 13.2925C24.6209 11.5212 22.0539 10.3403 19.2895 10.3403C16.5251 10.3403 13.9582 11.5212 12.1811 13.2925C10.2065 15.2605 9.21924 17.6222 9.21924 20.3776C9.21924 23.1329 10.404 25.6914 12.1811 27.4626C13.9582 29.2339 16.5251 30.4148 19.2895 30.4148C20.8692 30.4148 22.4489 30.0212 23.8311 29.4307C24.0285 29.6275 24.0285 29.8243 24.226 30.0212L31.7293 37.4999C32.3217 38.0903 33.309 38.4839 34.0988 38.4839C34.8886 38.4839 35.8759 38.0903 36.4683 37.4999C37.653 36.1222 37.653 34.1541 36.2708 32.7765ZM24.226 25.4946C23.0412 26.6754 21.2641 27.4626 19.2895 27.4626C17.315 27.4626 15.5379 26.6754 14.3531 25.4946C13.1684 24.3137 12.3785 22.5424 12.3785 20.5744C12.3785 18.6063 13.1684 16.835 14.3531 15.6542C15.5379 14.4733 17.315 13.6861 19.2895 13.6861C21.2641 13.6861 23.0412 14.4733 24.226 15.6542C25.4107 16.835 26.2005 18.6063 26.2005 20.5744C26.2005 22.5424 25.4107 24.1169 24.226 25.4946Z" fill="#C32032"/>
</g>
</svg>
