<svg width="37" height="38" viewBox="0 0 37 38" fill="none" xmlns="http://www.w3.org/2000/svg">
<g id="8">
<path id="Vector" d="M22.7951 14.0882C21.6196 14.1437 20.4394 14.2177 19.2616 14.3218C19.3078 12.4895 19.2916 10.6588 19.0642 8.83963C18.89 7.79593 18.2202 6.63736 17.0138 7.22011C16.3509 7.59088 15.9439 8.28309 15.4436 8.83424C14.2357 10.332 13.0155 11.8197 11.7621 13.2804C10.9304 14.2601 10.0979 15.2399 9.26772 16.2211C9.15981 16.2566 9.05189 16.289 8.94397 16.3252C8.65953 16.4192 8.33039 16.4855 8.17699 16.7738C8.02668 17.0128 8.05135 17.2903 8.17931 17.51C7.0562 18.8458 5.94003 20.1886 4.84391 21.5468C4.1702 22.2421 5.18539 23.2797 5.89456 22.599C7.27974 20.8839 8.69499 19.1935 10.1187 17.5092C12.7527 16.6929 15.1823 16.2612 17.7184 15.9745C17.6521 18.2415 17.5573 20.5085 17.5665 22.7771C17.5565 23.7529 17.5403 24.7296 17.555 25.7047C17.5719 25.9313 17.5187 26.1772 17.6251 26.3846C17.7446 26.7338 18.1562 26.9087 18.5015 26.8155C19.3656 26.5318 18.9486 25.4326 19.035 24.7496C19.0427 23.3999 19.0596 22.0509 19.0735 20.7012C19.0696 19.0794 19.1506 17.4506 19.213 15.8218C20.0848 15.7417 20.9759 15.6708 21.8986 15.6029C22.3696 15.5343 22.9454 15.7201 23.3208 15.3593C23.7864 14.9223 23.4364 14.0674 22.7951 14.0882ZM11.8261 15.495C12.5353 14.6594 13.2452 13.8246 13.9521 12.9875C15.1368 11.6023 16.2376 10.1454 17.4393 8.77411C17.4555 8.75638 17.4748 8.74174 17.4917 8.72401C17.8093 9.71453 17.7369 10.7089 17.7816 12.1072C17.7839 12.8965 17.7731 13.6843 17.7561 14.4737C15.7589 14.6964 13.7732 15.0194 11.8261 15.495Z" fill="#C3002F"/>
<path id="Vector_2" d="M35.6319 9.99985C35.3752 9.73854 35.0006 9.78248 34.6668 9.73083C33.8397 9.64064 33.0095 9.56125 32.1793 9.4965C32.7952 8.53141 33.4242 7.66191 34.1642 6.9011C35.1093 6.28289 34.1295 4.96168 33.2832 5.70631C32.1539 6.7585 31.3114 8.08048 30.4974 9.39321C29.3457 9.34002 28.1926 9.32923 27.0394 9.38704C26.5761 9.41016 26.1121 9.441 25.6504 9.49033C25.3636 9.48802 25.0645 9.66993 24.9713 9.94821C24.7423 10.4069 25.1432 10.9965 25.6504 10.9788C26.9739 10.847 28.3043 10.8154 29.634 10.8485C28.8817 12.1505 28.0954 13.4516 27.5273 14.8284C27.4071 15.4188 28.1294 15.8852 28.6319 15.5699C28.9858 15.344 29.0705 14.8815 29.2872 14.5424C29.7682 13.6251 30.2677 12.7178 30.7818 11.8198C30.9614 11.5122 31.1348 11.2147 31.3083 10.9225C31.5896 10.9403 31.8718 10.9595 32.1531 10.9819C32.9185 11.0436 33.6832 11.1129 34.4471 11.1954C34.7585 11.2016 35.0985 11.3488 35.3929 11.2062C35.8755 11.042 35.998 10.3436 35.6319 9.99985Z" fill="#C3002F"/>
<path id="Vector_3" d="M28.1978 21.5044C27.9118 22.9621 27.7284 23.4724 27.077 24.6494C25.2209 27.8754 21.2249 30.5463 17.9373 31.8128C11.5332 34.308 5.63014 32.3793 3.39626 26.5387C1.83224 22.2884 3.12262 17.9887 5.00577 14.1306C6.62529 10.7991 8.82833 8.36788 11.6211 6.56336C15.2193 4.33334 19.9784 3.67582 23.2761 5.2329C23.8603 5.54971 23.6877 5.48111 24.0346 5.74551C24.1725 5.88194 24.3645 5.96519 24.5595 5.96288C25.1962 5.98986 25.5546 5.1273 25.0852 4.69255C22.1876 2.33457 17.8047 2.63905 14.42 3.65655C9.41108 5.2198 5.50064 9.3584 3.38701 14.0798C1.8916 17.2016 0.933452 20.7066 1.30191 24.1877C1.78445 28.4913 4.73443 32.525 8.92468 33.8277C15.0166 35.6346 21.5571 32.5597 25.9894 28.4188C27.7338 26.6066 29.2539 24.4405 29.6308 21.8999C29.8675 20.9487 28.4792 20.5702 28.1978 21.5044Z" fill="#C3002F"/>
</g>
</svg>
