<svg width="38" height="38" viewBox="0 0 38 38" fill="none" xmlns="http://www.w3.org/2000/svg">
<g id="3" clip-path="url(#clip0_6314_8857)">
<path id="Vector" d="M7.60533 8.80494C7.28466 8.8296 6.87921 8.96989 6.3535 9.27206C2.99189 11.2099 7.8335 12.1026 5.89177 15.4588C3.95081 18.815 0.758789 15.0741 0.758789 18.9499C0.758789 22.8249 3.95081 19.084 5.89177 22.4402C7.8335 25.7964 2.99189 26.689 6.3535 28.6269C9.71587 30.564 8.06706 25.9313 11.949 25.9313C15.8309 25.9313 14.1821 30.564 17.5437 28.6269C20.9053 26.689 16.0645 25.7964 18.0054 22.4402C19.9464 19.084 23.1392 22.8249 23.1392 18.9499C23.1392 15.0741 19.9464 18.815 18.0054 15.4588C16.0645 12.1026 20.9053 11.2099 17.5437 9.27206C14.1821 7.33496 15.8309 11.9677 11.949 11.9677C8.67371 11.9677 9.33816 8.67081 7.60533 8.80417V8.80494ZM11.949 14.4806C14.421 14.4806 16.4244 16.4817 16.4244 18.9491C16.4244 21.4173 14.421 23.4176 11.949 23.4176C9.47691 23.4176 7.47275 21.4173 7.47275 18.9491C7.47275 16.4817 9.47691 14.4806 11.949 14.4806Z" fill="#C3002F"/>
<path id="Vector_2" d="M22.2085 13.9859C22.0088 14.1224 21.7984 14.3652 21.571 14.7583C20.1149 17.2758 23.5944 16.0425 23.5944 18.9493C23.5944 21.8561 20.1156 20.6212 21.5717 23.138C23.0279 25.6556 23.6962 22.0311 26.2176 23.4841C28.739 24.9371 25.9293 27.329 28.8407 27.329C31.7521 27.329 28.9409 24.9371 31.4623 23.4841C33.9845 22.0303 34.6536 25.6571 36.1089 23.1403C37.5642 20.6228 34.0855 21.8561 34.0855 18.9493C34.0855 16.0425 37.5642 17.2774 36.1081 14.7598C34.652 12.2431 33.9837 15.8675 31.4623 14.4145C28.9409 12.9607 31.7506 10.5696 28.8392 10.5696C25.9277 10.5696 28.739 12.9607 26.2168 14.4145C24.0901 15.6409 23.283 13.2505 22.2085 13.9859ZM27.1611 16.0471C28.7667 15.1214 30.8202 15.671 31.7467 17.2735C32.6741 18.8768 32.1237 20.9265 30.518 21.8515C28.9124 22.7773 26.8597 22.2277 25.9324 20.6251C25.0058 19.0218 25.5554 16.9721 27.1611 16.0471Z" fill="#C3002F"/>
</g>
<defs>
<clipPath id="clip0_6314_8857">
<rect width="37" height="37" fill="white" transform="translate(0.666504 0.483887)"/>
</clipPath>
</defs>
</svg>
