<svg width="37" height="38" viewBox="0 0 37 38" fill="none" xmlns="http://www.w3.org/2000/svg">
<g clip-path="url(#clip0_6314_4848)">
<path d="M37 18.9846C37 29.202 28.7174 37.4846 18.5 37.4846C8.2826 37.4846 0 29.202 0 18.9846C0 8.76722 8.2826 0.484619 18.5 0.484619C28.7174 0.484619 37 8.76722 37 18.9846Z" fill="#C3002F"/>
<path d="M18.0951 5.01025C14.493 5.01025 11.5746 7.9294 11.5746 11.5307C11.5746 12.159 11.8676 13.9111 12.5004 14.8808C12.5004 14.8808 14.8792 17.0568 18.089 19.9228C15.2731 19.9444 12.2114 19.9567 9.88343 21.4868C8.22846 22.5752 6.97893 24.4954 6.59429 26.4387C6.28981 27.9757 5.07421 29.8681 7.50618 31.0482C8.50056 31.5308 11.8629 34.248 15.7186 37.275C16.6259 37.4122 17.554 37.4847 18.499 37.4847C28.3171 37.4847 36.3446 29.8349 36.9566 20.171C29.9606 13.4285 21.1276 5.75719 21.1276 5.75719C20.2203 5.24767 18.6447 5.01025 18.0944 5.01025H18.0951Z" fill="#F6C235" fill-opacity="0.1961"/>
<path d="M24.6167 11.5076C24.6167 11.7211 24.6059 11.9346 24.5851 12.1474C24.5643 12.3593 24.5327 12.5706 24.4911 12.7802C24.4494 12.9891 24.3978 13.1965 24.3361 13.4007C24.2737 13.605 24.202 13.8062 24.1203 14.0035C24.0386 14.2009 23.9469 14.3936 23.8467 14.5817C23.7457 14.7705 23.6362 14.9532 23.5175 15.1305C23.3988 15.3086 23.2716 15.4797 23.1359 15.6446C23.0011 15.8096 22.8577 15.9676 22.7066 16.1187C22.5555 16.2698 22.3975 16.4132 22.2325 16.5488C22.0676 16.6845 21.8957 16.8117 21.7184 16.9296C21.5411 17.0483 21.3576 17.1586 21.1696 17.2588C20.9807 17.3597 20.788 17.4507 20.5907 17.5324C20.3933 17.6141 20.1929 17.6858 19.9886 17.7482C19.7844 17.8099 19.577 17.8623 19.3673 17.904C19.1584 17.9456 18.9472 17.9764 18.7345 17.998C18.5217 18.0188 18.309 18.0288 18.0955 18.0288C17.8819 18.0288 17.6684 18.0188 17.4564 17.998C17.2437 17.9764 17.0325 17.9456 16.8228 17.904C16.6139 17.8623 16.4066 17.8099 16.2023 17.7482C15.998 17.6858 15.7968 17.6141 15.5995 17.5324C15.4022 17.4507 15.2095 17.3597 15.0214 17.2588C14.8333 17.1586 14.6498 17.0483 14.4726 16.9296C14.2945 16.8117 14.1234 16.6845 13.9584 16.5488C13.7934 16.4132 13.6354 16.2698 13.4843 16.1187C13.3333 15.9676 13.1899 15.8096 13.0542 15.6446C12.9186 15.4797 12.7921 15.3086 12.6734 15.1305C12.5547 14.9532 12.4445 14.7705 12.3443 14.5817C12.2433 14.3936 12.1523 14.2009 12.0706 14.0035C11.9889 13.8062 11.9172 13.605 11.8548 13.4007C11.7931 13.1965 11.7415 12.9891 11.6991 12.7802C11.6575 12.5706 11.6266 12.3593 11.6058 12.1466C11.5842 11.9346 11.5742 11.7211 11.5742 11.5076C11.5742 11.2941 11.5842 11.0813 11.6058 10.8686C11.6266 10.6558 11.6575 10.4446 11.6991 10.2357C11.7415 10.026 11.7931 9.81945 11.8548 9.61441C11.9172 9.41014 11.9889 9.20972 12.0706 9.01239C12.1523 8.81506 12.2433 8.62235 12.3443 8.43349C12.4445 8.24541 12.5547 8.06195 12.6734 7.88466C12.7921 7.70737 12.9186 7.53547 13.0542 7.37052C13.1899 7.20556 13.3333 7.04754 13.4843 6.89645C13.6354 6.74537 13.7934 6.60199 13.9584 6.4671C14.1234 6.33143 14.2945 6.20424 14.4726 6.08554C14.6498 5.96683 14.8333 5.85737 15.0214 5.75639C15.2095 5.65618 15.4022 5.56445 15.5995 5.48274C15.7968 5.40104 15.998 5.32935 16.2023 5.26768C16.4066 5.20524 16.6139 5.1536 16.8228 5.11197C17.0325 5.07035 17.2437 5.03874 17.4564 5.01793C17.6684 4.99712 17.8819 4.98633 18.0955 4.98633C18.309 4.98633 18.5217 4.99712 18.7345 5.01793C18.9472 5.03874 19.1584 5.07035 19.3673 5.11197C19.577 5.1536 19.7844 5.20524 19.9886 5.26768C20.1929 5.32935 20.3933 5.40104 20.5907 5.48274C20.788 5.56445 20.9807 5.65618 21.1696 5.75639C21.3576 5.85737 21.5411 5.96683 21.7184 6.08554C21.8957 6.20424 22.0676 6.33143 22.2325 6.4671C22.3975 6.60199 22.5555 6.74537 22.7066 6.89645C22.8577 7.04754 23.0011 7.20556 23.1359 7.37052C23.2716 7.53547 23.3988 7.70737 23.5175 7.88466C23.6362 8.06195 23.7457 8.24541 23.8467 8.43349C23.9469 8.62235 24.0386 8.81506 24.1203 9.01239C24.202 9.20972 24.2737 9.41014 24.3361 9.61441C24.3978 9.81945 24.4494 10.026 24.4911 10.2357C24.5327 10.4446 24.5643 10.6558 24.5851 10.8686C24.6059 11.0813 24.6167 11.2941 24.6167 11.5076Z" fill="white"/>
<path d="M30.529 26.3846C30.7757 27.9386 31.8394 29.797 29.4599 30.9818C27.0803 32.1666 22.2919 32.9066 18.5611 32.9066C14.831 32.9066 9.93852 32.1758 7.50654 30.9957C5.07456 29.8155 6.28939 27.9216 6.59387 26.3846C6.97929 24.4413 8.22804 22.5227 9.88379 21.4343C12.3397 19.8186 15.6219 19.8911 18.5611 19.8633C21.565 19.8348 24.9682 19.6182 27.4572 21.2994C29.0991 22.4071 30.2184 24.429 30.5282 26.3846H30.529Z" fill="white"/>
<path d="M18.5 32.7827L15.9038 29.1019L18.5 22.8906L21.0954 29.1019L18.5 32.7827ZM18.5 23.5596L15.9038 19.8789H21.0961L18.5 23.5596Z" fill="#4F5858"/>
</g>
<defs>
<clipPath id="clip0_6314_4848">
<rect width="37" height="37" fill="white" transform="translate(0 0.483887)"/>
</clipPath>
</defs>
</svg>
