<svg width="37" height="38" viewBox="0 0 37 38" fill="none" xmlns="http://www.w3.org/2000/svg">
<g clip-path="url(#clip0_6314_5579)">
<path d="M27.323 16.7963L31.0037 18.3634L35.9617 6.71845L23.7563 1.55078L22.4051 4.69193C22.1091 4.3967 21.7668 4.17161 21.3783 4.01668C21.1949 3.96118 21.0083 3.92341 20.8179 3.90182C20.6275 3.88101 20.4371 3.87716 20.246 3.89103C20.0556 3.90414 19.8667 3.93497 19.6817 3.98353C19.4967 4.03132 19.3171 4.0953 19.1437 4.17624C18.9695 4.25718 18.8045 4.35276 18.6488 4.46376C18.4923 4.57476 18.3474 4.69809 18.2141 4.83607C18.0807 4.97328 17.9604 5.12128 17.8541 5.28007C17.7477 5.43964 17.6567 5.60691 17.5804 5.78266C17.5049 5.95841 17.4455 6.13955 17.4024 6.32609C17.36 6.51264 17.3345 6.70149 17.3261 6.89343C17.3176 7.08459 17.3268 7.27499 17.353 7.46461C17.3792 7.65424 17.4224 7.84001 17.4833 8.02116C17.5434 8.20307 17.6197 8.37805 17.7115 8.54609C17.804 8.71336 17.9103 8.87139 18.0314 9.02016C18.1524 9.16816 18.2857 9.30459 18.4322 9.4287C18.5779 9.5528 18.7336 9.66226 18.8993 9.75784C19.2917 9.92897 19.701 10.0145 20.1288 10.0145L18.7783 13.1757L21.9526 14.527C21.9526 14.3975 21.9611 14.268 21.9773 14.1393C21.9934 14.0105 22.0173 13.8833 22.0489 13.7577C22.0806 13.6321 22.1199 13.5087 22.1669 13.3877C22.2139 13.2674 22.2686 13.1495 22.3303 13.0354C22.3912 12.9213 22.4598 12.8111 22.5346 12.7055C22.6101 12.5999 22.6911 12.4989 22.7782 12.4033C22.866 12.3078 22.9593 12.2176 23.0572 12.1336C23.1559 12.0488 23.2592 11.9709 23.3678 11.9C23.4758 11.8283 23.5883 11.7636 23.7039 11.7057C23.8203 11.6479 23.9398 11.5978 24.0616 11.5547C24.1842 11.5123 24.309 11.4768 24.4354 11.4491C24.5619 11.4213 24.6898 11.402 24.8193 11.3897C24.9481 11.3781 25.0776 11.3743 25.2071 11.3781C25.3366 11.3828 25.4661 11.3943 25.594 11.4144C25.722 11.4344 25.8484 11.4622 25.9733 11.4976C26.0981 11.5338 26.2199 11.577 26.3394 11.6271C26.4589 11.678 26.5745 11.7358 26.6863 11.8006C26.7988 11.8653 26.9067 11.937 27.01 12.0156C27.1133 12.0935 27.212 12.1775 27.3045 12.2684C27.3978 12.3586 27.4849 12.4542 27.5658 12.5552C27.6475 12.6562 27.7223 12.7618 27.7901 12.872C27.8587 12.983 27.9196 13.0971 27.9736 13.2143C28.0275 13.3322 28.0746 13.4532 28.1139 13.5766C28.1532 13.7007 28.1848 13.8255 28.2079 13.9535C28.2318 14.0807 28.248 14.2094 28.2557 14.3389C28.2634 14.4684 28.2634 14.5971 28.2557 14.7266C28.2472 14.8561 28.2318 14.9849 28.2079 15.1121C28.184 15.24 28.1524 15.3649 28.1131 15.489C28.0738 15.6123 28.0268 15.7333 27.972 15.8505C27.9181 15.9684 27.8572 16.0825 27.7886 16.1928C27.72 16.303 27.6452 16.4086 27.5643 16.5096C27.4826 16.6106 27.3954 16.7061 27.3022 16.7963" fill="#CAC8C8"/>
<path d="M29.072 21.883H25.9317C25.9671 21.6587 25.9849 21.4336 25.9856 21.207C25.9856 21.0721 25.9787 20.938 25.9656 20.8031C25.9525 20.669 25.9324 20.5356 25.9062 20.403C25.88 20.2712 25.8469 20.1402 25.8076 20.0114C25.769 19.8819 25.7235 19.7548 25.6719 19.6307C25.6202 19.5058 25.5624 19.384 25.4985 19.2653C25.4352 19.1458 25.3659 19.0302 25.2911 18.9184C25.2156 18.8059 25.1354 18.6979 25.0498 18.5931C24.9643 18.489 24.8741 18.3888 24.7785 18.294C24.6829 18.1984 24.5835 18.1075 24.4786 18.0219C24.3746 17.9364 24.2667 17.8562 24.1541 17.7814C24.0416 17.7067 23.926 17.6373 23.8072 17.5733C23.6885 17.5101 23.5667 17.4523 23.4419 17.4006C23.317 17.349 23.1898 17.3035 23.0611 17.2642C22.9316 17.2249 22.8013 17.1925 22.6687 17.1663C22.5361 17.1401 22.4028 17.12 22.2687 17.1069C22.1345 17.0938 21.9996 17.0869 21.8647 17.0869C21.7299 17.0869 21.5957 17.0938 21.4608 17.1069C21.3267 17.12 21.1934 17.1401 21.0608 17.1663C20.929 17.1925 20.7979 17.2249 20.6692 17.2642C20.5397 17.3035 20.4125 17.349 20.2884 17.4006C20.1635 17.4523 20.0417 17.5101 19.9222 17.5733C19.8035 17.6373 19.6879 17.7067 19.5761 17.7814C19.4636 17.8562 19.3557 17.9364 19.2509 18.0219C19.1468 18.1075 19.0466 18.1984 18.9518 18.294C18.8562 18.3888 18.7652 18.489 18.6797 18.5931C18.5941 18.6979 18.5139 18.8059 18.4392 18.9184C18.3636 19.0302 18.295 19.1458 18.231 19.2653C18.1678 19.384 18.11 19.5058 18.0584 19.6307C18.0067 19.7548 17.9612 19.8819 17.9219 20.0114C17.8826 20.1402 17.8502 20.2712 17.824 20.403C17.7971 20.5356 17.7778 20.669 17.7647 20.8031C17.7508 20.938 17.7446 21.0721 17.7446 21.207C17.7446 21.4336 17.7631 21.6587 17.7986 21.883H15.5902V18.8567C15.5902 18.2894 15.1847 17.9649 14.6575 18.1815C14.3152 18.331 13.9575 18.405 13.5837 18.4043C13.4018 18.4043 13.2214 18.3865 13.0433 18.3511C12.8653 18.3156 12.6918 18.2632 12.5238 18.193C12.3557 18.1237 12.1962 18.0381 12.0451 17.9371C11.894 17.8362 11.7537 17.7213 11.625 17.5926C11.497 17.4646 11.3822 17.3243 11.2812 17.1732C11.1802 17.0222 11.0947 16.8626 11.0253 16.6945C10.9551 16.5265 10.9027 16.3531 10.8673 16.175C10.8318 15.9962 10.8141 15.8166 10.8141 15.6347C10.8141 15.4527 10.8318 15.2724 10.8673 15.0943C10.9027 14.9162 10.9551 14.7428 11.0253 14.5748C11.0947 14.4067 11.1802 14.2472 11.2812 14.0961C11.3822 13.945 11.497 13.8047 11.625 13.676C11.7537 13.548 11.894 13.4332 12.0451 13.3322C12.1962 13.2312 12.3557 13.1456 12.5238 13.0763C12.6918 13.0061 12.8653 12.9537 13.0433 12.9182C13.2214 12.8828 13.4018 12.865 13.5837 12.865C13.9537 12.862 14.3098 12.9313 14.6505 13.0747C15.2926 13.3044 15.5832 12.9938 15.5902 12.4534V8.72413C15.5932 8.67942 15.5917 8.63394 15.5855 8.58923C15.5794 8.54453 15.5686 8.50059 15.5532 8.45819C15.537 8.41503 15.5169 8.37494 15.4923 8.3364C15.4684 8.29863 15.4399 8.26317 15.4075 8.2308C15.3759 8.19919 15.3404 8.17067 15.3019 8.14601C15.2641 8.12211 15.2232 8.1013 15.1809 8.08588C15.1385 8.07046 15.0945 8.0589 15.0498 8.05273C15.0043 8.04657 14.9596 8.0458 14.9141 8.04888H1.08077C0.991351 8.04888 0.905018 8.06584 0.821767 8.10053C0.739288 8.13444 0.666059 8.18378 0.602851 8.24698C0.539642 8.31019 0.49108 8.38342 0.456392 8.4659C0.422476 8.54915 0.405518 8.63471 0.405518 8.72413V36.5474C0.405518 36.6368 0.422476 36.7231 0.456392 36.8056C0.49108 36.8888 0.539642 36.9613 0.602851 37.0245C0.666059 37.0885 0.739288 37.137 0.821767 37.171C0.905018 37.2057 0.991351 37.2226 1.08077 37.2226H26.519C26.6254 37.2226 26.731 37.2172 26.8366 37.2064C26.9422 37.1956 27.0471 37.1802 27.1511 37.1594C27.2552 37.1378 27.3577 37.1124 27.4595 37.0808C27.5604 37.0499 27.6606 37.0137 27.7585 36.9729C27.8564 36.932 27.952 36.8865 28.0453 36.8364C28.1386 36.7863 28.2295 36.7316 28.3174 36.6722C28.4053 36.6129 28.4908 36.5497 28.5725 36.4818C28.6542 36.4148 28.7321 36.3431 28.8069 36.2675C28.8816 36.1928 28.9533 36.1142 29.0196 36.0317C29.0867 35.9492 29.1499 35.8644 29.2085 35.7758C29.2671 35.6871 29.321 35.5962 29.3711 35.5021C29.4205 35.4088 29.4659 35.3125 29.506 35.2146C29.5461 35.1159 29.5816 35.0165 29.6116 34.9147C29.6425 34.813 29.6679 34.7105 29.6879 34.6056C29.708 34.5016 29.7234 34.3967 29.7334 34.2911C29.7434 34.1855 29.7481 34.0799 29.7481 33.9735V22.5583C29.7481 22.4689 29.7303 22.3825 29.6964 22.3C29.6617 22.2168 29.6132 22.1436 29.55 22.0804C29.4867 22.0172 29.4135 21.9686 29.331 21.9339C29.2478 21.9 29.1615 21.883 29.072 21.883ZM14.2119 9.40015V11.5685C13.9884 11.5323 13.7633 11.5145 13.5367 11.5145C13.4018 11.5145 13.2669 11.5207 13.1327 11.5338C12.9979 11.5469 12.8645 11.567 12.7327 11.5932C12.6001 11.6194 12.4691 11.6525 12.3403 11.6918C12.2108 11.7312 12.0844 11.7759 11.9595 11.8275C11.8347 11.8792 11.7129 11.937 11.5942 12.0009C11.4747 12.0642 11.3591 12.1335 11.2473 12.2083C11.1347 12.2838 11.0268 12.364 10.9228 12.4496C10.8179 12.5351 10.7185 12.6253 10.6229 12.7209C10.5273 12.8165 10.4371 12.9167 10.3516 13.0208C10.266 13.1248 10.1851 13.2335 10.1103 13.3453C10.0355 13.4578 9.96616 13.5734 9.90218 13.6922C9.83898 13.8116 9.78116 13.9334 9.72952 14.0575C9.67787 14.1824 9.63239 14.3096 9.59308 14.4383C9.55454 14.5678 9.52139 14.6981 9.49518 14.8307C9.46898 14.9633 9.44893 15.0966 9.43583 15.2307C9.42273 15.3649 9.41579 15.4998 9.41579 15.6347C9.41579 15.7695 9.42273 15.9044 9.43583 16.0386C9.44893 16.1727 9.46898 16.306 9.49518 16.4386C9.52139 16.5704 9.55454 16.7015 9.59308 16.831C9.63239 16.9597 9.67787 17.0869 9.72952 17.2118C9.78116 17.3359 9.83898 17.4577 9.90218 17.5772C9.96616 17.6959 10.0355 17.8115 10.1103 17.924C10.1851 18.0358 10.266 18.1445 10.3516 18.2485C10.4371 18.3526 10.5273 18.4528 10.6229 18.5484C10.7185 18.6432 10.8179 18.7342 10.9228 18.8197C11.0268 18.9053 11.1347 18.9855 11.2473 19.0602C11.3591 19.1358 11.4747 19.2052 11.5942 19.2684C11.7129 19.3323 11.8347 19.3894 11.9595 19.441C12.0844 19.4927 12.2108 19.5382 12.3403 19.5775C12.4691 19.6168 12.6001 19.6492 12.7327 19.6761C12.8645 19.7023 12.9979 19.7216 13.1327 19.7355C13.2669 19.7486 13.4018 19.7548 13.5367 19.7548C13.7633 19.7524 13.9884 19.7324 14.2119 19.6939V21.8961H11.2126C11.1548 21.8915 11.0977 21.8946 11.0415 21.9054C10.9844 21.9154 10.9297 21.9324 10.8773 21.957C10.8249 21.9809 10.7763 22.0118 10.7316 22.048C10.6877 22.085 10.6484 22.1266 10.6144 22.1736C10.5805 22.2199 10.5528 22.2708 10.532 22.3239C10.5111 22.3779 10.4973 22.4334 10.4903 22.4912C10.4834 22.5483 10.4842 22.6053 10.4919 22.6623C10.5004 22.7202 10.515 22.7749 10.5374 22.8281C10.5767 22.9229 10.6114 23.0185 10.6399 23.1164C10.6692 23.2143 10.6923 23.3137 10.71 23.4139C10.7285 23.5149 10.7409 23.6159 10.747 23.7176C10.754 23.8201 10.7555 23.9219 10.7509 24.0236C10.7462 24.1262 10.7362 24.2271 10.72 24.3281C10.7046 24.4291 10.683 24.5285 10.6568 24.6272C10.6299 24.7259 10.5975 24.823 10.5597 24.9178C10.5227 25.0126 10.4803 25.1051 10.4325 25.1953C10.3847 25.2855 10.3315 25.3734 10.2745 25.4574C10.2175 25.5422 10.155 25.6231 10.0887 25.701C10.0224 25.778 9.95229 25.852 9.87752 25.9222C9.80275 25.9916 9.72489 26.0571 9.64318 26.1188C9.56148 26.1797 9.47668 26.2359 9.38881 26.2876C9.30016 26.34 9.20998 26.3862 9.11671 26.4279C9.02343 26.4703 8.92785 26.5065 8.83073 26.5373C8.7336 26.5689 8.63493 26.5944 8.53473 26.6152C8.43529 26.6352 8.33431 26.6499 8.23256 26.6591C8.13081 26.6684 8.02906 26.6722 7.92654 26.6699C7.82479 26.6676 7.72304 26.6599 7.62129 26.6468C7.52031 26.6329 7.4201 26.6144 7.32066 26.5897C7.222 26.5658 7.1241 26.5358 7.02852 26.5003C6.93293 26.4649 6.83889 26.4248 6.74793 26.3793C6.65621 26.3338 6.56756 26.2829 6.482 26.2274C6.39643 26.1719 6.31396 26.1126 6.23456 26.0478C6.15516 25.9831 6.07962 25.9145 6.00871 25.842C5.93702 25.7688 5.86918 25.6925 5.80675 25.6123C5.74354 25.5322 5.68496 25.4481 5.631 25.3618C5.57704 25.2747 5.52848 25.1853 5.48454 25.0928C5.4406 25.001 5.40129 24.9062 5.36814 24.8099C5.33423 24.7135 5.30648 24.6156 5.28335 24.5162C5.261 24.4168 5.24404 24.3158 5.23248 24.2148C5.22091 24.113 5.21475 24.0113 5.21475 23.9088C5.21166 23.5372 5.28104 23.1788 5.42364 22.835C5.57241 22.4904 5.55931 21.8961 4.80235 21.8961H1.75602V9.40015H14.2119ZM1.75602 23.2474H3.92437C3.88891 23.4709 3.87041 23.696 3.87041 23.9227C3.87041 24.0575 3.87658 24.1924 3.89046 24.3266C3.90356 24.4607 3.92283 24.594 3.94981 24.7266C3.97602 24.8592 4.00839 24.9895 4.04771 25.119C4.08702 25.2477 4.1325 25.3749 4.18414 25.4998C4.23579 25.6239 4.2936 25.7457 4.35681 25.8652C4.42079 25.9839 4.48939 26.0995 4.56493 26.212C4.63971 26.3238 4.71987 26.4325 4.80543 26.5365C4.891 26.6406 4.98196 26.7408 5.07754 26.8364C5.17235 26.932 5.27256 27.0222 5.37662 27.1077C5.48146 27.1933 5.58937 27.2735 5.70191 27.349C5.81368 27.4238 5.92931 27.4932 6.04802 27.5564C6.1675 27.6203 6.28929 27.6774 6.41416 27.729C6.53827 27.7807 6.66546 27.8262 6.79496 27.8655C6.92368 27.9048 7.05473 27.9379 7.18654 27.9641C7.31912 27.9903 7.45248 28.0096 7.5866 28.0235C7.7215 28.0366 7.85562 28.0428 7.99052 28.0428C8.12541 28.0428 8.26031 28.0366 8.39443 28.0235C8.52856 28.0096 8.66191 27.9903 8.7945 27.9641C8.92708 27.9379 9.05735 27.9048 9.18685 27.8655C9.31558 27.8262 9.44277 27.7807 9.56764 27.729C9.69252 27.6774 9.81431 27.6203 9.93302 27.5564C10.0517 27.4932 10.1674 27.4238 10.2799 27.349C10.3924 27.2735 10.5004 27.1933 10.6044 27.1077C10.7092 27.0222 10.8087 26.932 10.9043 26.8364C10.9999 26.7408 11.09 26.6406 11.1756 26.5365C11.2612 26.4325 11.3421 26.3238 11.4169 26.212C11.4916 26.0995 11.561 25.9839 11.6242 25.8652C11.6882 25.7457 11.746 25.6239 11.7977 25.4998C11.8493 25.3749 11.8948 25.2477 11.9333 25.119C11.9726 24.9895 12.0058 24.8592 12.032 24.7266C12.0582 24.594 12.0782 24.4607 12.0914 24.3266C12.1045 24.1924 12.1114 24.0575 12.1114 23.9227C12.1083 23.696 12.0883 23.4709 12.0505 23.2474H14.2589V26.2868C14.2589 27.0499 14.8471 27.0977 15.1847 26.962C15.2895 26.9181 15.3967 26.8811 15.5061 26.8503C15.6156 26.8194 15.7266 26.7948 15.8391 26.7778C15.9509 26.7609 16.0642 26.7508 16.1775 26.747C16.2916 26.7439 16.4049 26.7478 16.5182 26.7585C16.6316 26.7693 16.7433 26.7871 16.8543 26.8117C16.9653 26.8356 17.0748 26.8672 17.1819 26.905C17.2891 26.9428 17.3939 26.9875 17.4957 27.0384C17.5974 27.0892 17.6953 27.1463 17.7901 27.2087C17.8849 27.2719 17.9751 27.3405 18.0615 27.4145C18.1478 27.4885 18.2295 27.5679 18.3058 27.6519C18.3821 27.736 18.453 27.8246 18.5186 27.9171C18.5849 28.0104 18.6442 28.1067 18.6982 28.2069C18.7514 28.3072 18.7991 28.4104 18.84 28.5168C18.8809 28.6224 18.9155 28.7303 18.9433 28.8413C18.971 28.9516 18.9919 29.0626 19.0057 29.1759C19.0196 29.2884 19.0265 29.4017 19.0265 29.5158C19.0265 29.6291 19.0196 29.7424 19.0057 29.8558C18.9919 29.9683 18.971 30.0801 18.9433 30.1903C18.9155 30.3005 18.8809 30.4084 18.84 30.5148C18.7991 30.6204 18.7514 30.7237 18.6982 30.8239C18.6442 30.9241 18.5849 31.0213 18.5186 31.1138C18.453 31.207 18.3821 31.2949 18.3058 31.3789C18.2295 31.4637 18.1478 31.5423 18.0615 31.6163C17.9751 31.6903 17.8849 31.7589 17.7901 31.8222C17.6953 31.8854 17.5974 31.9416 17.4957 31.9925C17.3939 32.0434 17.2891 32.0881 17.1819 32.1259C17.0748 32.1636 16.9653 32.1952 16.8543 32.2199C16.7433 32.2446 16.6316 32.2623 16.5182 32.2723C16.4049 32.2831 16.2916 32.287 16.1775 32.2839C16.0642 32.2808 15.9509 32.2708 15.8391 32.253C15.7266 32.2361 15.6156 32.2122 15.5061 32.1814C15.3967 32.1505 15.2895 32.1128 15.1847 32.0688C15.0814 32.011 14.9712 31.984 14.8525 31.9887C14.7345 31.9925 14.6259 32.028 14.528 32.0935C14.4293 32.159 14.3553 32.2453 14.306 32.3533C14.2559 32.4604 14.2381 32.5729 14.252 32.6901V35.8721H1.75602V23.2474ZM26.519 35.8721H15.6102V33.575C15.7582 33.602 15.907 33.6213 16.0573 33.6321C16.2076 33.6429 16.3579 33.6452 16.5082 33.6398C16.6585 33.6344 16.8089 33.6205 16.9576 33.5982C17.1064 33.5758 17.2536 33.5457 17.3993 33.508C17.545 33.4694 17.6876 33.4232 17.8287 33.3692C17.969 33.3153 18.1062 33.2544 18.2403 33.185C18.3736 33.1164 18.5039 33.0401 18.6288 32.9568C18.7544 32.8736 18.8755 32.7842 18.9911 32.6878C19.1067 32.5914 19.2169 32.4889 19.321 32.3802C19.4258 32.2723 19.5237 32.1582 19.6155 32.0388C19.7072 31.92 19.7927 31.7959 19.8714 31.6672C19.9492 31.5385 20.0209 31.4067 20.0841 31.2702C20.1481 31.1338 20.2044 30.9943 20.2529 30.8517C20.3015 30.7091 20.3424 30.5642 20.3747 30.4177C20.4079 30.2705 20.4325 30.1225 20.4487 29.9729C20.4649 29.8226 20.4734 29.6731 20.4734 29.522C20.4734 29.3717 20.4649 29.2214 20.4487 29.0718C20.4325 28.9223 20.4079 28.7743 20.3747 28.627C20.3424 28.4798 20.3015 28.3357 20.2529 28.1931C20.2044 28.0505 20.1481 27.9109 20.0841 27.7745C20.0209 27.6381 19.9492 27.5055 19.8714 27.3775C19.7927 27.2488 19.7072 27.1247 19.6155 27.006C19.5237 26.8865 19.4258 26.7724 19.321 26.6645C19.2169 26.5558 19.1067 26.4533 18.9911 26.3569C18.8755 26.2606 18.7544 26.1712 18.6288 26.0879C18.5039 26.0047 18.3736 25.9284 18.2403 25.8598C18.1062 25.7904 17.969 25.7287 17.8287 25.6755C17.6876 25.6216 17.545 25.5753 17.3993 25.5368C17.2536 25.499 17.1064 25.4689 16.9576 25.4466C16.8089 25.4242 16.6585 25.4104 16.5082 25.405C16.3579 25.3996 16.2076 25.4019 16.0573 25.4127C15.907 25.4235 15.7582 25.442 15.6102 25.4697V23.2335H18.6296C18.6866 23.2382 18.7444 23.2351 18.8007 23.225C18.8577 23.2143 18.9125 23.1973 18.9649 23.1734C19.0173 23.1487 19.0659 23.1187 19.1106 23.0817C19.1545 23.0447 19.1938 23.003 19.2277 22.9568C19.2616 22.9098 19.2894 22.8597 19.3102 22.8057C19.331 22.7518 19.3449 22.6963 19.3518 22.6392C19.3588 22.5814 19.358 22.5244 19.3503 22.4673C19.3418 22.4103 19.3272 22.3548 19.3048 22.3016C19.1607 21.9555 19.0882 21.5955 19.089 21.2209C19.089 21.1184 19.0944 21.0166 19.1059 20.9149C19.1175 20.8139 19.1337 20.7129 19.1568 20.6135C19.1792 20.5133 19.2069 20.4154 19.2401 20.319C19.2732 20.2219 19.3117 20.1278 19.3557 20.0353C19.3996 19.9428 19.4482 19.8534 19.5021 19.7663C19.5561 19.6792 19.6139 19.596 19.6771 19.515C19.7403 19.4349 19.8074 19.3578 19.8791 19.2853C19.95 19.2121 20.0255 19.1435 20.1049 19.0787C20.1836 19.014 20.266 18.9539 20.3524 18.8984C20.4379 18.8429 20.5266 18.792 20.6175 18.7457C20.7093 18.7003 20.8025 18.6594 20.8989 18.6239C20.9945 18.5885 21.0916 18.5592 21.191 18.5345C21.2905 18.5099 21.3907 18.4906 21.4917 18.4767C21.5934 18.4636 21.6952 18.4559 21.7969 18.4536C21.8994 18.4513 22.0012 18.4544 22.1029 18.4636C22.2047 18.4729 22.3057 18.4875 22.4059 18.5075C22.5061 18.5276 22.6047 18.553 22.7019 18.5846C22.7998 18.6155 22.8946 18.6517 22.9879 18.6941C23.0811 18.7357 23.1721 18.782 23.26 18.8336C23.3486 18.8853 23.4334 18.9423 23.5151 19.0032C23.5968 19.0641 23.6754 19.1296 23.7502 19.1998C23.825 19.2691 23.8951 19.3431 23.9614 19.421C24.0285 19.4981 24.0901 19.5798 24.148 19.6638C24.205 19.7486 24.2582 19.8357 24.306 19.9259C24.3538 20.0161 24.3962 20.1093 24.4339 20.2042C24.4709 20.299 24.5033 20.3961 24.5303 20.4948C24.5573 20.5934 24.5789 20.6929 24.5943 20.7938C24.6105 20.8948 24.6205 20.9966 24.6251 21.0983C24.6297 21.2008 24.6282 21.3026 24.6212 21.4043C24.6151 21.5069 24.6027 21.6078 24.5842 21.7088C24.5665 21.809 24.5434 21.9085 24.5141 22.0064C24.4856 22.1043 24.4509 22.2006 24.4116 22.2947C24.2497 22.6862 24.2898 23.2335 25.0329 23.2335H28.4099V33.9735C28.4114 34.0984 28.3999 34.2218 28.376 34.3443C28.3529 34.4661 28.3174 34.5856 28.2704 34.7004C28.2226 34.8161 28.1648 34.9255 28.0962 35.0296C28.0268 35.1329 27.9489 35.2292 27.8611 35.3171C27.7724 35.4058 27.6768 35.4844 27.5735 35.5538C27.4702 35.6231 27.3608 35.6817 27.2452 35.7287C27.1303 35.7765 27.0116 35.8128 26.889 35.8367C26.7672 35.8605 26.6439 35.8721 26.519 35.8721Z" fill="#4F5858"/>
<path d="M36.2184 6.09701L24.0131 0.875389C23.8396 0.80293 23.6662 0.80293 23.4927 0.875389C23.3208 0.947076 23.1991 1.0681 23.1281 1.23999L22.1353 3.57716C21.9804 3.48697 21.82 3.40603 21.6558 3.33435C21.5402 3.28501 21.4231 3.24185 21.3036 3.20408C21.1841 3.16631 21.0631 3.1347 20.9397 3.10849C20.8172 3.08306 20.6938 3.06301 20.569 3.04991C20.4449 3.03603 20.32 3.0291 20.1943 3.02756C20.0687 3.02601 19.9438 3.03064 19.819 3.0422C19.6941 3.05299 19.57 3.06995 19.4474 3.09308C19.3241 3.1162 19.2023 3.14549 19.082 3.18095C18.9618 3.21564 18.8431 3.25649 18.7267 3.30351C18.6111 3.35053 18.497 3.40218 18.386 3.46076C18.275 3.51858 18.1671 3.58178 18.0622 3.65039C17.9566 3.71899 17.8556 3.79222 17.7577 3.87085C17.6606 3.94947 17.5666 4.03272 17.4772 4.11983C17.3877 4.2077 17.303 4.29943 17.222 4.39578C17.1418 4.49214 17.0663 4.59158 16.9954 4.69487C16.9245 4.79893 16.859 4.90531 16.7988 5.01553C16.7387 5.12499 16.684 5.23753 16.6354 5.35316C16.5861 5.46801 16.5429 5.58595 16.5051 5.70543C16.4674 5.82491 16.4358 5.94593 16.4103 6.06849C16.3841 6.19106 16.3648 6.31516 16.351 6.43926C16.3379 6.56414 16.3302 6.68901 16.3294 6.81466C16.3278 6.93953 16.3325 7.06518 16.344 7.18928C16.3548 7.31416 16.3718 7.43826 16.3949 7.5616C16.418 7.68493 16.4473 7.80672 16.4828 7.92697C16.5182 8.04722 16.5591 8.16516 16.6061 8.28156C16.6524 8.39795 16.7048 8.51126 16.7634 8.62226C16.8212 8.73403 16.8844 8.84195 16.953 8.94678C17.0216 9.05162 17.0948 9.1526 17.1735 9.25049C17.2521 9.34839 17.3353 9.44166 17.4232 9.53108C17.5111 9.62049 17.6028 9.70528 17.6992 9.78622C17.7947 9.86639 17.895 9.94193 17.9982 10.0128C18.1015 10.083 18.2087 10.1485 18.3189 10.2086C18.4284 10.2688 18.5409 10.3235 18.6565 10.3728C18.8253 10.4468 18.9988 10.507 19.1768 10.5547L18.1771 12.9058C18.1416 12.9883 18.1239 13.0738 18.1239 13.1632C18.1231 13.2527 18.1393 13.339 18.1725 13.4222C18.2064 13.5047 18.2542 13.5787 18.3174 13.6419C18.3798 13.7059 18.4523 13.7552 18.5347 13.7907L21.7029 15.1412C22.0875 15.2969 22.6487 15.2561 22.6417 14.5199C22.6425 14.1861 22.7103 13.8662 22.8445 13.561C22.9693 13.2542 23.1497 12.9836 23.3833 12.7493C23.6176 12.515 23.8882 12.3354 24.195 12.2097C24.4224 12.1188 24.6582 12.0633 24.9018 12.0425C25.1454 12.0216 25.3867 12.0363 25.6264 12.0864C25.8654 12.1373 26.0928 12.2213 26.3071 12.3392C26.5213 12.4564 26.7141 12.6028 26.8852 12.7778C27.0571 12.952 27.1989 13.1486 27.3122 13.3652C27.4255 13.5818 27.5049 13.8107 27.5504 14.0512C27.5959 14.291 27.6051 14.533 27.5797 14.7766C27.5535 15.0194 27.4926 15.2537 27.397 15.4788C27.2706 15.7848 27.0879 16.0531 26.8497 16.2828C26.7688 16.3614 26.7102 16.4547 26.6755 16.5626C26.6408 16.6698 26.6339 16.7792 26.6539 16.891C26.674 17.002 26.7195 17.1022 26.7904 17.1908C26.8613 17.2795 26.9484 17.3458 27.0525 17.3905L30.734 18.9576C30.8164 18.9931 30.902 19.0108 30.9914 19.0108C31.0816 19.0116 31.1672 18.9954 31.2504 18.9622C31.3337 18.9283 31.4069 18.8805 31.4709 18.8173C31.5341 18.7549 31.5834 18.6824 31.6189 18.5999L36.5769 6.96112C36.6085 6.88018 36.6239 6.79616 36.6231 6.70906C36.6223 6.62118 36.6054 6.53793 36.5715 6.45699C36.5383 6.37683 36.4913 6.30514 36.4304 6.2427C36.3687 6.18026 36.2986 6.1317 36.2184 6.09701ZM30.6391 17.4784L28.3968 16.5195C28.4916 16.3637 28.5725 16.2019 28.6396 16.0331C28.6889 15.9174 28.7321 15.8003 28.7699 15.6808C28.8076 15.5613 28.8392 15.4403 28.8647 15.3177C28.8909 15.1952 28.9102 15.0711 28.924 14.947C28.9371 14.8221 28.9448 14.6972 28.9456 14.5723C28.9472 14.4467 28.9425 14.3218 28.931 14.1969C28.9202 14.0721 28.9032 13.948 28.8801 13.8254C28.857 13.7021 28.8277 13.5803 28.7922 13.46C28.7575 13.3398 28.7167 13.2218 28.6697 13.1054C28.6226 12.989 28.5702 12.8757 28.5124 12.7647C28.4546 12.653 28.3914 12.545 28.3228 12.4402C28.2542 12.3354 28.181 12.2344 28.1023 12.1365C28.0237 12.0394 27.9405 11.9453 27.8526 11.8559C27.7655 11.7665 27.673 11.6817 27.5774 11.6008C27.481 11.5206 27.3816 11.4451 27.2783 11.3741C27.1742 11.304 27.0679 11.2385 26.9576 11.1783C26.8482 11.1182 26.7356 11.0635 26.62 11.0142C26.5052 10.9648 26.388 10.9217 26.2677 10.8839C26.1483 10.8469 26.0272 10.8153 25.9047 10.7891C25.7821 10.7636 25.6588 10.7444 25.5339 10.7305C25.4098 10.7166 25.2849 10.7097 25.1593 10.7081C25.0344 10.7074 24.9088 10.712 24.7839 10.7228C24.6598 10.7336 24.5357 10.7513 24.4123 10.7744C24.289 10.7976 24.1672 10.8268 24.047 10.8615C23.9267 10.897 23.8088 10.9378 23.6924 10.9849C23.576 11.0311 23.4627 11.0835 23.3517 11.1413C23.2407 11.1999 23.1328 11.2631 23.0279 11.3317C22.9231 11.4003 22.8213 11.4736 22.7242 11.5522C22.6263 11.6308 22.5331 11.7133 22.4429 11.8012C22.3535 11.8891 22.2687 11.9808 22.1885 12.0771C22.1076 12.1727 22.032 12.2729 21.9619 12.3762C21.891 12.4795 21.8254 12.5867 21.7653 12.6961C21.7052 12.8063 21.6505 12.9189 21.6011 13.0337C21.5287 13.2056 21.4678 13.3806 21.4192 13.561L19.6833 12.8179L20.764 10.278C20.7856 10.2271 20.801 10.174 20.8095 10.1192C20.818 10.0645 20.8195 10.0098 20.8149 9.95426C20.8095 9.89876 20.7979 9.84481 20.7802 9.79239C20.7617 9.73997 20.7378 9.69064 20.707 9.64439C20.6769 9.59814 20.6414 9.55574 20.6006 9.51874C20.5597 9.48097 20.515 9.4486 20.4665 9.42239C20.4179 9.39541 20.3662 9.37537 20.3131 9.36072C20.2591 9.34685 20.2044 9.33991 20.1489 9.33914C19.8128 9.34068 19.4906 9.27285 19.183 9.13641C18.9579 9.04083 18.7506 8.91441 18.5625 8.75793C18.3744 8.60068 18.2133 8.41953 18.0792 8.21449C17.9443 8.00945 17.8433 7.78976 17.7739 7.55466C17.7053 7.31956 17.6722 7.07906 17.6745 6.83393C17.6776 6.58881 17.7153 6.34985 17.7893 6.11628C17.8626 5.88195 17.969 5.66458 18.1077 5.46262C18.2457 5.25989 18.4106 5.0826 18.6018 4.9292C18.7937 4.77658 19.0026 4.65401 19.2308 4.56383C19.533 4.4351 19.8482 4.37112 20.1766 4.37112C20.5042 4.37112 20.8195 4.4351 21.1217 4.56383C21.4269 4.69178 21.6944 4.87447 21.9256 5.11035C21.9642 5.15043 22.0073 5.18589 22.0544 5.21518C22.1022 5.24447 22.1523 5.26837 22.2055 5.28533C22.2586 5.30228 22.3126 5.31231 22.3681 5.31616C22.4236 5.32001 22.4791 5.31693 22.5338 5.30691C22.5886 5.29689 22.6417 5.27993 22.6926 5.25681C22.7435 5.23368 22.7905 5.20516 22.8337 5.17047C22.8776 5.13501 22.9162 5.0957 22.9501 5.05176C22.984 5.00706 23.0117 4.95926 23.0333 4.90762L24.1079 2.38853L35.0707 7.05593L30.6391 17.4784Z" fill="#4F5858"/>
</g>
<defs>
<clipPath id="clip0_6314_5579">
<rect width="37" height="37" fill="white" transform="translate(0 0.483887)"/>
</clipPath>
</defs>
</svg>
