<svg width="38" height="38" viewBox="0 0 38 38" fill="none" xmlns="http://www.w3.org/2000/svg">
<g clip-path="url(#clip0_6314_5321)">
<path d="M25.7086 31.3812C21.3595 33.6991 16.1757 33.4832 12.0679 30.9241L14.8067 30.0199L6.60425 26.0347L9.47946 34.7027L10.8808 31.7882C13.403 33.4909 16.3314 34.3612 19.2798 34.3612C21.6941 34.3612 24.1222 33.7777 26.3507 32.5906C28.7742 31.2995 30.7961 29.3747 32.1967 27.0252L31.0242 26.323C29.7508 28.4574 27.9124 30.2064 25.7086 31.3812Z" fill="#4F5858"/>
<path d="M12.8641 7.17406C17.2132 4.85693 22.397 5.072 26.504 7.63116L23.766 8.53535L31.9685 12.5213L29.0932 3.85254L27.6903 6.76937C23.1039 3.67293 17.1723 3.3276 12.222 5.96539C9.79852 7.25654 7.77662 9.18131 6.37524 11.5308L7.54845 12.233C8.82187 10.0978 10.6603 8.34881 12.8641 7.17406Z" fill="#4F5858"/>
<path d="M19.2868 14.729C16.7792 14.729 14.7473 16.7655 14.7473 19.2777C14.7473 21.7898 16.7792 23.8264 19.2868 23.8264C21.7927 23.8264 23.8254 21.7898 23.8254 19.2777C23.8254 16.7655 21.7927 14.729 19.2868 14.729Z" fill="#C3002F"/>
<path d="M5.34697 23.3708C3.0946 23.3708 1.26233 21.5347 1.26233 19.2776C1.26233 17.0206 3.0946 15.1853 5.34697 15.1853C7.59858 15.1853 9.43085 17.0206 9.43085 19.2776C9.43085 21.5347 7.59858 23.3708 5.34697 23.3708ZM10.3404 19.2776C10.3404 16.5188 8.10039 14.2742 5.34697 14.2742C2.59356 14.2742 0.353516 16.5188 0.353516 19.2776C0.353516 22.0372 2.59356 24.2819 5.34697 24.2819C8.10039 24.2819 10.3404 22.0372 10.3404 19.2776Z" fill="#4F5858"/>
<path d="M7.53163 17.2934C7.32196 17.1562 7.03984 17.2155 6.9034 17.426L4.80057 20.6565L3.76688 19.2975C3.61425 19.0979 3.32905 19.0586 3.1294 19.2112C2.92975 19.3638 2.89121 19.6498 3.04384 19.8495L4.46757 21.7226C4.5539 21.8359 4.68803 21.9014 4.82909 21.9014C4.83448 21.9014 4.84065 21.9014 4.84605 21.9014C4.99328 21.896 5.12894 21.8189 5.20988 21.6948L7.66421 17.9239C7.80142 17.7127 7.74207 17.4306 7.53163 17.2934Z" fill="#A6A1A1"/>
<path d="M32.317 21.1354C31.2925 21.1354 30.4631 20.3037 30.4631 19.2777C30.4631 18.2517 31.2925 17.42 32.317 17.42C33.3406 17.42 34.1708 18.2517 34.1708 19.2777C34.1708 20.3037 33.3406 21.1354 32.317 21.1354ZM37.093 19.9368L36.3129 19.6824C36.3261 19.5498 36.333 19.4149 36.333 19.2777C36.333 19.1413 36.3261 19.0064 36.3129 18.873L37.093 18.6194C37.2364 18.5732 37.315 18.4174 37.2688 18.2748L36.9111 17.1733C36.8649 17.0299 36.7099 16.9506 36.5673 16.9976L35.7872 17.2512C35.6508 17.0176 35.4912 16.7979 35.3124 16.5975L35.7949 15.9315C35.8828 15.8097 35.8558 15.6378 35.7341 15.5492L34.799 14.8685C34.678 14.7807 34.5061 14.8076 34.4182 14.9294L33.9357 15.5947C33.6913 15.486 33.4347 15.4019 33.168 15.3441V14.5224C33.168 14.3713 33.0446 14.2488 32.8943 14.2488H31.7388C31.5885 14.2488 31.466 14.3713 31.466 14.5224V15.3441C31.1992 15.4019 30.9418 15.486 30.6982 15.5947L30.2157 14.9294C30.1278 14.8076 29.9559 14.7807 29.8341 14.8685L28.8991 15.5492C28.7781 15.6378 28.7503 15.8097 28.839 15.9315L29.3215 16.5975C29.1427 16.7979 28.9831 17.0176 28.8467 17.2512L28.0658 16.9976C27.9232 16.9506 27.7683 17.0299 27.722 17.1733L27.3651 18.2748C27.3181 18.4174 27.3975 18.5732 27.5401 18.6194L28.321 18.873C28.3078 19.0064 28.3009 19.1413 28.3009 19.2777C28.3009 19.4149 28.3078 19.5498 28.321 19.6824L27.5401 19.9368C27.3975 19.983 27.3181 20.1379 27.3651 20.2813L27.722 21.3828C27.7683 21.5262 27.9232 21.6048 28.0658 21.5586L28.8467 21.3042C28.9831 21.5386 29.1427 21.7575 29.3215 21.9587L28.839 22.6239C28.7503 22.7457 28.7781 22.9176 28.8991 23.0062L29.8341 23.6869C29.9559 23.7755 30.1278 23.7485 30.2157 23.6267L30.6982 22.9615C30.9418 23.0694 31.1992 23.1534 31.466 23.2113V24.0337C31.466 24.1841 31.5885 24.3074 31.7388 24.3074H32.8943C33.0446 24.3074 33.168 24.1841 33.168 24.0337V23.2113C33.4347 23.1534 33.6913 23.0694 33.9357 22.9615L34.4182 23.6267C34.5061 23.7485 34.678 23.7755 34.799 23.6869L35.7341 23.0062C35.8558 22.9176 35.8828 22.7457 35.7949 22.6239L35.3124 21.9587C35.4912 21.7575 35.6508 21.5386 35.7872 21.3042L36.5673 21.5586C36.7099 21.6048 36.8649 21.5262 36.9111 21.3828L37.2688 20.2813C37.315 20.1379 37.2364 19.983 37.093 19.9368Z" fill="#A6A1A1"/>
</g>
<defs>
<clipPath id="clip0_6314_5321">
<rect width="37" height="37" fill="white" transform="translate(0.333496 0.483887)"/>
</clipPath>
</defs>
</svg>
