<svg width="37" height="38" viewBox="0 0 37 38" fill="none" xmlns="http://www.w3.org/2000/svg">
<path d="M2.31637 33.7608C1.52781 33.7608 0.886475 33.1195 0.886475 32.3317C0.886475 32.0658 0.971266 31.7968 1.14702 31.5069L17.2127 5.06811C17.4047 4.75361 17.8286 4.22559 18.5208 4.22559C19.213 4.22559 19.637 4.75361 19.8282 5.06888L35.8946 31.5077C36.0696 31.7968 36.1544 32.0658 36.1544 32.3317C36.1544 33.1195 35.5131 33.7608 34.7253 33.7608H2.31637Z" fill="#DFDFDF"/>
<path d="M18.5209 4.70177C18.9795 4.70177 19.2817 5.08719 19.4204 5.31536L27.4533 18.5351L35.4854 31.7542C35.6157 31.9669 35.6781 32.1558 35.6781 32.3315C35.6781 32.8565 35.2503 33.2843 34.7253 33.2843H2.31643C1.79149 33.2843 1.36291 32.8565 1.36291 32.3315C1.36291 32.1558 1.42611 31.9669 1.55484 31.7542L9.5877 18.5351L17.6198 5.31536C17.7601 5.08719 18.0622 4.70177 18.5209 4.70177ZM18.5209 3.74902C17.767 3.74902 17.1727 4.21769 16.8058 4.82125C0.740073 31.2601 16.8058 4.82125 0.740073 31.2601C0.548135 31.5753 0.410156 31.9345 0.410156 32.3315C0.410156 33.3845 1.26347 34.237 2.31643 34.237C3.1497 34.237 33.8289 34.237 34.7253 34.237C35.7783 34.237 36.6316 33.3845 36.6316 32.3315C36.6316 31.9345 36.4929 31.5753 36.3017 31.2601C20.2352 4.82125 36.3017 31.2601 20.2352 4.82125C19.8683 4.21769 19.2748 3.74902 18.5209 3.74902Z" fill="#C3002F"/>
<path d="M20.427 28.5207C20.427 28.6464 20.4147 28.7697 20.39 28.893C20.3661 29.0156 20.3299 29.1343 20.2821 29.2499C20.2343 29.3656 20.175 29.4758 20.1056 29.5799C20.0362 29.6839 19.9568 29.7803 19.869 29.8682C19.7803 29.9568 19.684 30.0362 19.5799 30.1056C19.4758 30.1749 19.3656 30.2335 19.25 30.2813C19.1344 30.3291 19.0156 30.3653 18.8923 30.39C18.7698 30.4139 18.6456 30.4262 18.5208 30.4262C18.3951 30.4262 18.2718 30.4139 18.1485 30.39C18.0259 30.3653 17.9064 30.3291 17.7908 30.2813C17.6752 30.2335 17.5657 30.1749 17.4616 30.1056C17.3576 30.0362 17.2612 29.9568 17.1726 29.8682C17.0839 29.7803 17.0053 29.6839 16.9352 29.5799C16.8658 29.4758 16.8072 29.3656 16.7594 29.2499C16.7116 29.1343 16.6754 29.0156 16.6507 28.893C16.6261 28.7697 16.6145 28.6464 16.6145 28.5207C16.6145 28.3959 16.6261 28.2718 16.6507 28.1492C16.6754 28.0266 16.7116 27.9072 16.7594 27.7915C16.8072 27.6759 16.8658 27.5664 16.9352 27.4624C17.0053 27.3583 17.0839 27.262 17.1726 27.1733C17.2612 27.0854 17.3576 27.006 17.4616 26.9367C17.5657 26.8673 17.6752 26.8087 17.7908 26.7602C17.9064 26.7124 18.0259 26.6761 18.1485 26.6522C18.2718 26.6276 18.3951 26.6152 18.5208 26.6152C18.6456 26.6152 18.7698 26.6276 18.8923 26.6522C19.0156 26.6761 19.1344 26.7124 19.25 26.7602C19.3656 26.8087 19.4758 26.8673 19.5799 26.9367C19.684 27.006 19.7803 27.0854 19.869 27.1733C19.9568 27.262 20.0362 27.3583 20.1056 27.4624C20.175 27.5664 20.2343 27.6759 20.2821 27.7915C20.3299 27.9072 20.3661 28.0266 20.39 28.1492C20.4147 28.2718 20.427 28.3959 20.427 28.5207Z" fill="#4F5858"/>
<path d="M18.5208 13.2769C17.467 13.2769 16.6145 14.0639 16.6145 15.0359C16.6145 15.6857 17.5696 23.9013 17.5742 23.9352C17.6305 24.3722 18.0328 24.7099 18.5208 24.7099C19.0087 24.7099 19.4111 24.3722 19.4674 23.9352C19.472 23.9013 20.427 15.6857 20.427 15.0359C20.427 14.0639 19.5737 13.2769 18.5208 13.2769Z" fill="#4F5858"/>
</svg>
