<svg width="37" height="38" viewBox="0 0 37 38" fill="none" xmlns="http://www.w3.org/2000/svg">
<path d="M27.4602 36.6106H1.05612C0.745471 36.6106 0.493408 36.3585 0.493408 36.0479V1.94621C0.493408 1.63557 0.745471 1.38428 1.05612 1.38428H22.6032C22.7743 1.38428 22.927 1.45982 23.0303 1.58007L27.8572 6.40626L27.858 6.40472C27.9682 6.51494 28.023 6.65832 28.023 6.80247V17.9873C28.023 18.1453 27.9574 18.2887 27.8518 18.3912L24.1017 22.1374L22.8399 25.4512L26.1614 24.1863L27.0625 23.2867C27.2822 23.067 27.6383 23.067 27.858 23.2867C27.9682 23.3962 28.023 23.5403 28.023 23.6837V36.0479C28.023 36.3585 27.7709 36.6106 27.4602 36.6106ZM1.6196 35.4859H26.8975V25.0412L26.8837 25.055C26.8274 25.1144 26.7572 25.1629 26.6755 25.1938V25.193L22.0922 26.9382C21.9619 26.9944 21.8108 27.0014 21.669 26.9474C21.3784 26.8372 21.2327 26.5119 21.3429 26.2221H21.3437L23.0842 21.6495C23.1112 21.5678 23.1567 21.4915 23.2214 21.4267L26.8975 17.7545V7.03294L22.3727 2.50892H1.6196V35.4859Z" fill="#C3002F"/>
<path d="M23.0439 1.59402L27.8401 6.38938L27.8408 6.38784C28.0605 6.60752 28.0605 6.96365 27.8408 7.18334C27.7306 7.29279 27.5865 7.34752 27.4431 7.34752H22.6169C22.3063 7.34752 22.0542 7.09623 22.0542 6.78559V1.96017C22.0542 1.64952 22.3063 1.39746 22.6169 1.39746C22.7873 1.39746 22.9407 1.47377 23.0439 1.59402ZM26.0872 6.22288L23.1796 3.31606V6.22288H26.0872Z" fill="#C3002F"/>
<path d="M7.73532 15.498C7.42467 15.498 7.17261 15.7501 7.17261 16.0608C7.17261 16.3714 7.42467 16.6227 7.73532 16.6227H20.7817C21.0923 16.6227 21.3444 16.3714 21.3444 16.0608C21.3444 15.7501 21.0923 15.498 20.7817 15.498H7.73532Z" fill="#C3002F"/>
<path d="M7.73532 21.3711C7.42467 21.3711 7.17261 21.6232 7.17261 21.9338C7.17261 22.2437 7.42467 22.4957 7.73532 22.4957H20.7817C21.0923 22.4957 21.3444 22.2437 21.3444 21.9338C21.3444 21.6232 21.0923 21.3711 20.7817 21.3711H7.73532Z" fill="#C3002F"/>
<path d="M7.73532 27.2441C7.42467 27.2441 7.17261 27.4954 7.17261 27.8061C7.17261 28.1167 7.42467 28.3688 7.73532 28.3688H20.7817C21.0923 28.3688 21.3444 28.1167 21.3444 27.8061C21.3444 27.4954 21.0923 27.2441 20.7817 27.2441H7.73532Z" fill="#C3002F"/>
<path d="M33.4997 11.9671L36.3433 14.8084C36.5629 15.0281 36.5629 15.3842 36.3433 15.6039L36.3363 15.6101L26.8728 25.0659C26.808 25.1306 26.7317 25.1761 26.65 25.2031L22.069 26.9467V26.9475C21.7784 27.0585 21.4538 26.9128 21.3428 26.6222C21.2889 26.4804 21.2958 26.3293 21.3521 26.1998L23.0942 21.6249L23.0934 21.6241C23.1242 21.5424 23.1728 21.4723 23.2322 21.416L32.6964 11.9602C32.9161 11.7405 33.273 11.7405 33.4927 11.9602L33.4997 11.9671ZM35.15 15.2062L33.095 13.1527L24.1017 22.1375L22.8398 25.4513L26.1613 24.1864L35.15 15.2062Z" fill="#C3002F"/>
<path d="M24.0177 21.4265C23.798 21.2068 23.4411 21.2068 23.2214 21.4265C23.0017 21.6462 23.0017 22.0023 23.2214 22.2212L26.0727 25.0702C26.2924 25.2899 26.6485 25.2899 26.8682 25.0702C27.0879 24.8505 27.0879 24.4944 26.8682 24.2747L24.0177 21.4265Z" fill="#C3002F"/>
<path d="M31.9481 13.5031C31.7284 13.2835 31.3722 13.2835 31.1526 13.5031C30.9329 13.7221 30.9329 14.0782 31.1526 14.2979L34.0039 17.1461C34.2236 17.3658 34.5797 17.3658 34.7994 17.1461C35.0191 16.9272 35.0191 16.5711 34.7994 16.3514L31.9481 13.5031Z" fill="#C3002F"/>
<path d="M10.1263 12.942C11.4807 12.2444 12.5475 11.277 13.3399 9.972V6.28588C12.677 6.10396 12.0403 5.47265 11.8561 4.80356H8.39736C8.19925 5.52275 7.63269 6.08777 6.9135 6.28588V9.972C7.70592 11.277 8.77198 12.2444 10.1263 12.942ZM10.4162 14.0489C10.2589 14.143 10.06 14.1584 9.88275 14.0736L9.88429 14.0721C8.17382 13.2511 6.85029 12.0779 5.88598 10.4414C5.82432 10.3512 5.78809 10.2418 5.78809 10.1239V5.79948C5.78809 5.48883 6.04015 5.23754 6.35079 5.23754C6.90271 5.23754 7.34748 4.79354 7.34748 4.24163C7.34748 3.93098 7.59954 3.67969 7.91019 3.67969H12.3433C12.6539 3.67969 12.906 3.93098 12.906 4.24163C12.906 4.79354 13.35 5.23754 13.9026 5.23754C14.2133 5.23754 14.4654 5.48883 14.4654 5.79948V10.1239C14.4654 10.2202 14.4407 10.3181 14.3883 10.4075L14.3875 10.4068C13.4309 12.044 12.1174 13.2234 10.4162 14.0489Z" fill="#C3002F"/>
<path d="M9.02643 8.62935C8.80674 8.40966 8.45062 8.40966 8.23093 8.62935C8.01124 8.84827 8.01124 9.20439 8.23093 9.42408L9.14822 10.3406C9.36791 10.5603 9.72403 10.5603 9.94372 10.3406L9.95066 10.3337L12.0227 8.26321C12.2423 8.04429 12.2423 7.68816 12.0227 7.46848C11.803 7.24879 11.4461 7.24879 11.2264 7.46848L9.54597 9.14812L9.02643 8.62935Z" fill="#C3002F"/>
</svg>
