<svg width="38" height="38" viewBox="0 0 38 38" fill="none" xmlns="http://www.w3.org/2000/svg">
<path fill-rule="evenodd" clip-rule="evenodd" d="M17.133 5.23934C17.133 4.89138 17.3391 4.77539 17.6483 4.77539H21.8739C22.1831 4.77539 22.3892 5.00737 22.3892 5.35533C22.6984 10.8067 23.1107 16.2582 23.4199 21.5936L15.9993 23.1014C15.9993 22.2895 16.1023 21.4776 16.1023 20.6657C16.4115 16.0262 16.8238 9.87884 17.133 5.23934Z" fill="#606A7E"/>
<path fill-rule="evenodd" clip-rule="evenodd" d="M5.58969 1.06382C5.58969 0.715862 5.89888 0.483887 6.10501 0.483887H10.3306C10.6398 0.483887 10.846 0.715862 10.846 1.06382C11.1551 7.90708 11.4643 14.7503 11.6705 21.5936L4.66211 23.1014C4.9713 16.2582 5.28049 7.90708 5.58969 1.06382Z" fill="#3E576F"/>
<path fill-rule="evenodd" clip-rule="evenodd" d="M17.133 5.23934C17.133 4.89138 17.3391 4.77539 17.6483 4.77539H21.8739C22.1831 4.77539 22.3892 5.00737 22.3892 5.35533C22.6984 10.8067 23.1107 16.2582 23.4199 21.5936L15.9993 23.1014C15.9993 22.2895 16.1023 21.4776 16.1023 20.6657C16.4115 16.0262 16.8238 9.87884 17.133 5.23934Z" fill="#1E252B"/>
<path fill-rule="evenodd" clip-rule="evenodd" d="M5.58969 1.06382C5.58969 0.715862 5.89888 0.483887 6.10501 0.483887H10.3306C10.6398 0.483887 10.846 0.715862 10.846 1.06382C11.1551 7.90708 11.4643 14.7503 11.6705 21.5936L4.66211 23.1014C4.9713 16.2582 5.28049 7.90708 5.58969 1.06382Z" fill="#C32032"/>
<path fill-rule="evenodd" clip-rule="evenodd" d="M28.264 11.2706C28.264 10.9226 28.4701 10.6907 28.7793 10.6907H33.0049C33.3141 10.6907 33.5203 10.9226 33.5203 11.2706C33.8295 18.1139 34.1387 24.9571 34.3448 31.8004L27.3364 33.3082C27.6456 26.465 27.9548 18.1139 28.264 11.2706Z" fill="#C32032"/>
<path fill-rule="evenodd" clip-rule="evenodd" d="M0.848877 36.904C0.848877 32.6124 0.848877 28.3209 0.848877 24.2613C0.848877 23.7974 1.15807 23.4494 1.57033 23.3334L13.0104 20.8977V23.3334L24.6567 20.8977V23.3334L36.3029 20.8977C36.6121 20.8977 36.8182 21.1297 36.8182 21.4776C36.8182 26.1171 36.8182 32.3805 36.8182 36.904C24.8628 36.904 12.8043 36.904 0.848877 36.904Z" fill="white"/>
<path d="M37.3335 37.484H0.333496V24.2615C0.333496 23.5655 0.745752 22.8696 1.4672 22.7536L13.5257 20.2019V22.6376L25.1719 20.2019V22.6376L36.1998 20.3179C36.4059 20.3179 36.7151 20.3179 36.9212 20.5499C37.1274 20.7818 37.3335 21.1298 37.3335 21.4778V37.484ZM1.36414 36.3242H36.3029V21.4778L24.1413 24.0295V21.5938L12.4951 24.0295V21.5938L1.67333 23.9135C1.57026 23.9135 1.4672 24.0295 1.4672 24.2615V36.3242H1.36414Z" fill="#505958"/>
</svg>
