<svg width="145" height="23" viewBox="0 0 145 23" fill="none" xmlns="http://www.w3.org/2000/svg">
<path id="Vector" fill-rule="evenodd" clip-rule="evenodd" d="M35.191 12.8795C35.191 9.33967 34.7661 6.53402 27.7419 6.53402C21.8792 6.53402 19.9203 8.64096 19.962 12.1129H25.2108C25.3519 10.8381 26.5527 10.2736 27.3733 10.2736C27.9964 10.2736 29.2982 10.4155 29.299 11.4913C29.3021 14.7165 19.1561 11.7404 19.1561 18.6011C19.1561 21.6883 22.3589 22.9407 24.0316 22.8991C26.2396 22.8451 27.9393 22.4464 29.6105 20.8885L30.2522 22.4749H35.4594C35.2126 21.908 35.191 12.8795 35.191 12.8795ZM26.5751 19.5111C25.4144 19.5111 24.9139 18.7191 24.9216 17.9826C24.9355 16.7232 27.5422 16.7687 29.4679 15.834C29.6106 17.8715 28.6427 19.5111 26.5751 19.5111ZM139.181 16.2482C139.01 17.4088 138.416 18.8502 136.886 18.8502C135.032 18.8502 134.018 17.0456 134.018 14.8083C134.018 13.053 134.677 10.697 136.886 10.697C137.539 10.697 138.048 10.8952 138.415 11.2916C138.784 11.6602 139.01 12.1692 139.039 12.8209H144.703C144.278 8.43119 140.851 6.73144 136.886 6.73144C131.986 6.73144 128.356 9.64738 128.356 14.7165C128.356 19.7294 132.099 22.8142 136.886 22.8142C140.992 22.8142 144.306 20.7505 144.817 16.2474L139.181 16.2482ZM122.053 22.4872H127.741V7.23735H122.053V22.4872ZM122.053 4.90445H127.741V1.00908H122.053V4.90445ZM95.3051 6.57489C90.2923 6.57489 86.8427 9.5826 86.8427 14.7374C86.8427 19.8073 90.5753 22.8142 95.3337 22.8142C100.092 22.8142 103.829 19.8859 103.829 14.4482C103.829 9.83247 100.544 6.57489 95.3051 6.57489ZM95.3337 18.8494C93.8321 18.8494 92.6707 17.2384 92.6707 14.4343C92.6707 12.7638 93.3802 10.6962 95.3892 10.6962C96.9193 10.6114 97.9997 12.3713 97.9997 14.5523C97.9997 17.3571 96.9193 18.8494 95.3337 18.8494ZM76.5309 10.9361C76.5447 10.1996 77.3445 9.85792 78.364 9.85792C78.8175 9.85792 79.4545 9.97052 79.7661 10.2266C79.9165 10.3492 80.272 10.788 80.3321 11.3032H85.6851C85.5393 7.34147 81.654 6.51473 78.182 6.51473C75.0956 6.51473 71.0908 7.73478 71.0838 11.5299C71.0738 17.7559 80.5974 15.4831 80.5974 17.8615C80.5974 18.9104 79.8123 19.3045 78.4072 19.3045C77.8396 19.3045 77.2296 18.9219 76.8617 18.6389C76.4638 18.3273 76.301 17.9633 76.2378 17.2785H70.9488C71.0522 21.4345 74.8442 22.9839 78.2429 22.9839C84.5452 22.9839 86.363 20.2438 86.3861 17.1566C86.4285 11.2037 76.4915 13.0739 76.5309 10.9361ZM70.0828 12.8795C70.0828 9.33967 69.6578 6.53402 62.6337 6.53402C56.771 6.53402 54.8121 8.64096 54.8537 12.1129H60.1026C60.2445 10.8381 61.4445 10.2736 62.2666 10.2736C62.8897 10.2736 64.1908 10.4155 64.1923 11.4913C64.1946 14.7165 54.0486 11.7404 54.0486 18.6011C54.0486 21.6883 57.2514 22.9407 58.9242 22.8991C61.1321 22.8451 62.8334 22.4464 64.5039 20.8885L65.1455 22.4749H70.3527C70.1036 21.908 70.0828 12.8795 70.0828 12.8795ZM61.4661 19.5111C60.3054 19.5111 59.8049 18.7191 59.8126 17.9826C59.8265 16.7232 62.4339 16.7687 64.3596 15.834C64.5008 17.8715 63.5337 19.5111 61.4661 19.5111ZM10.6396 0.483887H0.533691V22.471H7.06043V15.6512H10.8656C16.7283 15.6512 19.5864 12.5001 19.5864 8.11036C19.5872 3.91885 16.5023 0.483887 10.6396 0.483887ZM10.3388 10.8158H7.0612V5.85613H9.4612C10.8764 5.85613 13.0288 6.24096 13.0288 8.13813C13.0296 9.89417 11.8967 10.8158 10.3388 10.8158ZM115.281 6.57412C113.044 6.57412 112.1 6.94584 110.018 8.84687L110.034 7.15946L104.637 7.15484V22.4849H110.034V14.4343C110.034 12.5363 111.01 11.3757 112.823 11.3757C114.494 11.3757 114.892 12.2518 114.892 13.7248V22.4857H120.781V13.1032C120.78 9.02502 119.189 6.57412 115.281 6.57412ZM47.5766 6.57412C45.3393 6.57412 44.3946 6.94584 42.3139 8.84687L42.3278 7.15946L36.9324 7.15484V22.4849H42.617V14.4343C42.617 12.5363 43.3666 11.162 45.1797 11.162C46.8501 11.162 47.1856 12.2518 47.1856 13.7248V22.4857H53.0769V13.1032C53.0753 9.02502 51.4843 6.57412 47.5766 6.57412Z" fill="#CAC8C8"/>
</svg>
