<svg width="176" height="19" viewBox="0 0 176 19" fill="none" xmlns="http://www.w3.org/2000/svg">
<path id="Vector" d="M175.301 1.46206H170.11L163.893 8.39565V1.46206H159.521L159.555 18.5399H163.893V12.0503L169.802 18.5399H175.301L167.343 10.1034L175.301 1.46206ZM152.519 8.49812L148.557 8.05409C146.235 7.78085 145.654 7.23436 145.654 6.41462C145.654 5.52658 146.85 4.741 149.172 4.741C151.426 4.741 152.588 5.56074 152.793 6.82449H157.062C156.857 3.204 153.817 0.983887 149.411 0.983887C144.151 0.983887 141.521 3.06738 141.521 6.75618C141.521 9.76187 143.263 11.1623 146.918 11.5721L150.948 11.982C152.485 12.1528 153.202 12.7676 153.202 13.519C153.202 14.407 152.178 15.1926 149.684 15.1926C146.815 15.1926 145.654 14.4753 145.483 13.0067H141.282C141.487 16.9345 144.049 18.9497 149.514 18.9497C154.535 18.9497 157.335 16.7638 157.335 13.4507C157.335 10.5816 155.662 8.83967 152.519 8.49812ZM125.605 18.5399H139.369V14.8511H129.977V11.7429H137.525V8.01994H129.977V5.15087H139.369V1.46206H125.605V18.5399ZM115.358 1.46206H107.366V18.5399H115.358C121.472 18.5399 123.18 16.2514 123.18 9.86434C123.146 3.88711 121.54 1.46206 115.358 1.46206ZM115.153 14.8511H111.703V5.15087H115.153C117.886 5.15087 118.705 5.90229 118.705 9.86434C118.705 13.4848 117.783 14.8511 115.153 14.8511ZM95.5137 0.983887C89.2974 0.983887 86.0868 4.80931 86.0868 9.96681C86.0868 15.1243 89.2974 18.9839 95.5137 18.9839C101.764 18.9839 104.975 15.1243 104.975 9.96681C104.975 4.80931 101.764 0.983887 95.5137 0.983887ZM95.5137 15.1243C92.3031 15.1243 90.527 13.1433 90.527 9.96681C90.527 6.82449 92.3031 4.84347 95.5137 4.84347C98.7585 4.84347 100.5 6.82449 100.5 9.96681C100.535 13.1433 98.7585 15.1243 95.5137 15.1243ZM70.0336 5.15087H75.5327V18.5399H79.9046V5.15087H85.4036V1.46206H70.0678V5.15087H70.0336ZM63.6807 12.0161C63.6807 14.2363 62.3145 15.1243 59.9919 15.1243C57.7376 15.1243 56.2689 14.1679 56.2689 12.0161V1.46206H51.897V12.4943C51.897 17.4127 56.3031 18.9497 59.9919 18.9497C63.6807 18.9497 68.0526 17.4127 68.0526 12.4943V1.46206H63.6807V12.0161ZM39.157 1.46206L32.5991 18.5399H37.1076L38.2348 15.3292H45.5441L46.6712 18.5399H51.3164L44.6902 1.46206H39.157ZM39.5668 11.7087L41.9577 5.01425L44.3145 11.7087H39.5668ZM0.18545 18.5399L15.4872 9.01045H23.4113C23.6503 9.01045 23.8894 9.21538 23.8894 9.48863C23.8894 9.6594 23.8211 9.79603 23.6845 9.86434L16.1703 14.3729C15.6921 14.6803 15.5213 15.2609 15.5213 15.7049V18.5399H25.0849V2.04271C25.0849 1.73531 24.8116 1.46206 24.5042 1.46206H24.4701H15.3164L0.0488281 10.9232V18.5399H0.18545Z" fill="#CAC8C8"/>
</svg>
