<svg width="135" height="22" viewBox="0 0 135 22" fill="none" xmlns="http://www.w3.org/2000/svg">
<g id="samsung logo" clip-path="url(#clip0_2342_8842)">
<path id="Vector" d="M5.65805 6.47933C5.56565 6.09083 5.58876 5.68133 5.64125 5.47133C5.76725 4.86233 6.18726 4.17983 7.39476 4.17983C8.52876 4.17983 9.20076 4.87598 9.20076 5.92283V7.11248H13.9888V5.74748C13.9888 1.56848 10.2193 0.896484 7.49975 0.896484C4.08726 0.896484 1.29425 2.03048 0.790255 5.15948C0.654805 6.02783 0.623305 6.78383 0.833305 7.75298C1.6733 11.68 8.49831 12.8213 9.48531 15.3046C9.67431 15.7666 9.62496 16.363 9.52731 16.7242C9.37296 17.371 8.93931 18.0262 7.65516 18.0262C6.45186 18.0262 5.73365 17.3248 5.73365 16.2748L5.72945 14.4163H0.549805V15.8863C0.549805 20.1923 3.92451 21.4838 7.53756 21.4838C11.0099 21.4838 13.8586 20.3047 14.3279 17.0896C14.5589 15.4306 14.3825 14.3491 14.3069 13.9427C13.4942 9.90654 6.20615 8.71373 5.65805 6.46148V6.48248V6.47933ZM128.174 9.95694V12.7604H130.144V15.5429C130.148 15.7949 130.133 16.0574 130.094 16.2727C130.014 16.7935 129.52 17.6755 128.128 17.6755C126.736 17.6755 126.253 16.7935 126.171 16.2727C126.129 16.0585 126.118 15.7897 126.118 15.5419V6.76283C126.118 6.45413 126.139 6.11184 126.202 5.85563C126.286 5.39048 126.706 4.46438 128.113 4.46438C129.583 4.46438 129.94 5.44088 130.024 5.86088C130.066 6.14018 130.066 6.60428 130.066 6.60428V7.67528H134.902V7.04528C134.902 7.04528 134.923 6.39428 134.866 5.78528C134.503 2.18903 131.532 1.03928 128.125 1.03928C124.712 1.03928 121.802 2.19428 121.382 5.78528C121.34 6.12128 121.283 6.70928 121.283 7.06313V15.1429C121.283 15.4925 121.296 15.7655 121.361 16.4102C121.676 19.9109 124.719 21.1562 128.12 21.1562C131.532 21.1562 134.55 19.9109 134.871 16.4102C134.926 15.7592 134.934 15.4862 134.94 15.1397V9.97583H128.157L128.165 9.96219L128.174 9.95694ZM94.8083 1.52753H89.9395V15.7477C89.9521 15.9913 89.9395 16.2727 89.9017 16.4743C89.7967 16.9468 89.3935 17.8708 88.0537 17.8708C86.7307 17.8708 86.317 16.9678 86.2267 16.4848C86.1742 16.2853 86.17 16.0018 86.1742 15.7603V1.54433H81.3158V15.3235C81.3116 15.6805 81.3368 16.405 81.3578 16.594C81.6938 20.1808 84.5204 21.3484 88.0568 21.3484C91.5953 21.3484 94.4219 20.1829 94.7642 16.5971C94.7852 16.4081 94.8272 15.6794 94.8062 15.3203V1.53383L94.8083 1.52333V1.52753ZM50.155 1.52753L47.7263 16.5457L45.305 1.52753H37.4636L37.0499 20.7457H41.8526L41.9828 2.95658L45.2872 20.7457H50.1382L53.4457 2.95658L53.579 20.7457H58.3933L57.9533 1.52753H50.134H50.1508H50.155ZM21.1246 1.52753L17.563 20.7457H22.7542L25.439 2.95658L28.0556 20.7457H33.2111L29.6663 1.52753H21.1246ZM111.789 16.9993L107.268 1.52333H100.135V20.5388H104.847L104.574 4.57883L109.436 20.5441H116.282V1.52858H111.535L111.797 16.9993H111.789ZM68.1593 6.52133C68.069 6.14333 68.0963 5.74433 68.1383 5.53433C68.2769 4.91693 68.6906 4.24703 69.8771 4.24703C70.9901 4.24703 71.6369 4.93478 71.6369 5.97428V7.15028H76.3777V5.80943C76.3777 1.67243 72.6649 1.02143 69.9779 1.02143C66.5969 1.02143 63.8281 2.15543 63.3262 5.26343C63.1792 6.11813 63.1582 6.85943 63.3682 7.82543C64.1872 11.7104 70.9492 12.8444 71.9383 15.3035C72.1063 15.7655 72.0643 16.3598 71.9593 16.7105C71.8123 17.351 71.3608 17.9936 70.1008 17.9936C68.9038 17.9936 68.1898 17.3006 68.1898 16.2664V14.4184H63.0868V15.8842C63.0868 20.1367 66.4048 21.4177 69.9958 21.4177C73.4188 21.4177 76.2538 20.2417 76.7158 17.0707C76.9258 15.4327 76.762 14.3617 76.6738 13.9627C75.8758 9.97268 68.6728 8.77568 68.1268 6.54968L68.1478 6.51188L68.1593 6.52133Z" fill="#CAC8C8"/>
</g>
<defs>
<clipPath id="clip0_2342_8842">
<rect width="134.4" height="21" fill="white" transform="translate(0.549805 0.483887)"/>
</clipPath>
</defs>
</svg>
