<svg width="87" height="25" viewBox="0 0 87 25" fill="none" xmlns="http://www.w3.org/2000/svg">
<path id="Vector" fill-rule="evenodd" clip-rule="evenodd" d="M68.0055 10.0964C68.7969 9.94371 74.2811 10.0964 75.5446 10.0964C76.7677 10.0064 77.9971 10.053 79.21 10.2353C84.5554 11.6237 84.5137 19.9542 78.724 20.9955C77.8632 21.1482 72.4762 20.9955 71.1711 20.9955C69.9473 21.0773 68.7183 21.0261 67.5056 20.8428C66.7749 20.6276 66.0963 20.2645 65.5119 19.7759C64.9275 19.2873 64.4498 18.6837 64.1086 18.0027C63.7675 17.3216 63.57 16.5776 63.5286 15.817C63.4872 15.0564 63.6027 14.2954 63.868 13.5814C64.1736 12.6717 64.7241 11.8638 65.4589 11.2466C66.1937 10.6293 67.0844 10.2266 68.0332 10.0826L68.0055 10.0964ZM86.4853 16.5665C86.673 15.1008 86.4934 13.6115 85.9626 12.2324C85.4318 10.8534 84.5666 9.62798 83.4447 8.66637C82.3808 7.76438 81.1132 7.13532 79.7515 6.83366C77.9929 6.6106 76.2174 6.55018 74.4477 6.65316H68.8941C67.3498 6.61727 65.826 7.01145 64.4928 7.79166C63.2724 8.53179 62.2439 9.5496 61.4911 10.7623C60.7384 11.9749 60.2825 13.3482 60.1608 14.7703C60.039 16.1924 60.2547 17.6232 60.7903 18.9462C61.326 20.2692 62.1664 21.4471 63.2432 22.3839C66.02 24.7581 68.7136 24.411 72.2263 24.411H77.7799C79.9524 24.4408 82.056 23.6494 83.6701 22.1949C85.2841 20.7405 86.2896 18.7303 86.4853 16.5665ZM34.1975 9.05512C34.5499 9.87617 35.0174 10.6429 35.586 11.3321L39.9595 17.7466C40.7647 19.0101 41.8755 20.8289 42.8196 22.0368C43.3363 22.8159 44.0441 23.4496 44.8754 23.8774C45.7066 24.3052 46.6337 24.5128 47.568 24.4804C48.4629 24.4035 49.3258 24.1107 50.0827 23.627C50.8396 23.1434 51.4679 22.4834 51.9137 21.7036C52.8579 20.3152 53.8159 18.9268 54.8155 17.4273L59.9249 9.8604C60.1497 9.56942 60.2811 9.21713 60.3016 8.84998C60.3222 8.48283 60.231 8.11808 60.04 7.80383C59.849 7.48958 59.5673 7.24059 59.232 7.0897C58.8966 6.93881 58.5234 6.8931 58.1616 6.95861C57.7513 7.10679 57.3764 7.3389 57.0608 7.64012C56.7453 7.94133 56.496 8.30504 56.3289 8.70802L53.4271 13.0121C52.4691 14.4005 51.4972 15.8861 50.5253 17.2884C50.0255 18.0104 49.5812 18.6768 49.1369 19.4266C48.6926 20.1763 48.0817 21.0927 46.9849 20.815C46.1982 20.4303 45.5663 19.7887 45.1938 18.9962L43.8054 16.858C42.8335 15.4696 41.9033 14.0812 40.8897 12.5817C39.8762 11.0822 39.0015 9.80487 37.9879 8.30538C37.8266 7.86148 37.522 7.48398 37.1223 7.23254C36.7225 6.98109 36.2503 6.87005 35.7803 6.91696C35.5324 6.94518 35.2929 7.0241 35.0768 7.14883C34.8607 7.27355 34.6726 7.44141 34.5241 7.64196C34.3757 7.84251 34.2701 8.07147 34.2139 8.31458C34.1577 8.55769 34.1521 8.80977 34.1975 9.05512ZM0.222999 9.01347C0.56052 9.84211 1.02933 10.611 1.61142 11.2905L7.42888 19.8431C8.81729 22.009 10.2057 24.5915 13.5796 24.4804C16.6341 24.3694 17.8975 21.8147 19.4526 19.5099L23.8261 13.0954C24.2842 12.4012 24.7841 11.707 25.2839 10.9573C25.9417 10.2955 26.3365 9.41713 26.3946 8.48587C26.361 8.24444 26.2791 8.01223 26.1539 7.80306C26.0287 7.59389 25.8628 7.41202 25.6659 7.26826C25.469 7.12449 25.2453 7.02177 25.0079 6.96619C24.7706 6.91061 24.5245 6.90332 24.2842 6.94473C23.868 7.07676 23.4864 7.29974 23.167 7.59751C22.8476 7.89529 22.5985 8.26039 22.4377 8.66637C21.4241 10.152 20.5216 11.4571 19.522 13.0121C18.5223 14.5671 17.606 15.7889 16.6063 17.1774C16.0926 17.9132 15.6622 18.5658 15.2179 19.3155C15.0539 19.7439 14.7651 20.1132 14.3888 20.3756C14.0126 20.638 13.5662 20.7814 13.1075 20.7872C12.2894 20.4333 11.635 19.7838 11.2748 18.9684C8.87283 15.539 6.37368 11.7764 3.99949 8.26372C3.83484 7.82503 3.53152 7.45206 3.13558 7.20147C2.73965 6.95088 2.27274 6.83636 1.80579 6.87531C1.55787 6.90352 1.31841 6.98245 1.1023 7.10717C0.886183 7.2319 0.698046 7.39976 0.549586 7.60031C0.401126 7.80086 0.295519 8.02981 0.239335 8.27293C0.18315 8.51604 0.17759 8.76812 0.222999 9.01347ZM29.9351 6.95861C28.1579 7.33349 28.4495 8.84686 28.4495 10.7351V21.3426C28.3217 22.1391 28.4329 22.9556 28.7688 23.689C28.9609 23.9705 29.2282 24.1924 29.5403 24.3293C29.8523 24.4663 30.1966 24.5128 30.5338 24.4636C30.871 24.4144 31.1876 24.2714 31.4475 24.051C31.7074 23.8306 31.9002 23.5416 32.0038 23.217C32.1705 22.6616 32.0871 16.2749 32.0871 15.3446V10.027C32.2116 9.2363 32.1055 8.42649 31.7817 7.69447C31.5879 7.40177 31.3117 7.17304 30.988 7.03714C30.6643 6.90124 30.3076 6.86425 29.9629 6.93085L29.9351 6.95861ZM30.0323 0.516364C29.7725 0.687061 29.5504 0.90914 29.3797 1.16892L27.9913 2.47403C27.1583 3.2932 27.8525 3.66807 28.9216 4.68161L29.5741 5.33417C30.421 6.1811 30.7404 5.55631 31.8511 4.44558C33.4061 2.95998 33.3506 3.2932 30.9486 0.891237C30.8613 0.73386 30.7229 0.610959 30.5563 0.542809C30.3897 0.474659 30.2049 0.465331 30.0323 0.516364Z" fill="#CAC8C8"/>
</svg>
