<svg width="128" height="17" viewBox="0 0 128 17" fill="none" xmlns="http://www.w3.org/2000/svg">
<path id="Vector" d="M108.717 7.0145V16.9644H111.901V10.3348H123.491V16.9644H126.674V7.03176L108.717 7.0145ZM111.547 3.79596H123.792C125.493 3.45721 126.757 1.95329 127.114 0.498409H108.225C108.579 1.95375 109.856 3.45721 111.547 3.79596ZM99.0731 16.9707C100.679 16.2887 101.543 15.109 101.874 13.7286H87.5894L87.5985 0.506585L84.3968 0.515662V16.9707H99.0722M60.588 3.75146H71.8967C73.6016 3.25515 75.0327 1.9533 75.3862 0.511131H57.4221V10.2353H72.1251V13.6477L60.5916 13.6568C58.7843 14.1618 57.2517 15.3823 56.4872 16.9839L57.4216 16.9666H75.2838V7.00224H60.5916V3.751M32.6711 3.78279H44.907C46.6101 3.44223 47.8754 1.94013 48.2307 0.483887H29.3466C29.6992 1.94013 30.9835 3.44268 32.6702 3.78279M32.6707 10.2862H44.9066C46.6096 9.95014 47.8749 8.44577 48.2302 6.98862H29.3466C29.6992 8.44168 30.9839 9.94923 32.6707 10.2862ZM32.6707 16.9689H44.9066C46.6096 16.6297 47.8749 15.1262 48.2302 13.6709H29.3466C29.6992 15.1267 30.9839 16.6297 32.6707 16.9689ZM0.825195 0.523838C1.19318 1.96192 2.4358 3.43178 4.14067 3.80004H9.28881L9.55165 3.90449V16.9367H12.7692V3.90449L13.0615 3.80004H18.2187C19.9426 3.35504 21.1585 1.96192 21.5202 0.523838V0.492049H0.825195V0.523838Z" fill="#CAC8C8"/>
</svg>
