<svg width="140" height="25" viewBox="0 0 140 25" fill="none" xmlns="http://www.w3.org/2000/svg">
<g id="toyota logo" clip-path="url(#clip0_2342_8844)">
<path id="Vector" fill-rule="evenodd" clip-rule="evenodd" d="M0 11.9712C0 5.62643 7.88611 0.483887 17.6141 0.483887C27.342 0.483887 35.2281 5.62752 35.2281 11.9712C35.2281 18.3126 27.342 23.4563 17.6141 23.4563C7.88611 23.4563 0 18.3126 0 11.969V11.9712ZM21.9211 11.8686C21.9244 12.0388 21.9266 12.2112 21.9266 12.3846C21.9266 17.1301 20.5643 21.1228 18.7115 22.2792L18.7442 22.2683C26.626 21.8581 32.8468 17.213 32.8468 11.5446C32.8468 9.61807 32.1275 7.81043 30.8676 6.24607L30.8524 6.21334C30.7543 8.83152 27.0467 11.0461 21.9102 11.8533L21.9211 11.8686ZM13.3081 11.8686C8.17492 11.0613 4.46945 8.8468 4.37136 6.22861L4.35938 6.25807C3.09298 7.82243 2.37586 9.62898 2.37586 11.5566C2.37586 17.225 8.59233 21.8701 16.4784 22.2803L16.5111 22.2868C14.6638 21.1283 13.3026 17.1323 13.3026 12.3846C13.3026 12.2101 13.3026 12.0355 13.3081 11.861V11.8686ZM89.8805 11.9701C89.8805 7.11552 93.8148 3.18825 98.6537 3.18825C103.504 3.18825 107.427 7.11552 107.427 11.9592C107.427 16.8028 103.504 20.7366 98.6537 20.7366C93.8039 20.7366 89.887 16.8093 89.887 11.9581L89.8805 11.9701ZM55.3652 11.9701C55.3652 7.11552 59.2929 3.18825 64.1362 3.18825C68.9806 3.18825 72.9073 7.11552 72.9073 11.9592C72.9073 16.8028 68.9817 20.7366 64.1373 20.7366C59.2929 20.7366 55.3641 16.8093 55.3641 11.9581L55.3652 11.9701ZM49.262 6.8428V20.3483H45.5675V6.84607H40.4125V3.79152H54.417V6.84607H49.2609L49.262 6.8428ZM117.377 6.8428V20.3483H113.683V6.84607H108.528V3.79152H122.532V6.84607H117.377V6.8428ZM121.264 20.3395L128.086 3.78498H132.685L139.5 20.3493H135.184L133.767 16.6293L133.764 16.6261H126.993L126.99 16.6283L125.573 20.3483H121.257L121.264 20.3395ZM14.993 12.0661C15.0584 15.7588 16.2092 18.7021 17.6228 18.7021C19.0363 18.7021 20.1883 15.7566 20.2493 12.0661H20.2547L20.2482 12.0617V12.0639C19.3981 12.1403 18.5154 12.1839 17.6151 12.1839C16.7149 12.1839 15.8365 12.1403 14.9864 12.0639V12.0563L14.993 12.0661ZM98.657 17.5206C101.36 17.5206 103.556 15.0333 103.556 11.9613C103.556 8.88934 101.363 6.39989 98.6592 6.39989C95.9564 6.39989 93.7625 8.88934 93.7625 11.9603C93.7625 15.0301 95.9531 17.5195 98.6559 17.5195L98.657 17.5206ZM64.1373 17.5206C66.8401 17.5206 69.0329 15.0333 69.0329 11.9613C69.0329 8.88934 66.839 6.39989 64.1351 6.39989C61.4301 6.39989 59.2374 8.88934 59.2374 11.9603C59.2374 15.0301 61.428 17.5195 64.134 17.5195L64.1373 17.5206ZM128.064 13.8224V13.8246H132.715L130.404 7.76461H130.371L128.065 13.8235L128.064 13.8224ZM79.5281 20.3417V14.0581L73.0762 3.78934H77.392L81.395 10.7493L85.3991 3.78934H89.7149L83.263 14.0624V20.3461H79.5139L79.5281 20.3417ZM15.1815 9.16316C15.9629 9.2308 16.7814 9.2668 17.6228 9.2668C18.462 9.2668 19.2793 9.23407 20.064 9.16425C19.6717 6.6137 18.7268 4.8148 17.6228 4.8148C16.5166 4.8148 15.5717 6.6148 15.1815 9.15661V9.16316ZM17.6228 2.13989C19.4973 2.13989 21.0972 4.98716 21.6879 8.96898L21.6912 8.95807C25.3421 8.3908 27.9033 7.07407 27.9033 5.5457C27.9033 3.4948 23.2976 1.83225 17.6195 1.83225C11.9414 1.83225 7.33465 3.49698 7.33465 5.54789C7.33465 7.07516 9.88924 8.38752 13.5424 8.95698L13.5457 8.96243C14.1342 4.98498 15.7363 2.13334 17.6108 2.13334L17.6228 2.13989Z" fill="#CAC8C8"/>
</g>
<defs>
<clipPath id="clip0_2342_8844">
<rect width="139.5" height="24" fill="white" transform="translate(0 0.483887)"/>
</clipPath>
</defs>
</svg>
