<svg width="121" height="22" viewBox="0 0 121 22" fill="none" xmlns="http://www.w3.org/2000/svg">
<path id="Vector" fill-rule="evenodd" clip-rule="evenodd" d="M119.969 18.7928C119.969 18.6196 119.893 18.4375 119.74 18.3506C119.585 18.2592 119.413 18.2501 119.239 18.2501H118.345V20.3015H118.596V19.3553H119.057L119.643 20.3015H119.941L119.321 19.3553C119.687 19.345 119.969 19.1963 119.969 18.7928ZM118.98 19.1577H118.595V18.4323H119.181C119.436 18.4323 119.715 18.4709 119.715 18.7882C119.716 19.206 119.268 19.1577 118.98 19.1577ZM108.269 8.87526L112.021 4.86849C112.239 4.57433 112.347 4.36837 112.347 4.192C112.347 3.89785 112.094 3.78006 111.299 3.78006H110.352V1.25049H120.6V3.78006H119.254C117.699 3.78006 117.409 4.015 115.24 6.75055L109.303 13.1614V17.0735C109.303 18.0744 109.809 18.4265 111.255 18.4265H113.497V20.8673H99.1425V18.4265H101.384C102.829 18.4265 103.336 18.0744 103.336 17.0735V13.1614L96.3438 5.42654C95.1885 4.07421 95.3481 3.78006 92.1311 3.78006V1.25049H105.112V3.78006H104.188C103.248 3.78006 102.849 3.95642 102.849 4.30915C102.849 4.60395 103.138 4.83888 103.319 5.07381L106.857 8.92933C107.277 9.36637 107.79 9.42302 108.269 8.87526ZM21.171 1.24984H24.3024V8.3082H21.4104C21.1542 6.8973 20.2711 6.34826 19.4659 5.60805C18.0132 4.2731 14.867 3.1615 12.2209 3.1615C8.80564 3.1615 5.92333 4.22097 5.92333 5.77862C5.92333 10.1027 25.4552 6.66172 25.4552 14.8375C25.4552 19.1017 21.2714 21.4839 13.7579 21.4839C11.1569 21.4839 7.22095 20.6767 4.89863 19.4435C4.17065 19.0232 3.8617 19.8413 3.72524 20.8666H0.514672V13.5727H3.41886C4.0593 15.4258 4.94176 15.8075 5.75341 16.5432C7.16173 17.8376 10.5139 18.7792 13.588 18.749C18.223 18.7033 19.8167 17.6902 19.8167 16.2194C19.8167 14.7493 18.2404 14.3959 13.1613 13.6023L8.84876 12.8962C3.98206 12.1605 0.438721 11.0727 0.438721 7.19081C0.438721 3.1615 4.92116 0.631925 12.0085 0.631925C14.9951 0.631925 17.4937 1.031 19.892 2.38654C20.5563 2.81844 21.1793 2.86993 21.171 1.24984ZM82.2825 13.0674L82.3443 5.2225C82.3443 4.19329 81.8087 3.84056 80.2788 3.84056H78.481V1.39981H89.9188V3.84056H88.4281C86.8969 3.84056 86.3613 4.19393 86.3613 5.2225V21.0159L81.8847 20.9805L67.3869 7.25196V17.2222C67.3869 18.2225 67.9225 18.6042 69.4524 18.6042H71.4426V21.0159H59.5639V18.6042H61.5322C63.0622 18.6042 63.5977 18.2218 63.5977 17.2222V5.2225C63.5977 4.19329 63.0622 3.84056 61.5322 3.84056H59.5639V1.39981H69.8341L82.2825 13.0674ZM43.97 0.483887C34.8545 0.483887 29.1485 4.51383 29.1485 10.9832C29.1485 17.3368 34.7753 21.3358 43.6919 21.3358C53.1627 21.3358 58.6718 17.3954 58.6718 10.6601C58.6724 4.60201 52.7276 0.483887 43.97 0.483887ZM43.7627 18.7779C38.7171 18.7779 35.8168 15.866 35.8168 10.8365C35.8168 5.92537 38.8433 3.01346 44.015 3.01346C48.9764 3.01346 51.8767 5.98459 51.8767 11.0431C51.8767 15.9838 48.9339 18.7779 43.7627 18.7779Z" fill="#CAC8C8"/>
</svg>
