<svg width="91" height="22" viewBox="0 0 91 22" fill="none" xmlns="http://www.w3.org/2000/svg">
<path id="Vector" d="M52.6747 19.0742C52.6747 19.2438 52.7282 19.3419 52.8264 19.3419C52.9068 19.333 52.9781 19.2973 53.0407 19.2527L80.8664 1.19793C81.3366 0.869366 81.8999 0.700403 82.4733 0.715917H88.5884C89.5257 0.715917 90.1595 1.34071 90.1595 2.27772V13.9514C90.1595 15.3615 89.847 16.1826 88.5973 16.9322L81.1787 21.3946C81.1048 21.446 81.0186 21.4768 80.9289 21.4839C80.8396 21.4839 80.7503 21.4124 80.7503 21.1535V7.53438C80.7503 7.37366 80.7057 7.26662 80.5986 7.26662C80.5202 7.27563 80.4459 7.30656 80.3843 7.35587L60.0483 20.5647C59.5841 20.8769 59.0395 21.0465 58.4861 21.0376H45.0061C44.0598 21.0376 43.4348 20.4128 43.4348 19.4669V2.64346C43.4348 2.51864 43.3813 2.40254 43.274 2.40254C43.1959 2.41248 43.122 2.44332 43.0599 2.49179L29.6424 10.5419C29.5086 10.6311 29.4729 10.6937 29.4729 10.7561C29.4729 10.8097 29.4996 10.8632 29.5888 10.9613L39.1766 20.5376C39.3015 20.6625 39.3909 20.7608 39.3909 20.8678C39.3909 20.9571 39.2481 21.0285 39.0784 21.0285H30.419C29.7407 21.0285 29.2139 20.9304 28.8479 20.5645L23.0362 14.7634C23.0142 14.7371 22.987 14.7156 22.9563 14.7002C22.9256 14.6848 22.8921 14.676 22.8578 14.6741C22.7948 14.677 22.7335 14.6954 22.6793 14.7277L12.9668 20.5647C12.3776 20.9215 11.9759 21.0198 11.3955 21.0198H2.45974C1.50435 21.0287 0.879395 20.395 0.879395 19.4579V8.00751C0.879395 6.58831 1.19187 5.77612 2.4505 5.02651L9.9137 0.546297C9.97224 0.507992 10.0401 0.486411 10.1101 0.483887C10.2262 0.483887 10.2886 0.599987 10.2886 0.858691V16.1915C10.2886 16.3522 10.3244 16.4235 10.4403 16.4235C10.5207 16.4146 10.5922 16.3789 10.6635 16.3343L35.8738 1.17109C36.3558 0.840909 36.945 0.680351 37.5342 0.707025H51.1034C52.0407 0.707025 52.6747 1.33181 52.6747 2.26883L52.6656 19.0742H52.6747Z" fill="#CAC8C8"/>
</svg>
