<svg width="12" height="17" viewBox="0 0 12 17" fill="none" xmlns="http://www.w3.org/2000/svg">
<path d="M11.7386 7.92588L2.77851 0.149257C2.70974 0.0899654 2.62199 0.0567626 2.52949 0.0567626L0.430581 0.0567627C0.255079 0.0567627 0.174442 0.274954 0.307255 0.388793L9.23877 8.49981L0.304881 16.6108C0.172069 16.727 0.252705 16.9429 0.428207 16.9429L2.59827 16.9429C2.64333 16.9429 2.68839 16.9263 2.72159 16.8954L11.7386 9.07375C11.8207 9.00236 11.8865 8.91418 11.9317 8.81517C11.9768 8.71616 12.0001 8.60862 12.0001 8.49981C12.0001 8.39101 11.9768 8.28347 11.9317 8.18446C11.8865 8.08545 11.8207 7.99727 11.7386 7.92588Z" fill="currentColor"/>
</svg>
