<svg width="26" height="26" viewBox="0 0 26 26" fill="none" xmlns="http://www.w3.org/2000/svg">
<path d="M14.2293 13L20.4548 5.57912C20.5592 5.45579 20.4715 5.26843 20.3102 5.26843H18.4176C18.3061 5.26843 18.1994 5.31824 18.1259 5.40362L12.9913 11.5248L7.85664 5.40362C7.78549 5.31824 7.67876 5.26843 7.56492 5.26843H5.67234C5.51107 5.26843 5.42332 5.45579 5.52767 5.57912L11.7533 13L5.52767 20.4209C5.5043 20.4484 5.4893 20.482 5.48446 20.5178C5.47963 20.5535 5.48515 20.5899 5.50038 20.6226C5.51562 20.6554 5.53992 20.683 5.5704 20.7023C5.60088 20.7216 5.63626 20.7318 5.67234 20.7316H7.56492C7.67639 20.7316 7.78311 20.6818 7.85664 20.5964L12.9913 14.4752L18.1259 20.5964C18.197 20.6818 18.3038 20.7316 18.4176 20.7316H20.3102C20.4715 20.7316 20.5592 20.5442 20.4548 20.4209L14.2293 13Z" fill="currentColor"/>
</svg>
