<svg width="24" height="30" viewBox="0 0 24 30" fill="none" xmlns="http://www.w3.org/2000/svg">
<path d="M6.4001 18.6101C6.29142 18.6101 6.1872 18.567 6.11036 18.4901C6.03351 18.4133 5.99034 18.3091 5.99034 18.2004C5.99034 18.0917 6.03351 17.9875 6.11036 17.9106C6.1872 17.8338 6.29142 17.7906 6.4001 17.7906H17.6001C17.7088 17.7906 17.813 17.8338 17.8898 17.9106C17.9667 17.9875 18.0099 18.0917 18.0099 18.2004C18.0099 18.3091 17.9667 18.4133 17.8898 18.4901C17.813 18.567 17.7088 18.6101 17.6001 18.6101H6.4001ZM6.4001 22.6101C6.29142 22.6101 6.1872 22.567 6.11036 22.4901C6.03351 22.4133 5.99034 22.3091 5.99034 22.2004C5.99034 22.0917 6.03351 21.9875 6.11036 21.9106C6.1872 21.8338 6.29142 21.7906 6.4001 21.7906H17.6001C17.7088 21.7906 17.813 21.8338 17.8898 21.9106C17.9667 21.9875 18.0099 22.0917 18.0099 22.2004C18.0099 22.3091 17.9667 22.4133 17.8898 22.4901C17.813 22.567 17.7088 22.6101 17.6001 22.6101H6.4001Z" fill="currentColor" stroke="currentColor" stroke-width="0.780488"/>
<path d="M21.99 10.5232V10.5235V27.0003C21.99 27.316 21.8646 27.6188 21.6414 27.842C21.4182 28.0652 21.1155 28.1906 20.7998 28.1906H3.1998C2.88413 28.1906 2.58139 28.0652 2.35818 27.842L2.63412 27.566L2.35817 27.842C2.13496 27.6188 2.00956 27.316 2.00956 27.0003V3.00034C2.00956 2.68467 2.13496 2.38193 2.35818 2.15871C2.58139 1.9355 2.88413 1.8101 3.1998 1.8101H13.8956H13.8958L21.99 10.5232ZM21.99 10.5232C21.9898 10.2252 21.8777 9.93819 21.6761 9.71883L21.99 10.5232ZM13.8958 0.990586L13.896 0.990586C14.1746 0.990466 14.4502 1.04829 14.7054 1.16039C14.9605 1.27249 15.1895 1.43641 15.3778 1.64175L15.3779 1.64177L22.2802 9.16497L22.2803 9.16505C22.6206 9.53567 22.8094 10.0204 22.8096 10.5235C22.8096 10.5236 22.8096 10.5236 22.8096 10.5236V27.0003C22.8096 27.5334 22.5978 28.0445 22.2209 28.4215C21.844 28.7984 21.3328 29.0101 20.7998 29.0101H3.1998C2.66679 29.0101 2.1556 28.7984 1.77869 28.4215C1.40179 28.0445 1.19005 27.5334 1.19005 27.0003V3.00034C1.19005 2.46732 1.40179 1.95613 1.77869 1.57923C2.15559 1.20233 2.66678 0.990586 3.1998 0.990586L13.8958 0.990586Z" stroke="currentColor" stroke-width="0.780488"/>
<path d="M14.3997 2.36035V9.88035H21.9197" stroke="currentColor" stroke-width="0.780488" stroke-linecap="round" stroke-linejoin="round"/>
<path d="M9.02626 8.42295L9.01432 8.81301L9.02626 8.42295C8.68412 8.41247 8.35951 8.2692 8.1212 8.02348C7.88289 7.77776 7.74962 7.44891 7.74962 7.10661C7.74962 6.76432 7.88289 6.43547 8.1212 6.18975C8.35951 5.94403 8.68412 5.80075 9.02626 5.79028C9.20252 5.78488 9.37806 5.81493 9.54248 5.87866C9.70691 5.94238 9.85686 6.03847 9.98344 6.16124C10.11 6.28401 10.2107 6.43094 10.2794 6.59334C10.3481 6.75573 10.3835 6.93028 10.3835 7.10661C10.3835 7.28295 10.3481 7.45749 10.2794 7.61989C10.2107 7.78228 10.11 7.92922 9.98344 8.05199C9.85686 8.17475 9.70691 8.27085 9.54249 8.33457C9.37806 8.3983 9.20252 8.42835 9.02626 8.42295Z" fill="currentColor" stroke="currentColor" stroke-width="0.780488"/>
<path d="M9.0129 9.77306C10.7223 9.77306 12.0355 10.95 12.0355 12.5108V13.3645C12.0352 13.4118 12.0163 13.457 11.9829 13.4904C11.9495 13.5239 11.9042 13.5427 11.857 13.543H6.1697C6.12222 13.543 6.07667 13.5241 6.04305 13.4906C6.00952 13.4572 5.99058 13.4119 5.99034 13.3645V12.5108C5.99034 10.9485 7.30335 9.77306 9.0129 9.77306Z" fill="currentColor" stroke="currentColor" stroke-width="0.780488"/>
</svg>
