<svg width="31" height="31" viewBox="0 0 31 31" fill="none" xmlns="http://www.w3.org/2000/svg">
<path d="M15.3339 9.47524C12.0087 9.47524 9.32509 12.1588 9.32509 15.484C9.32509 18.8092 12.0087 21.4928 15.3339 21.4928C18.6591 21.4928 21.3427 18.8092 21.3427 15.484C21.3427 12.1588 18.6591 9.47524 15.3339 9.47524ZM15.3339 19.3893C13.1835 19.3893 11.4286 17.6344 11.4286 15.484C11.4286 13.3336 13.1835 11.5788 15.3339 11.5788C17.4843 11.5788 19.2392 13.3336 19.2392 15.484C19.2392 17.6344 17.4843 19.3893 15.3339 19.3893ZM21.5888 7.82875C20.8124 7.82875 20.1854 8.4557 20.1854 9.23207C20.1854 10.0084 20.8124 10.6354 21.5888 10.6354C22.3651 10.6354 22.9921 10.0114 22.9921 9.23207C22.9923 9.04772 22.9562 8.86513 22.8857 8.69477C22.8153 8.52441 22.7119 8.36962 22.5816 8.23926C22.4512 8.1089 22.2964 8.00554 22.1261 7.9351C21.9557 7.86466 21.7731 7.82852 21.5888 7.82875ZM27.0468 15.484C27.0468 13.8668 27.0614 12.2643 26.9706 10.65C26.8798 8.77504 26.452 7.11098 25.0809 5.73988C23.7069 4.36586 22.0458 3.94106 20.1708 3.85024C18.5536 3.75942 16.9511 3.77406 15.3368 3.77406C13.7196 3.77406 12.1171 3.75942 10.5028 3.85024C8.62782 3.94106 6.96376 4.36879 5.59267 5.73988C4.21864 7.11391 3.79384 8.77504 3.70302 10.65C3.6122 12.2672 3.62685 13.8698 3.62685 15.484C3.62685 17.0983 3.6122 18.7038 3.70302 20.318C3.79384 22.193 4.22157 23.8571 5.59267 25.2282C6.96669 26.6022 8.62782 27.027 10.5028 27.1178C12.12 27.2086 13.7226 27.194 15.3368 27.194C16.954 27.194 18.5565 27.2086 20.1708 27.1178C22.0458 27.027 23.7099 26.5993 25.0809 25.2282C26.455 23.8541 26.8798 22.193 26.9706 20.318C27.0643 18.7038 27.0468 17.1012 27.0468 15.484ZM24.4686 22.3922C24.2548 22.9254 23.997 23.3239 23.5839 23.734C23.1708 24.1471 22.7753 24.4049 22.2421 24.6188C20.7011 25.2311 17.0419 25.0934 15.3339 25.0934C13.6259 25.0934 9.96376 25.2311 8.42275 24.6217C7.88954 24.4079 7.49111 24.15 7.08095 23.737C6.66786 23.3239 6.41005 22.9284 6.19618 22.3952C5.58681 20.8512 5.7245 17.192 5.7245 15.484C5.7245 13.776 5.58681 10.1139 6.19618 8.57289C6.41005 8.03969 6.66786 7.64125 7.08095 7.2311C7.49404 6.82094 7.88954 6.5602 8.42275 6.34633C9.96376 5.73696 13.6259 5.87465 15.3339 5.87465C17.0419 5.87465 20.704 5.73696 22.245 6.34633C22.7782 6.5602 23.1767 6.81801 23.5868 7.2311C23.9999 7.64418 24.2577 8.03969 24.4716 8.57289C25.0809 10.1139 24.9433 13.776 24.9433 15.484C24.9433 17.192 25.0809 20.8512 24.4686 22.3922Z" fill="currentColor"/>
</svg>
