<svg width="24" height="25" viewBox="0 0 24 25" fill="none" xmlns="http://www.w3.org/2000/svg">
<path d="M19.23 14.2437L16.69 13.9537C16.3914 13.9186 16.0886 13.9516 15.8046 14.0504C15.5206 14.1491 15.2626 14.3109 15.05 14.5237L13.21 16.3637C10.3712 14.9199 8.06382 12.6125 6.62004 9.77365L8.47004 7.92365C8.90004 7.49365 9.11004 6.89365 9.04004 6.28365L8.75004 3.76365C8.69335 3.27583 8.45923 2.82589 8.09228 2.4995C7.72532 2.17311 7.25115 1.99307 6.76004 1.99365H5.03004C3.90004 1.99365 2.96004 2.93365 3.03004 4.06365C3.56004 12.6037 10.39 19.4237 18.92 19.9537C20.05 20.0237 20.99 19.0837 20.99 17.9537V16.2237C21 15.2137 20.24 14.3637 19.23 14.2437Z" fill="currentColor"/>
</svg>
