<svg width="29" height="29" viewBox="0 0 29 29" fill="none" xmlns="http://www.w3.org/2000/svg">
<path d="M27.2202 7.84471C26.9141 6.70675 26.0169 5.80972 24.8792 5.5033C22.8006 4.93457 14.486 4.93457 14.486 4.93457C14.486 4.93457 6.17176 4.93457 4.09317 5.48174C2.97726 5.78783 2.05818 6.70692 1.75209 7.84471C1.20508 9.92314 1.20508 14.2336 1.20508 14.2336C1.20508 14.2336 1.20508 18.5657 1.75209 20.6224C2.0585 21.7602 2.95537 22.6572 4.09333 22.9636C6.19365 23.5325 14.4863 23.5325 14.4863 23.5325C14.4863 23.5325 22.8006 23.5325 24.8792 22.9854C26.0171 22.6791 26.9141 21.7821 27.2206 20.6443C27.7674 18.5657 27.7674 14.2554 27.7674 14.2554C27.7674 14.2554 27.7893 9.92314 27.2202 7.84471ZM11.8388 18.2157V10.2514L18.7528 14.2336L11.8388 18.2157Z" fill="currentColor"/>
</svg>
