<svg width="83" height="52" viewBox="0 0 83 52" fill="none" xmlns="http://www.w3.org/2000/svg">
<path d="M41.2585 51.1089L5.56377 12.9535L76.4855 12.7649L41.2585 51.1089Z" fill="#C3002F"/>
<rect x="0.2052" width="81.8765" height="35.8182" rx="2.76491" fill="#C3002F"/>
<path d="M60.609 23.788V16.33C60.609 15.1504 59.5594 14.142 58.3762 14.1991C57.2693 14.2562 56.3533 15.2265 56.3533 16.33V23.769H54.1968C54.1968 21.3337 54.2732 18.8794 54.1968 16.4441C54.1778 15.6641 53.8724 14.9411 53.1854 14.5225C52.5747 14.142 51.7541 14.104 51.1052 14.4274C50.3991 14.7889 49.922 15.5499 49.922 16.349V23.788H47.7656V12.0492H47.7846L48.8343 13.4381L49.235 13.1146C49.6358 12.7722 50.0747 12.5058 50.5518 12.3346C51.0289 12.1443 51.5251 12.0682 52.0404 12.0682C52.5556 12.0682 53.0709 12.1633 53.5671 12.3536C54.0442 12.5439 54.464 12.8673 54.8266 13.3239L55.2655 13.8757L55.6854 13.3049C55.8571 13.0766 56.0289 12.8863 56.2388 12.7341C56.4487 12.5819 56.6777 12.4487 56.9258 12.3346C57.1739 12.2395 57.422 12.1633 57.6701 12.1253C57.9373 12.0872 58.2044 12.0492 58.4716 12.0492C59.0632 12.0492 59.6167 12.1633 60.1319 12.3726C60.6472 12.6009 61.1052 12.9053 61.4869 13.2859C61.8686 13.6664 62.1739 14.123 62.4029 14.6557C62.6319 15.1694 62.7273 15.7402 62.7273 16.33V23.769H60.609V23.788Z" fill="white"/>
<path d="M29.1206 6.91229V21.6191H25.571C23.4527 21.6191 21.716 19.9068 21.716 17.7759C21.716 15.6451 23.4336 13.9327 25.571 13.9327C26.5061 13.9327 27.3458 14.3703 28.0137 14.9221V12.4487C27.2695 12.1063 26.4298 11.8209 25.571 11.8209C22.2504 11.8019 19.5596 14.4845 19.5596 17.7949C19.5596 21.1054 22.2504 23.788 25.571 23.788H29.1206H30.9336H31.2771V6.91229H29.1206Z" fill="white"/>
<path d="M36.0099 28.9059V14.1991H39.5595C41.6778 14.1991 43.4145 15.9114 43.4145 18.0423C43.4145 20.1731 41.6969 21.8854 39.5595 21.8854C38.6244 21.8854 37.7847 21.4478 37.1168 20.8961V23.4075C37.861 23.7499 38.7007 24.0353 39.5595 24.0353C42.8801 24.0353 45.5709 21.3527 45.5709 18.0423C45.5709 14.7318 42.8801 12.0492 39.5595 12.0492H36.0099H34.1969H33.8534V28.9059H36.0099Z" fill="white"/>
</svg>
