<svg width="99" height="50" viewBox="0 0 99 50" fill="none" xmlns="http://www.w3.org/2000/svg">
<g id="logo">
<path id="Vector" d="M93.3212 38.3651V21.4101C93.3212 18.7284 90.9351 16.436 88.2452 16.5658C85.7289 16.6955 83.6464 18.9014 83.6464 21.4101V38.3218H78.7439C78.7439 32.7855 78.9174 27.2059 78.7439 21.6696C78.7005 19.8962 78.0063 18.2526 76.4445 17.3011C75.0561 16.436 73.1906 16.3495 71.7155 17.0848C70.1102 17.9066 69.0256 19.6367 69.0256 21.4533V38.3651H64.1231V11.6782H64.1665L66.5527 14.8357L67.4638 14.1004C68.3748 13.3218 69.3727 12.7163 70.4573 12.327C71.542 11.8945 72.67 11.7215 73.8414 11.7215C75.0128 11.7215 76.1842 11.9377 77.3122 12.3703C78.3968 12.8028 79.3513 13.5381 80.1756 14.5761L81.1734 15.8305L82.1279 14.5329C82.5184 14.0139 82.9088 13.5813 83.3861 13.2353C83.8633 12.8893 84.3839 12.5865 84.9479 12.327C85.5119 12.1107 86.0759 11.9377 86.64 11.8512C87.2473 11.7647 87.8547 11.6782 88.4621 11.6782C89.8071 11.6782 91.0652 11.9377 92.2366 12.4135C93.408 12.9325 94.4493 13.6246 95.317 14.4896C96.1847 15.3547 96.8788 16.3928 97.3994 17.6038C97.9201 18.7716 98.137 20.0692 98.137 21.4101V38.3218H93.3212V38.3651Z" fill="#C3002F"/>
<path id="Vector_2" d="M21.7359 0V33.4342H13.6663C8.85055 33.4342 4.90251 29.5415 4.90251 24.6972C4.90251 19.8529 8.80717 15.9602 13.6663 15.9602C15.7922 15.9602 17.7011 16.955 19.2196 18.2093V12.5865C17.5276 11.808 15.6186 11.1592 13.6663 11.1592C6.11729 11.1159 0 17.2145 0 24.7405C0 32.2664 6.11729 38.365 13.6663 38.365H21.7359H25.8575H26.6384V0H21.7359Z" fill="#C3002F"/>
<path id="Vector_3" d="M37.3979 50V16.5658H45.4676C50.2833 16.5658 54.2313 20.4585 54.2313 25.3028C54.2313 30.1471 50.3267 34.0398 45.4676 34.0398C43.3417 34.0398 41.4327 33.045 39.9143 31.7907V37.5C41.6063 38.2786 43.5152 38.9273 45.4676 38.9273C53.0166 38.9273 59.1338 32.8287 59.1338 25.3028C59.1338 17.7768 53.0166 11.6782 45.4676 11.6782H37.3979H33.2764H32.4954V50H37.3979Z" fill="#C3002F"/>
</g>
</svg>
