<svg width="99" height="50" viewBox="0 0 99 50" fill="none" xmlns="http://www.w3.org/2000/svg">
<g id="logo">
<path id="Vector" d="M93.3212 38.365V21.41C93.3212 18.7284 90.935 16.436 88.2451 16.5657C85.7288 16.6955 83.6463 18.9014 83.6463 21.41V38.3218H78.7438C78.7438 32.7855 78.9173 27.2059 78.7438 21.6695C78.7004 19.8962 78.0063 18.2526 76.4444 17.301C75.0561 16.436 73.1905 16.3495 71.7154 17.0848C70.1102 17.9066 69.0256 19.6367 69.0256 21.4533V38.365H64.123V11.6782H64.1664L66.5526 14.8356L67.4637 14.1003C68.3748 13.3218 69.3726 12.7163 70.4573 12.327C71.5419 11.8945 72.6699 11.7214 73.8413 11.7214C75.0127 11.7214 76.1841 11.9377 77.3121 12.3702C78.3967 12.8028 79.3512 13.5381 80.1755 14.5761L81.1734 15.8304L82.1278 14.5329C82.5183 14.0138 82.9088 13.5813 83.386 13.2353C83.8633 12.8893 84.3839 12.5865 84.9479 12.327C85.5119 12.1107 86.0759 11.9377 86.6399 11.8512C87.2473 11.7647 87.8547 11.6782 88.4621 11.6782C89.807 11.6782 91.0652 11.9377 92.2366 12.4135C93.408 12.9325 94.4492 13.6246 95.3169 14.4896C96.1846 15.3547 96.8788 16.3927 97.3994 17.6038C97.92 18.7716 98.1369 20.0692 98.1369 21.41V38.3218H93.3212V38.365Z" fill="white"/>
<path id="Vector_2" d="M21.7359 0V33.4342H13.6663C8.85055 33.4342 4.90251 29.5415 4.90251 24.6972C4.90251 19.8529 8.80717 15.9602 13.6663 15.9602C15.7922 15.9602 17.7011 16.955 19.2196 18.2093V12.5865C17.5276 11.808 15.6186 11.1592 13.6663 11.1592C6.11729 11.1159 0 17.2145 0 24.7405C0 32.2664 6.11729 38.365 13.6663 38.365H21.7359H25.8575H26.6384V0H21.7359Z" fill="white"/>
<path id="Vector_3" d="M37.3981 50V16.5657H45.4677C50.2835 16.5657 54.2315 20.4585 54.2315 25.3028C54.2315 30.147 50.3269 34.0398 45.4677 34.0398C43.3419 34.0398 41.4329 33.045 39.9144 31.7906V37.5C41.6065 38.2785 43.5154 38.9273 45.4677 38.9273C53.0167 38.9273 59.134 32.8287 59.134 25.3028C59.134 17.7768 53.0167 11.6782 45.4677 11.6782H37.3981H33.2765H32.4956V50H37.3981Z" fill="white"/>
</g>
</svg>
