<svg width="0" height="0" class="hidden">
  <symbol fill="none" xmlns="http://www.w3.org/2000/svg" viewBox="0 0 12 17" id="ic_arr_hor">
    <path d="M11.7386 7.92588L2.77851 0.149257C2.70974 0.0899654 2.62199 0.0567626 2.52949 0.0567626L0.430581 0.0567627C0.255079 0.0567627 0.174442 0.274954 0.307255 0.388793L9.23877 8.49981L0.304881 16.6108C0.172069 16.727 0.252705 16.9429 0.428207 16.9429L2.59827 16.9429C2.64333 16.9429 2.68839 16.9263 2.72159 16.8954L11.7386 9.07375C11.8207 9.00236 11.8865 8.91418 11.9317 8.81517C11.9768 8.71616 12.0001 8.60862 12.0001 8.49981C12.0001 8.39101 11.9768 8.28347 11.9317 8.18446C11.8865 8.08545 11.8207 7.99727 11.7386 7.92588Z" fill="currentColor"></path>
  </symbol>
  <symbol fill="none" xmlns="http://www.w3.org/2000/svg" viewBox="0 0 12 10" id="ic_check">
    <path d="M4 9.88389L0 5.88389L1.4 4.48389L4 7.08389L10.6 0.483887L12 1.88389L4 9.88389Z" fill="currentColor"></path>
  </symbol>
  <symbol fill="none" xmlns="http://www.w3.org/2000/svg" viewBox="0 0 26 26" id="ic_close">
    <path d="M14.2293 13L20.4548 5.57912C20.5592 5.45579 20.4715 5.26843 20.3102 5.26843H18.4176C18.3061 5.26843 18.1994 5.31824 18.1259 5.40362L12.9913 11.5248L7.85664 5.40362C7.78549 5.31824 7.67876 5.26843 7.56492 5.26843H5.67234C5.51107 5.26843 5.42332 5.45579 5.52767 5.57912L11.7533 13L5.52767 20.4209C5.5043 20.4484 5.4893 20.482 5.48446 20.5178C5.47963 20.5535 5.48515 20.5899 5.50038 20.6226C5.51562 20.6554 5.53992 20.683 5.5704 20.7023C5.60088 20.7216 5.63626 20.7318 5.67234 20.7316H7.56492C7.67639 20.7316 7.78311 20.6818 7.85664 20.5964L12.9913 14.4752L18.1259 20.5964C18.197 20.6818 18.3038 20.7316 18.4176 20.7316H20.3102C20.4715 20.7316 20.5592 20.5442 20.4548 20.4209L14.2293 13Z" fill="currentColor"></path>
  </symbol>
  <symbol fill="none" xmlns="http://www.w3.org/2000/svg" viewBox="0 0 24 25" id="ic_email">
    <path d="M20 2.98389H4C2.9 2.98389 2.01 3.88389 2.01 4.98389L2 16.9839C2 18.0839 2.9 18.9839 4 18.9839H20C21.1 18.9839 22 18.0839 22 16.9839V4.98389C22 3.88389 21.1 2.98389 20 2.98389ZM20 6.98389L12 11.9839L4 6.98389V4.98389L12 9.98389L20 4.98389V6.98389Z" fill="currentColor"></path>
  </symbol>
  <symbol fill="none" xmlns="http://www.w3.org/2000/svg" viewBox="0 0 29 29" id="ic_fb">
    <path d="M14.1677 2.68066C7.64863 2.68066 2.36328 7.96601 2.36328 14.485C2.36328 20.376 6.67939 25.2588 12.3236 26.1477V17.898H9.32502V14.485H12.3236V11.8843C12.3236 8.92344 14.0862 7.29073 16.7814 7.29073C18.0729 7.29073 19.4258 7.52094 19.4258 7.52094V10.4239H17.9336C16.4697 10.4239 16.0117 11.3353 16.0117 12.2691V14.4827H19.283L18.76 17.8957H16.0117V26.1454C21.6559 25.2612 25.972 20.3772 25.972 14.485C25.972 7.96601 20.6867 2.68066 14.1677 2.68066Z" fill="currentColor"></path>
  </symbol>
  <symbol fill="none" xmlns="http://www.w3.org/2000/svg" viewBox="0 0 24 30" id="ic_file">
    <path d="M6.4001 18.6101C6.29142 18.6101 6.1872 18.567 6.11036 18.4901C6.03351 18.4133 5.99034 18.3091 5.99034 18.2004C5.99034 18.0917 6.03351 17.9875 6.11036 17.9106C6.1872 17.8338 6.29142 17.7906 6.4001 17.7906H17.6001C17.7088 17.7906 17.813 17.8338 17.8898 17.9106C17.9667 17.9875 18.0099 18.0917 18.0099 18.2004C18.0099 18.3091 17.9667 18.4133 17.8898 18.4901C17.813 18.567 17.7088 18.6101 17.6001 18.6101H6.4001ZM6.4001 22.6101C6.29142 22.6101 6.1872 22.567 6.11036 22.4901C6.03351 22.4133 5.99034 22.3091 5.99034 22.2004C5.99034 22.0917 6.03351 21.9875 6.11036 21.9106C6.1872 21.8338 6.29142 21.7906 6.4001 21.7906H17.6001C17.7088 21.7906 17.813 21.8338 17.8898 21.9106C17.9667 21.9875 18.0099 22.0917 18.0099 22.2004C18.0099 22.3091 17.9667 22.4133 17.8898 22.4901C17.813 22.567 17.7088 22.6101 17.6001 22.6101H6.4001Z" fill="currentColor" stroke="currentColor" stroke-width="0.780488"></path>
    <path d="M21.99 10.5232V10.5235V27.0003C21.99 27.316 21.8646 27.6188 21.6414 27.842C21.4182 28.0652 21.1155 28.1906 20.7998 28.1906H3.1998C2.88413 28.1906 2.58139 28.0652 2.35818 27.842L2.63412 27.566L2.35817 27.842C2.13496 27.6188 2.00956 27.316 2.00956 27.0003V3.00034C2.00956 2.68467 2.13496 2.38193 2.35818 2.15871C2.58139 1.9355 2.88413 1.8101 3.1998 1.8101H13.8956H13.8958L21.99 10.5232ZM21.99 10.5232C21.9898 10.2252 21.8777 9.93819 21.6761 9.71883L21.99 10.5232ZM13.8958 0.990586L13.896 0.990586C14.1746 0.990466 14.4502 1.04829 14.7054 1.16039C14.9605 1.27249 15.1895 1.43641 15.3778 1.64175L15.3779 1.64177L22.2802 9.16497L22.2803 9.16505C22.6206 9.53567 22.8094 10.0204 22.8096 10.5235C22.8096 10.5236 22.8096 10.5236 22.8096 10.5236V27.0003C22.8096 27.5334 22.5978 28.0445 22.2209 28.4215C21.844 28.7984 21.3328 29.0101 20.7998 29.0101H3.1998C2.66679 29.0101 2.1556 28.7984 1.77869 28.4215C1.40179 28.0445 1.19005 27.5334 1.19005 27.0003V3.00034C1.19005 2.46732 1.40179 1.95613 1.77869 1.57923C2.15559 1.20233 2.66678 0.990586 3.1998 0.990586L13.8958 0.990586Z" stroke="currentColor" stroke-width="0.780488"></path>
    <path d="M14.3997 2.36035V9.88035H21.9197" stroke="currentColor" stroke-width="0.780488" stroke-linecap="round" stroke-linejoin="round"></path>
    <path d="M9.02626 8.42295L9.01432 8.81301L9.02626 8.42295C8.68412 8.41247 8.35951 8.2692 8.1212 8.02348C7.88289 7.77776 7.74962 7.44891 7.74962 7.10661C7.74962 6.76432 7.88289 6.43547 8.1212 6.18975C8.35951 5.94403 8.68412 5.80075 9.02626 5.79028C9.20252 5.78488 9.37806 5.81493 9.54248 5.87866C9.70691 5.94238 9.85686 6.03847 9.98344 6.16124C10.11 6.28401 10.2107 6.43094 10.2794 6.59334C10.3481 6.75573 10.3835 6.93028 10.3835 7.10661C10.3835 7.28295 10.3481 7.45749 10.2794 7.61989C10.2107 7.78228 10.11 7.92922 9.98344 8.05199C9.85686 8.17475 9.70691 8.27085 9.54249 8.33457C9.37806 8.3983 9.20252 8.42835 9.02626 8.42295Z" fill="currentColor" stroke="currentColor" stroke-width="0.780488"></path>
    <path d="M9.0129 9.77306C10.7223 9.77306 12.0355 10.95 12.0355 12.5108V13.3645C12.0352 13.4118 12.0163 13.457 11.9829 13.4904C11.9495 13.5239 11.9042 13.5427 11.857 13.543H6.1697C6.12222 13.543 6.07667 13.5241 6.04305 13.4906C6.00952 13.4572 5.99058 13.4119 5.99034 13.3645V12.5108C5.99034 10.9485 7.30335 9.77306 9.0129 9.77306Z" fill="currentColor" stroke="currentColor" stroke-width="0.780488"></path>
  </symbol>
  <symbol fill="none" xmlns="http://www.w3.org/2000/svg" viewBox="0 0 31 31" id="ic_instagram">
    <path d="M15.3339 9.47524C12.0087 9.47524 9.32509 12.1588 9.32509 15.484C9.32509 18.8092 12.0087 21.4928 15.3339 21.4928C18.6591 21.4928 21.3427 18.8092 21.3427 15.484C21.3427 12.1588 18.6591 9.47524 15.3339 9.47524ZM15.3339 19.3893C13.1835 19.3893 11.4286 17.6344 11.4286 15.484C11.4286 13.3336 13.1835 11.5788 15.3339 11.5788C17.4843 11.5788 19.2392 13.3336 19.2392 15.484C19.2392 17.6344 17.4843 19.3893 15.3339 19.3893ZM21.5888 7.82875C20.8124 7.82875 20.1854 8.4557 20.1854 9.23207C20.1854 10.0084 20.8124 10.6354 21.5888 10.6354C22.3651 10.6354 22.9921 10.0114 22.9921 9.23207C22.9923 9.04772 22.9562 8.86513 22.8857 8.69477C22.8153 8.52441 22.7119 8.36962 22.5816 8.23926C22.4512 8.1089 22.2964 8.00554 22.1261 7.9351C21.9557 7.86466 21.7731 7.82852 21.5888 7.82875ZM27.0468 15.484C27.0468 13.8668 27.0614 12.2643 26.9706 10.65C26.8798 8.77504 26.452 7.11098 25.0809 5.73988C23.7069 4.36586 22.0458 3.94106 20.1708 3.85024C18.5536 3.75942 16.9511 3.77406 15.3368 3.77406C13.7196 3.77406 12.1171 3.75942 10.5028 3.85024C8.62782 3.94106 6.96376 4.36879 5.59267 5.73988C4.21864 7.11391 3.79384 8.77504 3.70302 10.65C3.6122 12.2672 3.62685 13.8698 3.62685 15.484C3.62685 17.0983 3.6122 18.7038 3.70302 20.318C3.79384 22.193 4.22157 23.8571 5.59267 25.2282C6.96669 26.6022 8.62782 27.027 10.5028 27.1178C12.12 27.2086 13.7226 27.194 15.3368 27.194C16.954 27.194 18.5565 27.2086 20.1708 27.1178C22.0458 27.027 23.7099 26.5993 25.0809 25.2282C26.455 23.8541 26.8798 22.193 26.9706 20.318C27.0643 18.7038 27.0468 17.1012 27.0468 15.484ZM24.4686 22.3922C24.2548 22.9254 23.997 23.3239 23.5839 23.734C23.1708 24.1471 22.7753 24.4049 22.2421 24.6188C20.7011 25.2311 17.0419 25.0934 15.3339 25.0934C13.6259 25.0934 9.96376 25.2311 8.42275 24.6217C7.88954 24.4079 7.49111 24.15 7.08095 23.737C6.66786 23.3239 6.41005 22.9284 6.19618 22.3952C5.58681 20.8512 5.7245 17.192 5.7245 15.484C5.7245 13.776 5.58681 10.1139 6.19618 8.57289C6.41005 8.03969 6.66786 7.64125 7.08095 7.2311C7.49404 6.82094 7.88954 6.5602 8.42275 6.34633C9.96376 5.73696 13.6259 5.87465 15.3339 5.87465C17.0419 5.87465 20.704 5.73696 22.245 6.34633C22.7782 6.5602 23.1767 6.81801 23.5868 7.2311C23.9999 7.64418 24.2577 8.03969 24.4716 8.57289C25.0809 10.1139 24.9433 13.776 24.9433 15.484C24.9433 17.192 25.0809 20.8512 24.4686 22.3922Z" fill="currentColor"></path>
  </symbol>
  <symbol fill="none" xmlns="http://www.w3.org/2000/svg" viewBox="0 0 24 25" id="ic_location">
    <path d="M12 0.483887C7.8 0.483887 4 3.70389 4 8.68389C4 11.8639 6.45 15.6039 11.34 19.9139C11.72 20.2439 12.29 20.2439 12.67 19.9139C17.55 15.6039 20 11.8639 20 8.68389C20 3.70389 16.2 0.483887 12 0.483887ZM12 10.4839C10.9 10.4839 10 9.58389 10 8.48389C10 7.38389 10.9 6.48389 12 6.48389C13.1 6.48389 14 7.38389 14 8.48389C14 9.58389 13.1 10.4839 12 10.4839Z" fill="currentColor"></path>
  </symbol>
  <symbol fill="none" xmlns="http://www.w3.org/2000/svg" viewBox="0 0 40 40" id="ic_menu">
    <path d="M8 9.60001H32V12.8H8V9.60001ZM8 17.6H32V20.8H8V17.6ZM8 25.6H32V28.8H8V25.6Z" fill="currentColor"></path>
  </symbol>
  <symbol fill="none" xmlns="http://www.w3.org/2000/svg" viewBox="0 0 24 25" id="ic_phone">
    <path d="M19.23 14.2437L16.69 13.9537C16.3914 13.9186 16.0886 13.9516 15.8046 14.0504C15.5206 14.1491 15.2626 14.3109 15.05 14.5237L13.21 16.3637C10.3712 14.9199 8.06382 12.6125 6.62004 9.77365L8.47004 7.92365C8.90004 7.49365 9.11004 6.89365 9.04004 6.28365L8.75004 3.76365C8.69335 3.27583 8.45923 2.82589 8.09228 2.4995C7.72532 2.17311 7.25115 1.99307 6.76004 1.99365H5.03004C3.90004 1.99365 2.96004 2.93365 3.03004 4.06365C3.56004 12.6037 10.39 19.4237 18.92 19.9537C20.05 20.0237 20.99 19.0837 20.99 17.9537V16.2237C21 15.2137 20.24 14.3637 19.23 14.2437Z" fill="currentColor"></path>
  </symbol>
  <symbol fill="none" xmlns="http://www.w3.org/2000/svg" viewBox="0 0 29 29" id="ic_youtube">
    <path d="M27.2202 7.84471C26.9141 6.70675 26.0169 5.80972 24.8792 5.5033C22.8006 4.93457 14.486 4.93457 14.486 4.93457C14.486 4.93457 6.17176 4.93457 4.09317 5.48174C2.97726 5.78783 2.05818 6.70692 1.75209 7.84471C1.20508 9.92314 1.20508 14.2336 1.20508 14.2336C1.20508 14.2336 1.20508 18.5657 1.75209 20.6224C2.0585 21.7602 2.95537 22.6572 4.09333 22.9636C6.19365 23.5325 14.4863 23.5325 14.4863 23.5325C14.4863 23.5325 22.8006 23.5325 24.8792 22.9854C26.0171 22.6791 26.9141 21.7821 27.2206 20.6443C27.7674 18.5657 27.7674 14.2554 27.7674 14.2554C27.7674 14.2554 27.7893 9.92314 27.2202 7.84471ZM11.8388 18.2157V10.2514L18.7528 14.2336L11.8388 18.2157Z" fill="currentColor"></path>
  </symbol>
</svg>